<mxfile host="app.diagrams.net" agent="Mozilla/5.0 (Windows NT 10.0; Win64; x64; rv:131.0) Gecko/20100101 Firefox/131.0" version="24.7.17">
  <diagram name="Страница — 1" id="r0N7tFX3xSwBzAyECLuj">
    <mxGraphModel dx="1500" dy="1966" grid="1" gridSize="10" guides="1" tooltips="1" connect="1" arrows="1" fold="1" page="1" pageScale="1" pageWidth="827" pageHeight="1169" math="0" shadow="0">
      <root>
        <mxCell id="0" />
        <mxCell id="1" parent="0" />
        <mxCell id="0jfEXohT_UeZMaqnGIv1-1" value="" style="shape=image;verticalLabelPosition=bottom;labelBackgroundColor=default;verticalAlign=top;aspect=fixed;imageAspect=0;image=data:image/png,iVBORw0KGgoAAAANSUhEUgAAAtcAAAKICAYAAAC7VtZ/AAAgAElEQVR4XuydCXxW1Zn/n+RN3uwhIUQlgQBhTUjQum/Vau3YGVv779jpZmvdEAS0re1ox05brVoBWbTaaWtdqNtoq7VanW4udd/AhewhIewQCCgIgUBC/vd37dWXRXOfex7gRX5n/vn0P9P7Hs793uc+53vOPffclOfntvT269dPent7JWzJykiTv7ywSP7+0mK5cvwxckz1QNm4caOce+65MmvWLCkrKwtb1Ycet2HDBsnIyPD/XEtnZ6ds375dcnNzXauSbdu2CeoDM9fS3d0t9fX1UlVVJampqa7VyTvvvCM5OTmSnp7uXNe7774raWlpkpWV5VzXli1bfG55eXnOdW3atEkWLlwo1dXVznWhgrffftu/lhb8169f7/OKx+PObcN5ouB6upZ169ZJe3u7VFRUuFbl30c4z8LCQue6UAFiFvclYs21IGeAfWZmpmtVsnz5ckHcDh8+3LkuxD6uZ0FBgXNdyNNghrpSUlKc67PMGbgvka9LS0ud2wX2W7dulfz8fOe6enp6BPnMgr91zmhsbJTi4mIpKipyPk/LnAH2mzdvNunnrHNGTU2NlJeXm+RGxAX6S4ucAV7o0y36OdQDp7KIWfCvra2VyspKkzxr2c/hHNH3ZmdnO8d/V1eX4M8iZyD/NDc3y7hx4yK3KyWKXKenxaRp0Tq55/F6+ezxw+SCf6+mXEe4BJRrPTTKtZ4Z5VrPjHKtZ0a51jOjXOuZUa51zCjXOl44ep/JdWpqimzZ2i033v26HFSYLTP/81PS6Y1AzuHMteoqUq5VuPyDKdd6ZpRrPTPKtZ4Z5VrPjHKtZ0a51jGjXOt47VO5xtPItLRUuf0PtdLe0SkzLz9F8jK2yze+eQ6XhSiuI+VaAeufh1Ku9cwo13pmlGs9M8q1nhnlWs+Mcq1jRrnW8dqnco1/PC2WKv+Yu1SeeGWJXPbNI+XYsf3lK1/7BuVacR0p1wpYlGs9rH/+gnKtR0e51jOjXOuZUa71zCjXOmaUax2vpJDrJSs3yI33vi5fPr1Czvv8cPnSl8+mXCuuI+VaAYtyrYdFuY7MjHKtR0e51jOjXOuZUa51zCjXOl77XK5j3rrrzV3dMvX21+TQMQfLd79WKeeff77cMGMGdwsJeS0p1yFBJRzGZSF6Zpy51jOjXOuZUa71zCjXemaUax0zyrWO1z6Xa2wDhW2h/vhUi7Sv2yIXf2mUXH/V9+Rn10+nXIe8lpTrkKAo13pQCb+gXOvxUa71zCjXemaUaz0zyrWOGeVaxysJ5Fok5u1P+PL8lfLgEy1yyZfHyAO3/1SuvmYq5TrktaRchwRFudaDolw7MaNc6/FRrvXMKNd6ZpRrHTPKtY7XPpdrNCCeHpNFyzfIjLvmyVmnDJbnH50lU6dNl0GD+RGZMJeTch2G0o7HcFmInhlnrvXMKNd6ZpRrPTPKtZ4Z5VrHjHKt47XX5Bpfz8HFSSyxWMz/X70NQ2TtO1vktofrpCB7uzQ+90u57de3SEnpIP3Z7PQLfqFRj9Dya2v8QqOev+WXqyy/tka51l9LyrWeGeVaz4xyrWdGudYxo1zreO0VucYnifEZVKyvDv7wqVB8shKzrgXeZ6O7vU/LPvTEAnmzYaWsfus2eeh/b5WDD3H//C3lWh8QlGs9M37+XMfM+lPG/Py5jj8/f67jhaP5+XM9M37+XM+Mnz/XMzvgPn8Okca33jET8fe//13OOussyc3N9QX7rbfekueee87/POSYMWPkc2d8Vl6uWS13P9ogm1r/Vx7/3S0y4KCBesqcuXZmRrnWI6Rc65hRrnW8cPS2bdv8L4sWFBTof7zTLyjXeoSUaz0zyrWeGeVaz+yAkmsINEp9fb38+te/lrVr1/r/2b9/f2lqavL3sT799NPl4IMPljlz5sj5531TDhpcLbf+/k15Z8nz8tBvfiCF3rGuhTPXeoKUaz0zyrWOGeVax4tyreeFX2DyBoKXn58frYKEX1Gu9Qgp13pmlGs9swNKruPxuCxatEgeffRRP8EtWLBApk+f7sv1nXfeKZDeSy65xE98S5YskcyMuOQWFMucP9bJ4rYmeeCmcyU/L0dPeTcz15mZmYL2uJbOzk5/3Thm310LlsNgFqqftyTGtSDp19XVSXV1tf9UwLVYPmLHmmssAcI1cC1dXV1+vOTl5blW5bPHExUwsyiQa8woWvDHmms88QE315Ksa66DmdPCwkLXU/R/j5hFXATvcbhUajkgt1xzjZyBTsRi5hp8ELOW/JEXsQTQtSTrmmvkfsSGJX+rnJGsa67xtAX9pkU/Z50zrNdcwzEyMjJcw9/3JXCz6OcsB4TgD2Zjx441ybOW/ZylXMMxcA0sBuRwFkwmjxs3LnJcpDw/t6UXNxAuAApeYETHjg6ho6NDbrzxRrn22mtlwIABcv311/vBg2PWrFkjVVVVcvbZZ0tOdqb89pFaecNbd/3bn50hAwqyIzco+KFlR2kp15ZJh7uF6MNkT8g14h8x7Vr4QqOeoOWAEDkDHaXFgNBSrrksRB8XnLnWM7MckHPmWs+fM9d6ZpZyDSHGn4VcI/80Nze7yfWjf3u1Nyfng5lmzGDgD/+31tZW+fnPfy7XXXedFBcXy2WXXSYQiCuvvNKXkZtvvlmOPuYY+fJZ/0/+9HSjPP/WGpny5QoZNwIvOr4n61EKZhEBHTOAGFEG4h+1LgQ9Zi9wTq51oaMEeIxOXeuCXLe1tUl5ebk/onStD7PNEAtwc60LiRrXOCsry7ku8MK5YobMtV0YKEF8Ro4c6VRXEEtghrhwlWvELOpCvELwLM4TbcRMuEtdOC/MdOJv+PDh/stdLgX3EWLDYnYG7QAznKPrzHWQM5C7cA+4MENbVq5c6U8klJWVOTFDu6xyBnjhvJAbg3dgXK5lELMWOQPM8CQTuWfgwIHOzNBJgptrzgAfxDzyhmXMWuQMMEMfi6cQ+Nt5Vy7NtcW1xDla5AzUBbnGNXDt59Aey5yBtrW0tEhJSYlzbrTMGagrWT0D8Y+nSkOHDjVxA8t+ztIzrHIGriWcZenSpTJixAjNbbjDsSmP/u213tzcD+Q62HoPN9XixYvllltueX/m+uqrr/aXh0Cy0QCsucYx37vsO1LbtFz+8PRiObpqgHzzX0d4N1SvRNVryrX+elp2lKgLQY/k7yoqqMsy6PeEXFuKSrLJNfhjQIzt+DCIc+nArTvKPSHXFgNy5MD29nY/biHXLswOFLkGM3RGGFjifRxXZlY5Y0/FrIVcgxkmV7DEBH8uA8JklutgQGgxuElmuYaQQWQtJvEwGQVZdx3cgBfuRQzihg0b5k+cusbZgSDXyD+YLHCS6xdfX9ibeGMH4NFJzZ8/X2666SaZNm2aP3N93333yRtvvCFXXXWVP0M3depUX7YnTbrYe/Fxvdx07xtSOrBAZlx2kt4Od/oF5A7/hsVaQIBCgGEW1rWgHgiexfptsMaaayyvsShWs7BoC84R7C3WvGMGCn+YoXQtSGBIFFg/ZlGwlMDiMRLaghlFxJjrLCzqwnmiWCxxgFyvWrVKRo8ebYHMX79qxQwxazG4wYkhZyBeLda8gxc6N3RIrsVy5g5tseZvIYpoF97VQbwecsghrsj8fIHZ08Snqi6VIs4s5M6aPx49H3TQQSbrwS1zBiQR8W/Rz1kzQ5+Jp3AWuRH9HPKFRc5AvEKKLfo5ywEJ+NfW1vp9psW7RZb9HGIMg0yLNe9gD9ezyBnIP1hz7eJmu6y5DhIYgg07hvzyl78UzFgXFRX5O4dgKUjQ6eNR8+TJk/3ZnY3vrpeptz4taZn9ZfYVn5ZDitxEimuu9V0JdwvRM+NuITpm3C1ExwtHc821nhnXXOuZcc21npnli/tcc63n/7Fec73zC40BHowmILh4bFVRUeGP7DAjh2DEyBEdBkZCkG6Mcrds3iRXz7hHtmYMlSsnnCwnHe72IRnKtT5QKdd6ZpRrHTPKtY4X5VrPC7+gXOu5Ua71zCjXemaWL+4fkHIN5HiEAKHGdHtQ8L8Hjxbw6AJiDRHfsrlTfnztLOnorZSJXz9BzvtCpf6qJfyCcq3HR7nWM6Nc65hRrnW8KNd6XpTraMwo13pulGs9M8p1OGYfuiwk3M/fOwpyvdmT66uvvlY2Zh0tJx9fJVdecKTE02OaanY4lnKtR0e51jOjXOuYUa51vCjXel6U62jMKNd6bpRrPTPKdThmZnLd2blJfvaz66Vo+GmSGi+QH154pAwpif6hFcp1uAuYeBTlWs+Mcq1jRrnW8aJc63lRrqMxo1zruVGu9cwo1+GYmck1buwZM6bL4Sd8UZ6r2Sg/OP8I+eThg8K1YjdHUa716CjXemaUax0zyrWOF+Vaz4tyHY0Z5VrPjXKtZ0a5DsfMVK5nzbxBzvjiN+Tuv6yQc79QIV//1zHhWkG5dv6ICRBSrvXhRrnWMaNc63hRrvW8KNfRmFGu9dwo13pmlOtwzMzkGm99zvRmrr/xrfHyxLz1UlwYl++dc6RkZ6aHa8lOR3HmWo+Ncq1nRrnWMaNc63hRrvW8KNfRmFGu9dwo13pmlOtwzEzl+oYbpsvFF0+SeQu2yNzaFTLr+5+SQYfkhWsJ5ToSp8QfUa71CCnXOmaUax0vyrWeF+U6GjPKtZ4b5VrPjHIdjpmpXONLjt+77FJpXSVy+0NvyozvfUqOqor2tS7OXIe7gJRrPafEX1Cudfwo1zpelGs9L8p1NGaUaz03yrWeGeU6HDNzub7sO5fKxu5s+eUDr8u/f3qEnHNmlaSEa8sOR1Gu9dA4c61nRrnWMaNc63hRrvW8KNfRmFGu9dwo13pmlOtwzMzl+tuXTpGc/GK59cE3JD8nLj/79kkST0sN15qEoyjXamR8oVGPTCjXOmiUax0vyrWeF+U6GjPKtZ4b5VrPjHIdjpm5XE+ePFmGDS2TOx+eLzUL1shtV58uAwqywrWGcq3mlPgDzlzr8VGudcwo1zpelGs9L8p1NGaUaz03yrWeGeU6HLM9ItcjyofI/z3XKn9+vs3b7/poOf6wknCtoVyrOVGunZBx5lqJj3KtBOYdvm3bNoH4FBQU6H+80y96e3v9J1SoKyUlyoK7HSu0HJAvXLhQMjIypLS01Pk8t2zZIlu3bpX8/Hznunp6egQSZcEfjbEckDc2NkpxcbEUFRU5nyflWo+Qcq1nRrkOx2yPyPXQIWXS0Lpa7nqsXj59dJlM+I9Dw7WGcq3mRLl2QmbaUVomHcuOct26ddLe3i4VFRVusLxfU671CCnXemaUaz0zy5yBgc3mzZulX7/oX1kOzsA6Z9TU1Eh5ebnk5OToIe30C8q1HqFlP4ctnFNTUyU7O1vfkJ1+0dXVJfizGJAj/zQ3N8u4ceMit2uPyPXgwYNkU+cWufHu16UwP1NuvOIUdQO55lqNjGuu9cgo10pm1h0lZk5zc3MlLS1N2ZJdD0fOiMfjkpmZ6VzX8uXLBQl2+PDhznVRrvUIKdd6ZpRrPTPKtZ4Z5Tocs5R/vNzYm5cXbS/q4J/AyMP/iMzMmTJhwoT3Hgv29sjdjzVK+9pO+dmlx8vBRdnS3b09VKvwuBP1paen+48Z8Sg0akFdSNSQAox08Z9RC+pCR4n6wMy1Xd3d3dLU1CRjxoyRWCzmXB8SBcQC3FzaFlxPtAn1udQFZhhN4lwhUS78g3YtXrxYxo4d61RXEANghna5PmIPYhZyhz8XZjjPzs5Ov4lZWVlOdeEadnR0+H+YucZ1cCk4L9ybrjkjaAPqwjlCrl2YgT/kAvW45gzUsWzZMv8+HzlypH/PRy2WOQNtCPhbxaxVzkDOaWlp8dkPGjTIKc4ScwZytmtcYFkIYsMqZsEM7cJ96lIQZw0NDTJgwAD/D+2MWsAMM80omAV0ybOoCzPX+EOcufBPjFkL/mBeV1cnQ4YMMetPLHJG4Bm4hq79HOpCnsb1tPAMtAnLj0aNGuXsBmibVc7AtcR9if+08AyrmEV7wL61tdX3jKjxn/L0Sw292Y6PV3wZ8CDNmjVLxl90kZSUlEjv9m6ZV98hT726VM75/Gg59ehBXicVTmyDjhIJ21VUgqAHIFdRCYIesmiR9HED4dHD6NGjTeQaooIgtRAVyJ1V0IMXbnAk/aiBiiQd3IyQ68rKSqcOJFHucC0t5BqJAvHqOrhJ7ChdYxZyvXbtWl+uEWcuHXjQUeI80YFYFNSFc3QVFTBDzOJ8XeUadWDmGnGLx88uzIKcAVG3EhUws4pZq5wBZm1tbX78Y3LFlZlVzkCMQjTRWVosI0B9YIZc5hqzYIbJFay3tpRr15wRDAghK679nHXOAPP6+nopKyszkVirnJE4iefaz1nmDNSFexFxhokCi77Jup9DG63kGhMhrjEbyDXeIYFnRHWWPbIsBMm1d3uPLG1/11saMk++eOpIGf8l3dqVA2FZCIIeo/Dq6mpnuUMSs3w5CaNTSDoStWuBWCDoLWYucGMj6MHMouDlJKuXwywfl1k+4rVccx28UFdYWGiB349ZLgvRoUTMWvJHZ4RO17Uk6wuNkGv0J5YvNFrljAPhhUbrnIE111iuZbFON1mXhVi+hAv+YIZZWAzoXItlP5esa64xuMeAJOnWXEOut/d0y5aubpk+Z64MH1QgP554nGTEw1/YA0GuMXONUXhVVZXzLAjlOlrKsHzz3zLpJKtcc821Ps645lrPjGuu9cwscwZfaNTzx9MR9OkWk0ioB+JpMSBEzq6trfVnYS3ebbHs55JVrpP2hUb/saAXHD3be+V3f22S5avf9eT6eBlWGv7NY8q1/ubmzLWeGeVax4xyreOFoynXemaUaz0zyrWeWbLOXFOu9dfygNgtBHLd3b1NYt76qFdqVsp9/9co/33RsXLSEYNCE6Nch0b1/oGUaz0zyrWOGeVax4tyreeFX1Cu9dwo13pmlGs9M85ch2O2x9ZcY7Ymnh6TJSs3yNQ7XvNeahwr3zqzMlyrvKMo16FRUa71qN7/BeVaB49yreNFudbzolxHY0a51nOjXOuZUa7DMdujcp0WS5X1G7vk1t/Pl5KDcuW/xh8jOZnhXpyhXIe7gIlHceZaz4xyrWNGudbxolzreVGuozGjXOu5Ua71zCjX4ZjtUblOTU3xtkHqlYefbJGaBWtk1n+eIoMPCbenNuU63AWkXOs5Jf6Ccq3jR7nW8aJc63lRrqMxo1zruVGu9cwo1+GY7VG5RhMyM9LkuXnLZM4jdTL78lPkiMqDQ7WMch0K0w4HceZaz4xyrWNGudbxolzreVGuozGjXOu5Ua71zCjX4ZjtcbmOe9vvLVy6XuY8Widnnjxcvv5vY0Lt6Uy5DncBOXOt58SZ6+jMKNd6dtwtRM+MLzTqmVGu9cwo13pmlOtwzPa4XMe8pSEbN2+Tu//U4L3gmCrXf/uT/ouOfRXKdV+Edv3vOXOtZ8aZax0zyrWOF2eu9bw4cx2NGeVaz41yrWdGuQ7HbI/LNZoRj6fKvZ5cv7WgQ2676nQpLuz7q3+U63AXkDPXek6cuY7OjHKtZ8eZaz0zzlzrmVGu9cwo13pmlOtwzPaKXGd5666feGWJ/N9zbXLFeUfJCZ8o7bN1lOs+Ee1yAGeu9cw4c61jRrnW8eLMtZ4XZ66jMaNc67lRrvXMKNfhmO0VuU5Pi0nL0nfkrj/VyalHlcnELx/aZ+so130iolzrEe3yC8q1DiLlWseLcq3nRbmOxoxyredGudYzo1yHY7ZX5Bpb8m3d1iM33vO6FOZlyo1XnNJn6yjXfSKiXOsRUa4dmVGu9QC5LETPjMtC9Mwo13pmlGs9M8p1OGZ7Ra5TvLakey8z3vnHOlnWvlGmffckKfU+KvNRhXId7gImHsVlIXpmnLnWMaNc63hx5lrPizPX0ZhRrvXcKNd6ZpTrcMz2ilyjKWlpqfLsvOXytxcWyZSvHSanHF1Gue7ulvr6eqmqqpLU1NRwV+wjjqJc6xFSrnXMKNc6XpRrPS/KdTRmlGs9N8q1nhnlOhyzvSfX3qfQl63eKLPvmitfOGWETPiPj153jZnrzMxMb6eReLgz+YijOjs7vS9Fbpfc3I+eLQ/zD3V7Qowk1q9fvzCHf+QxPT09UldXJ9XV1aH2/u7rH4Rc4xzT0tL6OrTP/x5JB/VkZfW9s0tfleERLx6N5+WF+zrnR9WHa9na2uozsyiQ64KCAhP+SDrZ2dneU5p056ZZdpQ4x1WrVklFRYVzu3p7ewVxVlhY6FwXKkBdiItYrO/tOfv6B5EzkC+QN1zL8uXLBXE7fPhw16oEOWPjxo1+nFkUXE9L/lY5Y+HChZKRkSGlpX2/sN4XB8tlIcj9iA1L/lY5o7GxUYqLi6WoqKgvJH3+95Y5A/kaudain7POGTU1Nf59iVzrWpJVruEGaJtFzII/mI0dO9Ykzx4Ict3V1SVNTU0ybty4yCGW8swrTb35+fmCCxC1YNYVnceMGTNk4sSJfnLFzZlYYrEU6erqkRl3vS6jygrlyvFH+ftd4/PoO5eUlBQ/GSJR48+lbagrUa5d60pMOhZ1IblWVlb6Qe9aX6LcudaF64k2Qa5d60qUa9e60IG0tbX5s/0udQUxB2aQO9cnB0HMBgNCl7ahrsSO0qUunNfatWtl9erVfpwhabsUiAqSvkWni3bgPs/JyXFO+mCW2FG6MEPcL1261MtXXTJixAgnZmiXVc4AL5wXmCFno26Xgt9b5Qwwa2lp8fP14MGDnZlZ5QzwQcwjn1nFrFXOADM8uYRcDxgwwJ8Ailoscwbq2rp1qz+4dHUDnI9lzkDbamtrZejQof5Ekst9bpkzUNfmzZv9gTT6E9d2WeUMtAvxjzgbM2aMP/Hj2rZEuXatC/cl+igMlFzrQr7Gn2vMBtcS+QyTeFHblfLUi/W92V7n5lIAp9OTntmzZ8uF48dLSUnJLnKNfgD+/tcXlsqSVRvkO18/VEYO6ee96LhrQgkSBWZOLeQaSQKALEQRQY/EAyGICh2sg053wYIFMnr0aBO5RqCCl8UNhAEJritk0fU8EfC4wV1voGAQt2TJEl8UXTqjIN4hsYgLC7lGXWCP2VNXZkjUKK4xiw68o6PDF2wkVyR/lwLmaBvi36KAGWLMdeY6GESjHtecgbyzbNkyP1FjhsyFWXCfoy5XGQjkGvcm7iULuQZ/xKtrzgAzzFyjrkGDBjkzs8oZgVyjD7CMWYucAWaYXMGsNeTaZeAbCIFFzgjkGn2daz8XyLVVzkCehihiAAeJdekDLHMG6kKMoT2u/ZxlzgjkGrOwI0eOdL7PAzezyBlBzOI/LTwDXmYRs77Pejl20aJF/tPeqH25vyzE1fQD6Zk+fbpMmjRptzPXkOuY1+i5davknscb5Ifjj5WTjxzkC/fuCl9o1KsL11xHY4b4d5Vr/MuWj8ssH/GuW7dO2tvbTZaFWD9it1zKlKzLQqx3C0GcYRbWVa6DmLVaypSsy0IsH7GDGWLWKmck67IQiAqE2GK23zpnYIlDeXm5yWApWZeFWC4lA3/M9mNCymLJqGU/lzhzre+9d/xF4sy1a10YKGHi02X56V5bc42TxTKQpd6s9dTbX5Nvfr5SvnXm2A9lQLnWhwflWs+MLzTqmPGFRh0vHG0t17jPrdb8WuaMA0WuLXPGgSLXEDKr9wQo17ocRLnW8cLRkOvm5ma3NdeYucboNOrUNxoSzFxPmzZNJk+evNuZaxyX5r3UuH5jl9z6YI0MHJDjrbs+RnKydv/yF+VaHxCWHWWyvtCIGV104i4jykSylh2l5Yg+mWeuLTtKzlzr7vPg5TDKdXhu1jPXljmDch3+OgZHUq51zCjXOl77pVzjYzJ4gfGPT7XIW01rZPblp8jgQ3a/gwTlWh8QlGs9M8uOknKt50+51jGjXOt44WjKtZ6Z9bIQywE55Vp3PSnXOl77pVyj0ZkZafL868tlziN1Mv2yk+SY6oG7PXPKtT4gKNd6ZpRrHTMuC9HxwtFcFqJnZrkVH+Vaz59yrWeWuFuI/tc7/oJrrvUErddc71fLQoArIx6T5kVvy+0P18qZnxou535h7G5fzKFc64OLcq1nRrnWMaNc63hRrvW8gpkjCB5eHHQtlGs9Qcq1nhnlWs8smV9o3O/kOs3b73r9pq0yx/sUelZmmkz99km+cO9cKNf6QKVc65lRrnXMKNc6XpRrPS/KdTRmlu9pUK7114ByrWdGue6DWdgXGlENPnsQ92T6nsca5M3G1XL7NZ+V4oJdvwJIudYHKuVaz4xyrWNGudbxolzreVGuozGjXOu5cSs+PTPLd4so14ZyjaqyvHXX/5i7TP78XJtcfv5Ru113TbnWBz3lWs+Mcq1jRrnW8aJc63lRrqMxo1zruVGu9cwo1+GY7dV9roMmpXtb8i1pf1fu/lO9nHBoiUz8ymG7tJZyHe4CJh5FudYzo1zrmFGudbwo13pelOtozCjXem6Uaz0zynU4ZvtErrEl39ZtPXLj3fOkIC9TbvrBqZRr7+uVroVyrSdIudYxo1zreFGu9bwo19GYUa713CjXemaU63DM9olcY911enqqvx3f0lUbZep3PimDDt5xv2vOXIe7gJy51nNK/AXlWsePcq3jRbnW86JcR2NGudZzo1zrmVGuwzHbJ3KNpqWlpcpz3n7Xf31hkUz6yqHy6WOG7NBiynW4C0i51nOiXEdnRrnWs+M+13pm3Odaz4xyrWdGudYzo1yHY7bv5Npbd7189UaZffdc+dzJw+XiL++47ppyHe4CUq71nCjX0ZlRrvXsKNd6ZpRrPTPKtZ4Z5VrPjHIdjtk+k2usu+7y1l3PuHOuDBmYJ1dNOt7b7zrt/VZTrsNdQMq1nhPlOjozyrWeHeVaz4xyrWdGudYzo1zrmVGuwzHbd3KdkiLbe3vld39tliWrNshPJh4n5YMKKNfhrttuj+ILjXp4XHOtY0a51pjW/AQAACAASURBVPHC0ZRrPTPKtZ4Z5VrPjHKtZ0a5DsfMl+uCggJBpxm1aD4iE/wbnltLmrc05NXaVf6WfP990XFy8pGDdpDrzMxM74Mz8ajNev93nZ2d/vnl5uY619Xd3S1IYv369XOuC5/lraurk+rq6t1+Al77D0CucY5paR88AdDWERxvmXS6uroEX/zKy9vxpdUobcO1bG1t9ZlZFMg14j8FAelYkHSys7O9l3XTHWsSP8ZQcnJynOvCOa5atUoqKiqc6+r1BsSIs8LCQue6UAHqQlzEYrt+pVX7D1g+7Vq+fLlA8IYPH65txi7HI2fgYwmIM4uC62nJ3ypnLFy4UDIyMqS0tNT5NC3lGrkfsWHJ3ypnNDY2ykEHHST9+/d3ZmaZMzAgRK616Oesc0ZNTY1/XyLXuhb0c3AMxK1rQcyCm0U/BzdA2yxiFvzBbOzYsSZ51rKfs/yIDBwD1yA/P9/1UgqcpampScaNGxe5rpRnX23udW1MINc33HCDXHzxxX5yRZD1VeLejiFLVr0r0++YK986c6x883MV0ov/6RU/sKyCHp8lDeQageZScF6oz5UZ2oBOt6GhwQ96MHQtVkEP0QR/CE9W1q5fz9S2EwGPc0XSceGPduFmbGtr8+Xapa7gHCB3uJYW/NGBWwwIcZ5BR+nagaCutWvXyurVq6WystJpEA1m1qKCmMUAIpkGhIiFZcuW+Yl6xIgRzsysRQXMID3JNCAEMwx6ISmDBg1yZmY5IIeoIG9YiGIwILTIGWCG/D9gwAD/zzWfQYZRcD+51mUpKpY5AzEPURw2bJg/keRynkE/h9yDvO1a4AWINdd+LnADq0k88MckHiZXLPKsZT8XyLWFZ1jlDMQFruWCBQucJvFSnnqxvtfvwB1m7pAkNnnJ68Ybb5QLL7xQSkLKdcxbd72pc5vc/7cW6Z+XIZd8rVr65calu6fXHzUjECDYrjcQoKMOXECXGXpAhySiPtcEFtSFCzhq1ChfZF3PEzcjOjdwc6kL1xP88Z+oz6UunCcSNZIO4syFPxjhZlyyZIkviqjTtYAZ2uUqKvg9mGHWGn8uzMAdNzcKkr5LXYiFjo4OX7DHjBkTatD7UUzRFpynxYw6/h3UhXO0iH8wQz2uOQPXD3KN+xwzZGEmCj6MmWXOwL8R8LeKWaucAWaYuQZ7yLUrsyBnIGe7xD/4I08gNqxiFszQLtcBOZhh5rqoqMiXa/QtUQvOE4NBFIt+DtcPf4gzF/6JMWvBH/d3fX29DB482JdYlz4g6Ocscgb4I1+gf3Pt5yxzRhD/zc3N/kSBa98UTPxYeQbuS9Rp4RlWMYt4QL+ESTwMSKLGf8pzry3wZ66jVoCbJ5i5nj59ukyaNCn0zDVeasRE8mPPLpS5de0y8/sn+y837qmZa4ub+0CYucY1hcRajeiRdMDNYlkOOjYEfVVVVdR+aIffJePMdSCd+E/LmWuXRBFAs5yFQp3WM9cWT7uQ7BOXhbjkRpzjgTBzDWaJy0JcmVnNQoF/ss5cgxnkuri42BdsV2bBzLVrzgCzZJ25Rttqa2v9mWuL/hz9HITTalkIBkgW/Zzl8tM9MXONAZzV8kf4o8XMNWIWecNiWQ4Gqs4z1/6aa+8RI14ujFqirLkO/q2szHR54fVlcscf62Tad0+SY8cN9P8rq0cPgahwzbXu6nLNtY5XIIpcc63jxjXXOl44+kBYc41OEn8Wy++sB4SW72lwzbU+/rnmWseMa651vHC0yZpryDXWormMml3kOiMekwVL3pHbHqqRz51ULud/scp/TGD5cpLlC42Ws1AYneIRF2ZhXR8xIiC4W4j+JuJuITpm3C1ExyuYucYTF6uXk3CfW71QZ5kzkvWFRsuXw4LBDfpMi5ydOHOtj6wdf2H5QiNmAfHI3mKdunXOgFyXl5ebzFxbTiKBV/Bukeu1tHwJGvwx24+llBZrrrlbSLiru8+24gualxbzXp7btNWfuc70RHvad0/29ruOUa7DXb8djrLsKJF0cCNaPK6xfIsaHQg6ccvdQqw6SsukY9lRrlu3Ttrb2012C7HuKC13uMGAHMtCLF5OstwthFvx6ZOZ5W4hlGs9f8q1nhnlWs/McrcQy6ddyD9Yp+60W8i+nrnGBmhxT6bvfbxB3mhYLb+5+nQ5uH825Vofp5y5jsCMM9c6aJRrHS/OXOt54ReUaz03ywE55VrPn3KtZ0a57oOZy7IQVJ2VkSZPvrpEHn9moXz/3KPkpCMGUa71cUq5jsCMcq2DRrnW8aJc63lRrqMxo1zruXFZiJ6Z5RNayvUeluv0tJi0LntH7nq0zhfryV/9hLfPMh7xZpi8xcs11/obiMtC9Mwsk45lR8llIfpryWUhemZcc61nxjXXemZcc61jxjXXOl7B4H6/XxaCE0n1XmDc1rNdbrp7nuTmZMjN/3WqtxXcu95WLzZfTqJc64OLcq1nRrnWM+Oaax2z4Gt3fKExPDeuuQ7PKjiSy0L0zLgsRM+MM9d7eOYa667Tva813v2nBlnqfbHxhu9/SnIzerwPQtjsP0m51gc95VrPjHKtZ0a51jGjXOt44WjKtZ4Z5VrPjHKtZ0a53sNyjerTYqkyr36V/N9zbXLhWYfKJw8tku0S47IQRbxytxAFrH8eyjXXOmZcc63jhaO5W4ieGV9o1DOzXEpGudbzp1zrmVGu94pcp8iKNZtk5m/nypmnjJSLvjjSWyry3ue3XQtnrvUEOXOtZ8aZaz0zzlzrmHHmWseLM9d6XvgF5VrPjXKtZ0a53gtyjU+hb93WIzPmzJUhJf3ksrPHSkF+jqR5665dC+VaT5ByrWdGudYzo1zrmFGudbwo13pelOtozCjXem4HrFzjS4n4kAi+FrTzFxyDL/3gv3Pdig+XBC819nifYH/o782yeOVGufQrY+TwsaUiKWn6K7bTLyjXeoSUaz0zyrWeGeVax4xyreNFudbzolxHY0a51nM7IOUaYh2LxWT16tX+J1Ah04Fgp6en+3sqQ6zx3+E4yNi0adNk8uTJUlpa6q8z1BTvn5NYaqrMrVsl9zzeKJO+NEa+cFoFtFtTzW6PpVzrEVKu9cwo13pmlGsdM8q1jhflWs+Lch2NGeVaz+2Ak2uINT4h/Oyzz8pf//pX+e53vyv5+fn+W9eQbLxscvPNN/sS/ZWvfMWXa3x62EWucVni6TFZ5u0WMu3OufL5k7z9rr92pDcrHtNfMc5cOzOjXOsRUq71zCjXOmaUax0vyrWeF+U6GjPKtZ7bASXXWOKBb7Q/8cQTcv/99wt2B/jVr37lyzUSezwel0ceeUSmT58uZ599tlxwwQVmco0dQ9Zv7JLbH66Vftlp8uOLj5P83Cz9FaNcOzOjXOsRUq71zCjXOmaUax0vyrWeF+U6GjPKtZ7bx1quX5jX2oulHYlLPtra2uTll1/2d+r4+9//Ltdee63gowUQ69dee82fzcZM9fDhw+Wcc87xZ7MhY1OnTpUpU6ZEWhaCy4KXGtGOR55ulVdrVshNP/i0DBmYr79iO/0CQY9BQk5OjnNdWAqDZSYYbLgWPAmor6+XqqoqwdMC1wK5wzkG6+Fd6kPQox48wXAtGKxhmVBubq5rVT57fAkOzCwK5A7xb8Ef90RWVpa3Z3u6c9NwnijZ2dnOdWG7wfb2dhkzZoxzXbg/EWfIBxYFdSEu8PTLtSAHIUdZ7DC0YsUK/wldeXm5a7P85XPYJg1xZlEQs5b8rXIG+g2wLykpcT5N5AzsWJGXl+dcF3I/YsOSv1XOaGpqkuLiYunfv7/zeVrmDORr9JsW/Zx1zqitrfXvS4vciH4O+doiZyBf4F636OfgBmibRcyCP5hVVlaa5FnLfg55ERO66DddC/IF8oZFzkA9+EJjdXV15GalPPNKU2/iDfSeZKR4AZcmLS0tMnv2bLnmmmv8BIBO+pZbbpEzzjhD3nzzTf9Exo8f74sJEv7MmTNlwoQJfnJFkEUpmRlp8uJbK2TOI/Uy9TsnyrFVA2W7FxwuJVhzDeg7v5iprRdJB/VZBD0YNTQ0yNixY/0Acy0QFSQcV7nD9URnBOGxCHokHXALnn5EPU+0CwkHnTiC3vVaoh2IW7TLgj+SDgYjEDyXEpwn6nAdEKKutWvXypo1a3y5dmUGUcF5JqPcIWYR+64DQjBL/Py5KzPLnBGIipXcWeaMxM+fuzILcoZFR2n9ERmrnIE4S/z8uSuzYJ9ryJ1rXRAVXAMLubbMGWCGz58PGzbMl1iX80RdyGUWOQO5Opi5du3nUJflgBz86+rqpKKiwmTizeoJbeAZ6HstBkrwUfxZxCxif8GCBW5y/eBjL/Tm5HwwOxaIGQJ32bJl/trq6667zh9Z33777X7jsQYbIo0CuUaAL126VB544AH5/Oc/L0VFRf767CgFX2pcvrpTHn1upZx4aLF8/sSBnryLN/McTbBx4RD0aCMuIAItakFd6CgBHknftS7cQIsXL5YhQ4b4Qe9aH8QTI3BcQ9e6MIDA+UJUXOtCzOBcIYqudeFarly50p+5cKkriAF0SIgL15nrYMcciDX+XNoWxCzaiMGNS10YIEEG8IcOKeqgN+CFtuAauEp/In+cI9rp0lGCGa4l7iPcAy7MUAdm+nGvDxo0yIlZkDNwDyCnurQLzMAI96ZlzFrkDDBDf4Hcc/DBBzszs8oZuK/RF4GZxYwirgHiDDHrOiAHs0WLFvkTNRisRu0z0SbLnIG6INf4s4xZi5yBtmEQN3DgQOfcGOQM5B6Lfg5egGto0c8h91jkDJwj2oQ4KysrM3EDTGIgZ1j0c7gvcY+69nPBcubgCblLng3qQj6DZ0Ttl1L+9myNN3P9wYwuThQNQ/LGzDXkGi8q4h/48Y9/7HdeBx10kD96xHFf/epXfaHGriL/8z//4y8TOeSQQyInVywN2dLVLQ/8baFs94LiqolHSVYmdiqJqsTvjSitloUkynX0Fr33S4gORkejR492TtSoD6NwXDeLZSHoQIKk43qe1stClixZYrLEAeeFUTgGSq4dJepC0kGSdn1ygLqsHvHifsYTp46ODhk5cmTkRJEo15aP2BGz6IwsloVYPeIFMwzgELdDhw51Zma5lAx5GMwwO+M6ILTMGWgLJgrQ4UJ8onZIQZxZ5gzIBfKZxYyWZc4AM/SxmLjCnyszq5yBc7Ts56yX5WC2H6JoMdtplTPALFGuXftMy5wB/lh+hPxv4QaW/Zz1spBgQOjKH/kHgzjM9kctKS++vnCHNddBRRCEt956S2bNmiUzZszwE9O6det8UYVA3Hrrrb6QYOYaMxUA/rOf/UwuvfTSyGuu8W9jUUo8HpN7Hqv3Poe+Wu746WeluNBt3S9AIcAsljigHqtZECRTPK6xWj+MawBRsRBFnCNuRNclDkGiRrK2SIZIYK2trf5SGosSiIpFXUjUwSysa304TxTXJQ6BDKxatcofxFkUS2aIWcyOWYgiEjXi1WJwA7nGNcBsv2tBzkDbLJY4BEJsJYqWOQOzY5jRgly7FuQLdJQWs51oC84zGfljXSeWXBYWFroi8+PVKmdgQIK+3mq23zJnoM/E+14WuRH9HPKFRc5AvEKKLfo5uAH6E6uYxZpr9JkWedayn0OMwVcs1ryDPVzPImcg/2BA4uJmKc/PbdmtXEOsIDH33XefXHLJJf6jK0DAxUHj77jjDv9/P+uss/wb2mIrviC7YKb67y+2yePPtsl/nneMnHzkIKfEw32u9fi4W4iemdVaNPzLwfpJi0SBQTGWObiMwgMaEEWcp4UMoE7uFqKLM+4WouOFo63XXONJUNAf6luz4y8S11y71mWZM/j5c/3V4G4hemYf691CPkyuIdG4wSDN6EgTZ0Px/0eniGOCR+qA5LrPdXBp4t7LlPWt3sdkHmuUU48ZJpO/epj+qiX8gnKtx0e51jOjXOuZUa51zCjXOl6Uaz0v/IJyredGudYzOyDlGpiCz5/v7muLwRpJzApYfP488bLgS43rN7wrv3igRgr75cjPf3Cq/1Jj1EK51pOjXOuZUa71zCjXOmaUax0vyrWeF+U6GjPKtZ7bASvXYVFZy7X/tvKWTrnvLwtkZccW+dm3T5SyQ6LvK025DnslPziOcq1nRrnWM6Nc65hRrnW8KNd6XpTraMwo13pulOs+mNnLtbdjiLfQ/dW61fLkqyvkoi9Vy78cN1R/5f75C8q1Hh3lWs+Mcq1nRrnWMaNc63hRrvW8KNfRmFGu9dwo13tZrrEcZcvmTunYsE1u+d/58tkThsqUr31Cf+Uo15GZUa716CjXemaUax0zyrWOF+Vaz4tyHY0Z5VrPjXK9D+R6syfXvZIqN/9vjQw+JE+unnS8pKdF+4ohZ671QU+51jOjXOuZUa51zCjXOl6Uaz0vynU0ZpRrPTfK9T6Q685OfG0tXZ58ZYU0LVorP7jwGBkxuEB/9bxfUK712CjXemaUaz0zyrWOGeVax4tyredFuY7GjHKt50a53gdy7X9iNjMuNS3vyJ1/rJUrxx8jpx5dpr96lOtIzCjXemyUaz0zyrWOGeVax4tyredFuY7GjHKt50a53kdynZOVIavf3irX3/6KfPVfx8gFX6zWXz3KdSRmlGs9Nsq1nhnlWseMcq3jRbnW86JcR2NGudZzo1zvI7nO9Gaut2wTue3BGikqyJQfjj9W8nLi6ivIZSFqZP7ngvGVTotPxuOzvNgr3eJTrniisXDhQqmujjbQ2pmE5dfWKNf6OKNc65hRrnW8KNd6XpTraMwo13pulOt9JNfxeLrE43F55OlWea12pcy+/BQZWtJPfQUp12pklGs9Mv+z4BiMIGZdi+WnjPn5c/3VWL58uWBQOHz4cP2Pd/oFBpa4ngUF0d4ZSayOcq2/HPz8uZ4Zv9CoZ0a51jOjXO8juU5PT5d++dnywpsr5PaHavyPyZxwWKn6ClKu1cgo13pklOsIzDhzrYNGudbx4sy1nhdnrqMxo1zruVGu96Fc5+VmScuSt+U3D9V6+10PkQvPGiepym+hU671Qc9lIXpmnLnWM6Nc65hRrnW8KNd6XpTraMwo13pulOt9KNfZmRnybudWufOROomlpsgNl50smRlpqqtIuVbh8g+mXOuZUa71zCjXOmaUax0vyrWeF+U6GjPKtZ7bx1+u8/O9D7ZEL9afP8cXGrFGEctCMrz1q+npqXLf/zXK3NpVcvtPT5eDi3Kk12tw2AnsZJVrrMVsaGiQqqoqAUPXAlHJycnxubmWA0mu8734j8VirsgOiGUhWL+6YcMGKSwsdOaFCijXOoyUax0vHN3d3S3oxC3WvKM+y5egGxsbpbi4WIqKivQnttMvLN/TsFxzbZ0zampqZNiwYZKbm+vMDP0c+svMzEznuizl2vI9je3bt0ttba1UVlb6mxS4FstJpGSVa1zLBQsWyLhx4yLjSnnqxfreHC9IUyJXIb4YAtLs2bNl/PjxUlpa6u8OEbVArnFyEB68HBZPj8lL81fK315cKpO+Ui0nHnaIdPeEGw74n1L3XkxCgGVnZ3tSHu53u2s76sJ5oT7sfGFRV3Nzs4wZM8Y/V9f6kCiQJJAsXOvCgATnixf0XOsCLyRYiL9LXUGcLV68WMaOHetfU9eCuEVcuA5uwAp1+fHq/bmcZxD/ODdX/oirjo4O/6+iosIXDZcC5ogNi44N7QAznKPr4CYYkKMe3AMu/NEBLVu2TLq6umTEiBHOucwqZ4AXzgsShXsJ5+xSgpjNyMhwzhnIOS0tLYK6Bg0a5BRnaBfYI1Zdcwb4IPcgZi12Kwpi1iJnIM4wuQKxhmCjnVGLZc5AXZBr/OE+d7mXcD6WOQN5uq6uTsrKyvzr6dIHWOaMgD/a4xqz1p6BuMIgbtSoUc73OdoGz8B9btHP4b7ENXXN2UHOQK51jVm0B+1qa2vzByRR4z/lmVeaei0ag4Q/Y8YMmTBxopSWlDh3SJ2eXCP5xL2kHYulyMo1nXKvN3v9idHFMuVrh/onHNaTE+U6avIKfoeEj/os5CIIekiPq9yhfQh6iIrF6BTXE/XgJnItSNIIeiQdlxIkw0WLFvlyHTXoE9uAWVgkaVdRCTrdQFRczhO/xeAykGuXunBe2C1kzZo1/iDOpTMK5A5xhtl+i4K6ICquco22BE+7XHdrwb2YuFuIKzPkDFxPC7lDzIOZVcxa5QwwwxaZiH9MrrgyS5Rr1zhDWxAbFvzRFuQM5H/XnI3fBzPX/fv3d85nVjkD54h8jWtg0c8FMWuRM5DPINdDhw51lljLnIG6LGPWckCI+McgbvTo0SZugAkRyLCFZyTKtet9bhWzwYQsJgvgGVFLygvzWnv79evndGMHM4pTp06VKVOmmMxcJ3aUmJ/p7tkuN94zz/tqY7rccuWnVTPtSDrBiDIqqOB36CgREBaJAjdQfX29vyzEQu7wuAYCaxH0uIFQj8XjMiSdYETpyh/s0YmDmUXBsgTEvwV/dLoY3Fgsy8F5okA8XQseY7e3t/ty7VrQUSLOrB6xoy504BZyDVGEWFsMCFesWOEPosvLy12R+TOwyGeIM4uCmLXkb5UzMNMD9iXe5IprQc7AoNxCiJH7ERuW/K1yRlNTkz9rDbl2LZY5A/ka/aZFP2edM7DEAfelRW5EP+cvPzWYREK+wL1uMSCBG6BtFjEL/sGyEIs8a9nPIS/CHy2+p4F8gbxhkTNQD1YVuHxPI+X5uS1mcj1t2jSZPHmyuVxjihrrru95rEFal66X67/9SRlSEn7mLFnXXONGDOTadRYEiZlrrvXdk+X6Scu1aJbrJ7nPtT4uuM+1nlnizLX+1zv+AqKCztJC7rjPtf5qWK65xuAGudHqPQ2suYZcuz4JBZVkXXNt+Z4A11zr4x/5B3LttOZ6f5BrjLzS01LlxbdWyGPPLJQJXzpUTj9haGhilOvQqN4/8EB6oRGzAxaDG8q1Ps74QqOOGV9o1PHC0ZRrPTPKtZ6Z5QuNlGs9f8w2489iQH5AyTXWXbd3dMqM374m/3piubfu+hOh6VOuQ6OiXOtRvf8LyrUeHuVax4xyreNFudbzwi8o13pulGs9s2TdLeSAkutUb4/rbdt6ZOZd82Rgca5cffHx3vrrcNvKUK71Qc+Zaz0zyrWeGeVax4xyreNFudbzolxHY0a51nOjXPfBbE/ucx1s94KvMm73loc89ESLt+76bfnxhONk5JBwe+1SrvVBT7nWM6Nc65lRrnXMKNc6XpRrPS/KdTRmlGs9N8p1Esg1tnSNeW+Vzmtolzl/rJMfXHCMnHZsWairSbkOhWmHgyjXemaUaz0zyrWOGeVax4tyredFuY7GjHKt50a5TgK5RhPwMZnlq9+V6297Vb7+bxVy3v8Ltx0b5Vof9JRrPTPKtZ4Z5VrHjHKt40W51vOiXEdjRrnWc6NcJ4lc46XGzs3d/pZ8udnpcsX5R0teTrzPK0q57hPRLgdQrvXMKNd6ZpRrHTPKtY4X5VrPi3IdjRnlWs+Ncp0kco2XGsX7evnjzy6Ul7xt+WZfcYoMLen7wwyUa33QU671zCjXemaUax0zyrWOF+Vaz4tyHY0Z5VrPjXKdJHKNZmRlpMlL81fKbQ/VyHWXnignfqK0zytKue4TEWeuvfX8roVyrSdIudYxo1zreFGu9bwo19GYUa713CjXSSTXGfGY/5XG2/5QI/9y3BAZ/6Vxgp1EPqpQrvVBz5lrPTPKtZ4Z5VrHjHKt40W51vOiXEdjRrnWc6NcJ5Fcx7ylIZs2b5M5j9ZJivc/M753smR6s9mUa37+XH9ri/Dz5zpq1p8yplzr+FOudbwo13pelOtozCjXem6U6ySSa8xRZ3gyff+fG+Vlb3nIb646XUqKcyjXHgGISk5OjqSnp+ujfKdfcOZaj5Az13pmlGsdM8q1jhflWs+Lch2NGeVaz41ynURyjaZg3fUz85bJI0+3yHe+cYScevRH73fNZSH6oKdc65lRrvXMKNc6ZpRrHS/KtZ4X5ToaM8q1nhvlOsnkOj0tJotXbpA7H66V4w4bKN8++wjOXHPmWn9ne7/gshAdNi4L0fHC0du2bZNNmzZJQUGB/sc7/YJyrUfY09MjmCyw4I9/3TJnNDY2SnFxsRQVFelPbKdfIMZQ8PTStWzdulUgi/369b0bV1//lnXOqKmpkfLycpPzRFzgSW9mZmZfp9Hnf0+57hPRLgdQrpNMrvECY4/3KfQb754nGfE0+cUPT/NeavzwRnLmWh/0nLnWM+PMtZ4ZZ651zCjXOl44mnKtZ0a51jOjXOuZfazl+umXGnpz8/L0VBJ+keptY7Zp40aZOXOmTJgwQUpKS/3ZmqglxZPnzZ2dkpaWJunxuKBD2aF4/2s8PVV+97cWbwb7Xblq4tFSNjBPuru37/JP+nV5I3DUkZ2dvWtdikaiLpzXli1bJM9jtku7ItTV3NwsY8aMkVgs5lwfhBgjcIzEXduGWRBc16ysLOe6wAsdHGZUXNqF9uBmXLx4sYwdO1YwI+JawAztQt0uBbGBtsW9eMWfy3miLgwIUVxjFnHV0dHh/1VUVHj3SLfLafrMERuIf4sCZogx3OuuzNAunC/uAZe60JalS5dKV1eXjBgxwomZZc4Ab5wXmOXm5grqdin4vVXOALPW1lY/9gcPHuzMDOwRq645A+eIenA/WcWsVc4As4aGBn/WGrPXyJFRi2XOQF2Qa/whzlzuJZyPZc5Anq6rq5OysjL/err0AThPq5wReAbaYxGzlp6BuMITklGjRpm4AeI/IyPDrJ8DOwvPQM4AN9eYRYwhXyxcuND3jKjxnwK5zvFuIJcSyPWsWbPkoosuspFrT4jTvI5yt3LtNTbN+1rj/AXr5M/PtcnXPjtK/vXEIbLtQ+QacgdAFhcQiRr1uV7AIOk3NTWZyrWVqCC4cF1dRQXniaDHDe4qin6ceQK1aNEiBF+WxQAAIABJREFUM7mGqCAZWogK6kLSsRjcYECI4hqzYLZu3TpZs2aNH2cuHXggd7gGiH+LAmaIC4vBDdoFYcE1iJoQcU4Q9OXLl/txi8fPLsyC+xzX03VAnsjfMmZxj7sObsCsra3N73BLvckVV2ZWch3IHfJZssUsmCH/Q67x5yqKVjkjGBDiGrj2c9Y5I5DrIUOG+G1zZYa4wHVwzRlgBi9Ae1z7Ocucgbqs5dq6n0MbLTwDg0HItevgBjGGewlyXVlZGbkvSXl+bksv1qK5dEbBjOLUqVNlypQpfnJ1nblGRwlJ+bBZQGzJ176uU2648zU5/YRhcunXP/GhfT1ABSNKVyEIZkHy8/Ndq/KDvr6+XqqqqpzlDo3BsgQEFjpK14IbCPVYrEVLHFG6tisYUYKZRcGyBKwrdJVrtGXDhg2+DFvs1pI4c+16nlgj2t7e7su1a0GeQJxZrV9FXegk0cG5FsyoIF+go3QtK1as8DtLyLVrQc5APrNYv4q2IGYt+VvlDMg12JeUlLgi8wc26CwtZpuR+xEblvytcgbkGrPW/fv3d2ZmmTPQf6PftOjnrHNGbW2tf19CYl0L+jnka4ucgXyBe91iEAc3QNssYhb8wQyiaJFnLfu5xCfkrtcS+QJ5wyJnoB6sKqiuro7cLF+ucQEt5HratGkyefLkvSLX+BQ6Zqpn3TVPDuqfLT+dfLxkZ+5+CzquudbHB9dc65lxzbWeGddc65hxzbWOF47mmms9M6651jPjmms9s4/1muv9Vq69RwnbpVcefrJFmhe9LT+eeJyMGlK426tLudYHPeVaz4xyrWdGudYxo1zreFGu9bzwC8q1nhvlWs+Mct0Hs2BZyN6cuca7PLFYqrzRsFpu97bk+68LjpHTjt39fteUa33QU671zCjXemaUax0zyrWOF+Vaz4tyHY0Z5VrPjXKdhHKNJsXTvRePVm+Uabe/Kmd9ZpRc9KVxnLnmFxpVd7jlnrWUaxV6/2DKtY4Z5VrHi3Kt50W5jsaMcq3nRrlOUrnGzPXGTV3ezHWd5OfG5UcXHef/586FM9f6oOfMtZ4Z5VrPjHKtY0a51vGiXOt5Ua6jMaNc67lRrpNUrvFSI7bAfuzZVnnpzZUy+/JTpHzQrl+Uolzrg55yrWdGudYzo1zrmFGudbwo13pelOtozCjXem6U6ySVazQrKzNNXn5rpfz6wfky9TsnyQmH7boNFOVaH/SUaz0zyrWeGeVax4xyreNFudbzolxHY0a51nOjXCexXGPd9dJV78qcR+vkU0cOlvP/X5X3QYodv1xGudYHPeVaz4xyrWdGudYxo1zreFGu9bwo19GYUa713CjXSSzX+JjM5q5uufuxBu/DNT0y4/ufkqyMHT+iQrnWBz3lWs+Mcq1nRrnWMaNc63hRrvW8KNfRmFGu9dwo10ks12hapifT9/+5UV6ev1J+c9W/SEnxjp9mplzrg55yrWdGudYzo1zrmFGudbwo13pelOtozCjXem6U6/1Arp+bt0weebpFLj37cPn0MUN2aDHlWh/0lGs9M8q1nhnlWseMcq3jRbnW86JcR2NGudZzo1wnuVynp6XKkpXvyp1/rJWjqw+R737zSMq1Ps53+AXlWg+Qcq1nRrnWMaNc63hRrvW8KNfRmFGu9dwo10ku1/haI7bku+ne1yUtFpNf/PDTgrXYQeHMtT7oKdd6ZpRrPTPKtY4Z5VrHi3Kt50W5jsaMcq3nRrlOcrlG8zLiqXLv403SvHidXHfJJ3fY75pyrQ96yrWeGeVaz4xyrWNGudbxolzreVGuozGjXOu5Ua73A7nG0pBXalZ6665b5cJ/r5Z/+2Q5Z671sf7+LyjXeniUaz0zyrWOGeVax4tyredFuY7GjHKt50a53g/kOs37FPrqdZ1yw5y58pljh8i3v3E45Vof65RrB2aUaz08yrWOGeVax4tyredFuY7GjHKt5/axlut/vNzYm5eXp6eS8IvU1FQBpJkzZ8qECROktLTU23N6W+Q6U7xF1FjKkZaWJvF43FtP7S2o7lPwU2Rbz3a5+b635JABOfKj8Ud7X2+MyfbtIgj67d7/Jzc31//PqAXtwnmhvvz8/FDt+rB/K6irqalJKioqJOatFQ9znh9V34YNGyQrK0vS09Od6gquJ/4T9bm2a8uWLdLd3S2IMxf+QbsWLVokVVVVTnUFHMEMcYG6XQquJ2b7MzIyQsfsh/17aMumTZv8/zo7O9uJP+Kqo6ND1qxZI5WVlf51cCm4frjXEf8WBcxwjrjXXeMM7UI9mZmZTnWhjqVLl0pXV5eMGDHCiZllzgBvMAIz3Euo26Xg91Y5A8xaWlr8+B88eLAzM7BHrsW96RoXiHncT1Yxa5UzwKy+vl4GDBggxcXF0tPTE/lyBn0mKsjJyXHKjahr69atfvwjzlz4oz2WOQO5sba2VoYMGWLSnwRPaF1zBpjBC3ANXfs5y5yButCmhoYGGT16tLMbBDkDvMK62Uf1c4FcW3gG4hVx6xqziDH4Z2trq+8ZUeM/5akX63tzvATmvxEYsQQyMHv2bLlw/HgpLSlxluvNnpBBDOIhRTHFd6MUefKVZdKw8G35ztnjpLK8v2zr3u4nCdzgrqKCfwGJGvUhgbkW1NXc3Cxjxoxxlju0BYGKoEfSdilBosZ1RWfpWhDwOFcwixqo/tX1EgU6ycWLF/ui6FJXcE5ghrhwlWvUh7Yh4WBw41KCRI06cD1dCs5r7dq1vmAjzlw68KCjROKB9FgU8Edixb3uWhIH5C51oS3Lly/37/Py8nJnZoh9DDAtmCHmEWe4l1zlOohZ3OOuOQPMFi5c6OcLTK64xlmQM3Bvuha0BeJjwT/IsxY5A8waGxt9uS4qKnISYrQLMYbiKiqoAwMbXAOLfg59r1XOQMxjQFJWVmYy8MK9FEziucYZ8gVizbWfQzsscwb4I85GjRrlfJ9b5gxrz7CK2aD/bWtr8yc+o5aU5+e29Pbr189JVIIZxWnTpsnkyZNNZq4R9JCUsKMjTOJgacgbjavl9j/UyA/OP0ZOO+69/a75QqM+PLjmWs+My0L0zLgsRMeMy0J0vHA0hAf5rKCgQP/j3fzi7bffFvSZFgNySA9mrSHXriV42mUhxBBrDEhwnq4FcofcWFhY6FqV//uamhp/0GtxnogLeIbrJAbaxWUh+sv7sV4W8nGRa1zWeHpMVq7ZKFNvf1X+/bRRctGXxlGu9fHu/4JyrQdHudYzo1zrmFGudbwo13pe+AXlWs+Ncq1nRrnug1kyzFyjiTFv5npj5za54+Eayc2Oy48mHCv9cjM4c62Pecp1BGaUaz00yrWOGeVax4tyredFuY7GjHKt50a53k/kOhVrQ7z/99gzC+WFN1fIjZef4u93zWUh+qDnzLWeGeVaz4xyrWNGudbxolzreVGuozGjXOu5Ua73E7lGM7My0+SV+Svl1gdr5KdTTpCTjxgkm70XsHr+uVuI/vLv+AssmoesW6xFw0sLeDkDb6RarN+DqGAdmusLdThjyrU+UijXemaUax0zyrWOF+Vaz4tyHY0Z5VrPjXK9H8k11l0vWr5efvOHWjn16MFy8ZcPk61dm71dQ3pM3hanXOtvILzFDm6uWz7iX8ZLO9iVoLq6Wt+Q3fzC8uUkyrX+klCudcwo1zpelGs9L8p1NGaUaz03yvV+JNexVG+P7C3dMufROtnu7Xs9+/JPeytFtnovaHRTrhWxz5lrBax/Hkq51jOjXOuYUa51vCjXel6U62jMKNd6bpTr/Uiu8VmFjIw0eeAvjfLiWyvljms+K0W5qdJFuVZFPuVahcs/mHKtZ0a51jGjXOt4Ua71vCjX0ZhRrvXcKNf7kVyjqZnxmLzkrbv+k/di4yVfP1yOrSrizLUy7inXSmCUaz0w7xeUax02yrWOF+Vaz4tyHY0Z5VrPjXK9n8k1PiazqmOjzHmkXj5RcbBM+o8K/0uNFpvOc821/gbimms9M8sPQqxbt07a29udvjYVnIH1ByEo17rYoFzreFGu9bwo19GYUa713CjX+5lcY0c+fM39pnte93bOSJPp3zlGsBY7O9v9k+WUa/0NRLnWM6Nc65lt2LDB/6KrxdfW8PlzxO3w4cP1DdnpF8gZuJ4WXwikXOsvB7/QqGfGj8jomVGu9cwo1/uZXKO5GfFUue/xJmle8o7813mHyaghBZKRma2/+rvpKLkVnw4j5VrHC0dTrvXMKNd6Zpbbd2IXn4yMDCktLdU3ZKdfIGdA8PLz853rolzrEVKu9cwo13pmB6xcp3hTwJgJwo2GGROUtLQ0/w8F+zTjL1m+0Jh4adPTUuWVmlXyqLfu+mufGeZ9Dn2kpKZl6K8+5dqZGeVaj5ByrWdGudYzo1zrmVlu39nY2CjFxcVSVFSkb8hOv7DMGZRr/eWgXOuZHZByjQ+RdHV1SW1trb9WE5Idi8Vk9erVMm/ePF+2Dz/8cDnkkEP8/z9egJs2bZpMnjzZn7nAo9CoBVKPRIE24N8NxF5TH5aBrHlns8ycM0+OrR4g/3XBUZISo1yHZcgXGsOS+uA47haiZ8Y11zpmXBai44WjOXOtZ0a51jOjXOuZHXByjZlo3Fz333+/vPzyy7409+/fX5qbm+UXv/iFjBgxQvBiU1tbm0yaNElGjhzpb0M2derUpJHrVE+u8RLjTfe8ITlZKfLTScdL/4Jc/dXnzLUzM85c6xFazkLxhUY9f6651jPjshA9M85c65nV1NRIeXm5yQYFmETCJJ7FexqUa/21PKDkGks+0Bk/+OCD8sorr/gz0LfccosUFhbK73//e1m6dKlMnDjRn8WeOXOm/5LOxRdfnHxy7c1+93r/88hTC6W2ZbX88KJjpWpEsf7qU66dmVGu9Qgp13pmXBaiZ8ZlIXpmXBaiY2a9wxDlWs8fKxAqKyvfX9Krq2HHoy2f0H6s5fqFea29/fr122FNNWZtFi9e7I/o5syZI9dcc40/c71mzRrBkg2sEcN//uQnP5EhQ4bIBRdc4O9Xe/3118uUKVOSYlkIdgzBlnxvNq2RX//+Lbn8vKPlsycMdYkp/7d4xAjxsXjRBkmnrq7O7FPeCPrc3Fx/4ONaEPS4/nhBybXgKQj+0DbXgpdJMUNWVVXlWpX/e8StxS4OqAtyl52dbZLAcJ4oqM+1QAawFd+YMWNcqzJnhpjNy8vz39twLZiFQrxiKZlrWbFihb9bCGbIXAtyBu4n5FmLYhmzljkDTzLBv6SkxPk0sSQROQOx4VqwlAb3ZjLyb2pq8vtT9K+uxTJn4F0q1GfRz1nnWYgi7kuL3Ij7EvnCImcgZjEZadHPwQ2Qz6xiFgOSsWPHmuRZy34OLoXcn5WV5Rr+PnvkbIucgdyDe7O6ujpyu1KeeL62N7ExONH09LgXuFn+euubbrpJrr32Wj+QccGxVzSOwSz2E088IVdccYWfTJHwMcN97rnnysCBA/0XHaMWizXXeP8ynu7td722U2bfM1++eGq5fOtzo7y5bG9G+58vZ2rbh3YlbsUXtR78u6gLjHABIT0QYtf60FHiOkGKXetC0kGbEPSudSXOXLvWhZsRAz+Mwl3qCq69ldzheiLp4PFi1PcEgjYF8Y//Hfeby3niXl27dq10dHT4cQbRcynWSR/McI54YuZynmCW+IjXpS7EPSYY0FmiE3dhZpkzcN0CUYT0oG6Xgt9b5QwwS1wW4srMMmcgz1oObqxyBpgh/+NlRvzh3opaLHMG6oJc4BogzlzuJZyPZc5A2+rr6/1JPdfcaJkzUFfishAXZpY5A3XhXsTyo1GjRpm4QeLMtet5Js5cu9aFfI0/15gFM8R+a2urPyCJ2q6U3//p+d6cnA9mx9DJbd/e6zUwTzB7c8stv5Crr77qvV1BvH+0n7cMBEtGXnrpJbnooov8fxzHIbDwfz/jjDP8ROGaXFEf2uIiilh33bW1R/78YrsniiIXnDlMCnLTpbvnvZ1PtCUIelxAjE6jQk+UayyzKSsrM5FrBCrkzkJUMGsBMUN9rucJXogfi2SIuFi1apUMGzbMqV3BtQcztMtCVFAXZu5cYjaIDZwniuvgBtcQyRCD36FDhzrdl0FHidiwmJ1BfWCGAaHrzHUgF4h9XAOXmA1e3IZgDBo0yIlZMIhGsnbNGYFcY4BpGbMWOSMYkCD2DzroIGdmYI+JDNeckcwxC2aYKMDsJP5c5doqZ1j2c4kxa5Ez0LZFixbJwQcf7JwbLXNGIGS4hshnLvnHMmegLrQJcTZ48GATN7Ds5yw9wypngBmcBV6LPjNqSXnmlWZvWciuo1PMvjU0NMjNN98s1113nb/mGjfv3Xff7a+7xq4gmD1Ex42OAwkfa7CxHhsz2ft6t5BAUvC0+c/PL5Jn5y2XWd8/WcoHuT2atf6IDBhbPa5JnIWKGhDB75J5txA8frZcFoKRrqvcgZvlWjTLNdeWy0KQqDHbbLWUJll3C7FcFmKZM9BpI84gY64DwiBmg6ddrjnDcllIMu9zjZi1yhmWy0Isc4b1biGWOQNP1DG5YvHF5WR+oRHX02JZSLD8FLu+Bdsou9zrlv1cMq+5XrBggduykJ3XXAfQMQMxf/58X5jxhy33fnvXXTLnzjvlnHPO8R/LwO4x64rHDbh5sFtIsqy5Ds4jKyNNXp6/XH79YI1cM+WTcvIRbh84sFyLhtl9POKCKFp1lMEjdpebJ5hRxI1o8Ra15Vq0PbHm2kpUcA9gphn3jmuxXD9pKdeB3FnJteWaX3SUmBSweE/AUq6RM6w6SsSV9Zprq5xhKdeWa64tlyUE/K1yhqVcW+YMDAgxmWax5to6Z1ivubZ6twgDQtzrFjP0lu9pgH/wQqPF+1iW/ZzlmmsMCJE3LNZcox7sjue05vr5uS07vNAYSEHwmO/JJ5+Us846y2/wfffd5z+SQfDgRCCERx11lJx00knvy3Wy7HMdnEdGPCYti9fKbx6qkdOOL5eJ/3Go/yn0qMVyFgo3YiDXFjOnlm/+J/PMNdZ2ugR94rW3fPPfckRvOQvFrfj0dzu34tMz41Z8embcik/PjLuF6JhhcMndQnTMMFCCXI8bN073w4SjUz5MrnEMRjy4MMFoB2IZ/N+CNUXBh14wvZ9MH5EJzhE7hry9fpPMeaRWYmlxmfn9T0l25ntfmIxSKNd6atyKT8+Mcq1nxq349MwsB+SUaz1/yrWeGeVax4xyreOFo/e4XGNmGjOqwcuJkOydly8EL2Ekq1zjpcbenm554C+N8kbT2/KrH50mgw6Jvr0T5TpaoIKbxeMaSCdnrnXXgDPXOl44mjPXemaUaz0zyrWeGeVax4xyreO1V+Q6bJMg4Mkq1/5goHebPOe90PjXl5fLpC8fKv9y/NCwp7bLcZRrPTrOXOuZceZaz4wz13pmnLnWM7NcSka51vOnXOuYUa51vCjXIXn529ps65IlqzbI/X9pkyMqD5LvfevIkL/e9TDKtR4d5VrPjHKtZ0a51jOjXOuZUa51zPiFRh0vHB3szW7x4jjlWs9/jy8LCdukZJ+57vIWp/d4a8d/83Cjv1f3//z3aZFfaqRch42KD46jXOuZUa71zCjXemaUaz0zyrWOGeVax4tyreeFXyR+RCZaDTs6yx59oTFsA5NdriF3abEUefz5ZdK0aJ23Jd8JMmRgftjT2+E4yrUeG+Vaz4xyrWdGudYzo1zrmVGudcwo1zpelGs9L8p1SGbBl5OCnUhcv3YEucPue63LO+WhJ5rlG2dUyOdOHh6yNTseRrnWY6Nc65lRrvXMKNd6ZpRrPTPKtY4Z5VrHi3Kt50W5DslsT8i1t2eIdG5NkWl3vCqnHl0ml50Tbd015TrkRUw4jHKtZ0a51jOjXOuZUa71zCjXOmaUax0vyrWeF+U6JLM9IdfeliHel9syZdZd86QgP0OumXyi5Gbrv6RHuQ55ESnXelAJv6Bc6/FRrvXMKNd6ZpRrHTPKtY4X5VrPi3IdktkekWvvgzjZ2dny8FMLpK5lrfxowrFSUV4UskUfHEa5ViPzN2TnPtc6bpRrHS8cTbnWM6Nc65lRrnXMKNc6XpRrPS/KdUhme0Kue3u3S773Cfc3GtvlNw/Ol8vPO1pOP2FoyBZRrtWgOHPtgkwo13p8lGs9M8q1nhnlWseMcq3jRbnW86Jch2S2J+QaN3hBvzxZvnqjTPfWXZ/5qREy0fugDL4xoymcudbQeu9YzlzrmVGu9cwo13pmlGs9M8q1jhnlWseLcq3nRbkOyWxPyXV+Xq68u6lL7nikTrLiMfnxxOOlIC8jZKveO4xyrcJFudbj8n9BudaDo1zrmVGu9cwo1zpmlGsdL8q1nhflOiSzPSXXubk5Xgt65fFn2+TZuUtl9hWnyojBBSFbZS/XPT09UldXJ9XV1d4MunIKfTettuwo3333XUlLS5OsrCwVn90dnOwz1/gKlgX/9evX+7zi8bgzs2SVa2yLiTgrLCx0PkdUgLpyc3P9WHMtB4JcgxHkzpJ/Tk6OYNtT17Jw4ULvpfEMKS0tda3Kf9q1detWyc+P9j2CxAZA7hAbFl+7C/hb5YwD4fPn1jkDnz8fPny4/w6Va0E/h9jPzMx0rUo2b97sf1kxz1t+6lrgBmibRcyCP5iNHTtWYrGYa9PEsp/buHGj4DspFtfS8iMyqKupqUnGjRsXmVfKs6829/br109c9pIOPiJzww03yMUXX+wnV8zwRi0Qnc5NmyTNC3qIikvbUBcSda+XYLO9TiQjPVVeq2uXX/++xvuYzHFy8pGDZfv23lD/BupKnLl2bRfqQnKtrKz0g961PgQ9ghTJwrUuBD3aBFl0rStRrl3rgnS2tbVJVVWVU7uC2AQzJEPEsEtBbKADR5K2iNlEuXZhhvNau3atrF69WioqKrxY3+5ymv7vkfSRMywKmEHuINcu5wn+iR2lS11gtmzZMv+LXyNGjBB0dFGLZc5AG3BeYAbpdB0Q4vdWOQO5oqWlxZfrQYMGOcVZkLODl6BdriXqCj4lbRWzVjkDcdbQ0CDFxcUyYMAAZ2ZWOQPMMLBB3kacufBHzFrmDLSttrZWhg4d6g/KXdpmmTNQV6Jcu7bL0jOQv+rr62XMmDEmbpAo167nmSjXrnUlyrVrXbiWyGeY+IxaV8pTL9b3+qMGh5lTJIlNnozdeOONcuGFF0qJgVzj5NK8hJ1uINeADkCZXuJPT0uVFWs2yf1/aZGjxh4k55452vsUeqr/efS+Cs4TQY/6cGO7iEpQ14IFC2TUqFG+XLjWh0BF5wa5dq2rs7PTF07Iomtd4IUbHHHmUhc6cJzjkiVL/AGJi/QE1xodEtrlKir+PeDVFXz4yOU8URfiHwWDG5e6EFcdHR2+YCO5ugx6A7lDbECILQrqQoy5Di7BDHWhHtwDLsxwDQO5xgyZCzPLnJHI3ypmrXIGmGHmGgNLyLUrM6ucgfsaeQL3k1XM4j7Hfek6IAczTK4UFRX5co1BQNRimTNQF+Qa1xDMXO4l65yB+xuiOHjwYH9SxKUPsMwZqAuDEbBy7ecscwbqQlzhU96YKMD96XI9g4lUK8/AfYl71MIzrGIWMYa+BJN48IyovPyZa9fRaSAW06dPl4snTZLSkhKn5OrPXHsn589cG8zCIlEDkJ8QvdUXXdu2y72PN8imzdtkxvdOlpwszJqFS2sIVASE1aMfzFzgAromarQeM1q4sS0esaPTRT0Wj8vAH4kaAxKXEiwXsp65tpgFxHlh5hS8LB6xI/5RXB+Xgdm6dev8mWvIddRReHDdgplTq1nAYOba4nElYhbskfhdCpgtX77c7ywh167MkDNwPS2WOFjOXFvmDDBLXBbiyswqZwQzp4gNC/6oz2rmGswSl4W4MrPKGThH5GvEv0U/Z5kzgpnrYcOG+eLvyswqZ4AZeOFed+3nUBcGDRjEWcQs3CeYubZwA8t+DucI97FYfgq5Rt5wjdngyRkmPvGEPGpJeX5uSy/W9bgEKeAA+LRp02TK5MlS6jhzgZND0EOs415H6dK24HENAiy4GTMzYvK7vzTL828sl1t/8i8y6ODw0oebBwFhIRd7Ys211frVZJRrBDk6kNbWVv9xjUXB+lWr9ZOJj9hd22bZUeIcV61a5S8LcS3W6yex5hrJ0EKuIeoQa1e5BqMVK1b4nWV5ebkrsveXJVisn0RjrNdcW+UMDHrBvsSbXHEtlusnk3nNNdZ1YllI//79XZH5uRHFdUAeyDXqs+jnrHOG5ZrrZJbrZF5zHSw/dQ3aZJRrnJPJmmvItdWaa8j1ZMi1wbKQxEfsrnKd+LjmveUhafLCmyvk4ScXyKQvH6ba75q7hehvp2R/oRHxb/HkwPJFj2R9odH6zX++0Ki7nwJRsRoQWr4EnawvNFq+HBYMbqxyxoHwQqN1zoBcY9BrscwnWV9oDN4TsBiQgz/WqeMJucXMtWU/l6wvNMJZsJTG6YXGA1Guse56Wfu7csfDtXJ4xcHy/XOPCt3DUa5Do3r/QMq1nhnlWs/sQNgthHKtjwvKtZ4ZHrFj+aPFzDXlWs+fcq1nZvm0i3Idgn+wfiZ40QCdU/Du5s/ve8Nfa/3L/z7Ne3ky3G4RlOsQ0Hc6hHKtZ0a51jOjXOuZceZaz4z7XOuYUa51vHA05VrPjHIdgtme2uca64SCJSYZ6TFvx5AmqV+41tuS7wQZWRZu317KdYgLSLnWQ9rpF5RrPULKtZ4Z5VrPjHKtY0a51vGiXOt54ReU6xDc9oZcY2kI9rv+wxML5PwvVsnnTx4eomX8QmMoSJTrKJh2+A3lWo+Qcq1nRrnWM6Nc65hRrnW8KNd6XpTrkMz2hlzHvD35OtZvkel3vCqnHF0m3zvnyFCt48x1KEw7HMRlIXpmlGs9M8q1nhnlWs+Mcq1jRrnW8aJc63lRrkMy2xtynerJdXfPdvn5vW9IUUGmXD3pBMk8WS6JAAAgAElEQVTydhHpq1Cu+yK0639PudYzo1zrmVGu9cwo13pmlGsdM8q1jhflWs+Lch2S2d6Qa/+LfCm98sRLS+SNxtVyxXlHS+Xwoj5bSLnuE9EuB1Cu9cwo13pmlGs9M8q1nhnlWseMcq3jRbnW86Jch2S2d+Ra/B1C5jd3yK9+/5a/Hd+/nTiszxZSrvtERLn2PjHrWijXeoKUaz0zyrWeGeVax4xyreNFudbzolyHZLY35BpNiXs7hqzq2CTTbn9VzvBeaJz0lcPe36bvw5pKuQ55ERMO48y1nhnlWs+Mcq1nRrnWM6Nc65hRrnW8KNd6XpTrkMz2llzHYimyaXO3zPljraSnp8pVF58gBXkZH9lKynXIi0i51oNK+AXlWo+Pcq1nRrnWM6Nc65hRrnW8KNd6XpTrkMz2llzj30n1vh3z+HNt8o9Xl8pNV5wqI8oKKNceAXwWFp9KzcrKCnnVPvwwzlzrEVKu9cwo13pmlGs9M8q1jhnlWseLcq3nRbkOyWxvyTWagx1CXqtbJb/+3Xz58cXHyanetnwfVThzHfIicuZaD4oz107MKNd6fJRrPTPKtY4Z5VrHi3Kt50W5Dslsb8p13FsOsmTFu/Kbh2vkxMNKZfLXPiHYA/vDCuU65EWkXOtBUa6dmFGu9fgo13pmlGsdM8q1jhflWs+Lch2S2d6Ua4j0lq098ttH66TTW3994xWnSE5WOuWay0JCRusHh61fv95fRhPnbiGh2UHucnNz/SVIroVyrSdIudYzo1zrmFGudbwo13peSSnXz722oLdfv37S29sb7Yy8X6V6C5c3btwo06dPl0mTJklpaalghjdq2ZtyjTnqzMw0efBvzfLs3OVy608+I4MH5nk8dt/6A2XmGtczFotxzbUiiJNRrnEvrV27Vtrb26WystLpPgcK644yGeUazJYtWyZdXV0yfPhwZ2bIGVhDX1Dw0e9zhAk15GkwQ13+Xv2OxUqu0ZbW1lbJyMiQQYMGOTPDexpbt26V/Px8xzMU6enp8d8hseCPxljJNZg1NDRIcXGxDBgwwJmZ5XsaYL9582aBG7gW65xRU1Mj5eXlkpOT49o0Py7S09M9B8h0rgu8uru7JS8vz7ku1IM+2CJmwb+2ttbP/xaTGJb9HM4R/pidne3MDPkafxY5A/mnublZxo0bF7ldKU+9WN/rGqSAgxt79uzZcuH48VJaUuIs1wjUmDebFfcC30X8kcAAHHXgBtpdXRnxmLzR0CGPPbdIzjuzQj59TKn/9cadBRvniY4S9WG2DUEbtQR14QKOHj3aD3rX+pAocI5IFq51dXZ2+kGP+lzrAi8kC8SZS12QfdyMixcvlrFjx/qdpmtB3OLGdhWVYICJWWv8uZwn6kL8o2Am3KUuxFVHR4f/V1FR4XRfoj24fxAbrjkjuG7gj3PEtXW5z4MchPOF4Lkww/2TKNcuEwXBfY5kjU7XpV2J/C1jFrxccwZ+nyjXrsyscgbua+QJ3E/WMYtr61LADHINscYfcmTUYpkzUBfkGn+u/Zx1zkCeqKurk7KyMv9+cukDLHMG6sI9jva49nOWOQN1Ia6amppk5MiRJn0T+mCLnIG2WXqGVcwixtCutrY2f0ASNWenPPNKUy+CNPq89Xsz15s84DNmzJCJEydKicHMNU4u3eso0z1Rcel0A7kGIHTiu6sLH5NZ83anzHmkQSrLC+U/zz3CA7r7NIdARaK2Gp02Njb6F9A1UaO1eCyOTtdidArpQZBZjOgTO8qonUfwuyDoIdcWBaNwXEsL/omDG9e24TxRXEf0iP9169bJ6tWrZcyYMU73EtqD+wjnaTGjFcQsOiPEmmtB0oewIPG7FDBbvny5P4jGDJlL/kE7kDNwPS1mVNAW3Oeoy3VAaJkz0BZ0RhhY4smlKzOwh6BD7lwLhAf5zII/2mKVM8AM0gOxLioqcmZmlTNwjmAfDAhd+VvnDMj10KFDTQZLiItgQO56noly7VqXZc4A//r6ej//W7iBdT+H+8BiV7JEuXblj2vZ0tIiVVVVkatKeWFeq9mykKlTp8qUKVP2q2UhIOc/XfVGFzfd+7o/yPjVjz7zoS81WgY9kj6CHhfQoqNE0oeoWNxAEBXUYyXXVh0lOpCFCxc6BX3i3YLH4hBFC/6QHiQJCJ5rsewo8Rgby0KQXF0LpAlxZvG4MhAVCJSFXCPpQ+5c5RrtWrFihS8XkGvXgpyBTtxqQBIsC3FtV8DfKmdArsG+xHty6Vog1+gsLSYxrOXOMmdArrEspH///q7I/AEciuuAPJBrTCJZDEiscwaWOOC+tDhPqwE5mCFf4F63GhCibRY5A/yDZSEWedayn0NexMSWlVwjb1jkDNSDVQXV1dWR78uU5+e2mMn1tGnTZPLkyfudXINehve1xgf+2iR1LWvlp1OOl1FDdp/sDpQ119znWn9PWa5Fs1w/iZlryDWWhbgW6/WTybjmGowwc43OEmuuXcuBsOYajDDohVxj5tq1HAhrrsEITy4h15i5di2WOYNrrvVXg2uu9cw+1muuKdfvBUR6WqrMrW+XPzyxQL515lj5wikjdhsplGv9DcSPyOiZWXaUlGs9f8q1nhnlWs+Mcq1nxhcadcz4QqOOF442eaGRcv0eeGzJt27DFpl+x2ty0hGD5fvnHkm55hcaVXclZ65VuPyDOXOtY5asu4XgLCjXumuJoynXemaUax0zyrWOF+U6JC+spcUoBAGGNVof9qJNqifXPd4OIT+/9w3JzY57S0NOkPyc+C7/CmeuQ4JPOIwz13pmnLnWM+M+13pmVlvxUa717CnX0ZhRrnXcKNc6XpTrkLzCyjWOS/FeZ/zTMwvlraY18sOLjpWqEQMo194Leq6Fcq0nSLnWM6Nc65lRrvXMrPa5plzr2eMXlGsdN8q1jhflOiSv8HItgi355i/okF/97i35/reOkn/75DDKNeU6ZKS9t0UXv9AYGpd/IJeF6HhxWYiOF45O1o/IUK7115JyrWdGudYz45rrEMzCyjWqins7hqxau0mm3f6qnOm90DjxPw6lXFOuQ0TZe4dQrkOjev9AyrWOGeVax4tyreeFX3C3ED037haiZ8bdQvpgFnydbn/eig+niJcaN3f1eFvyNfprs6+88FgpzN/xs6hcc62/gbgsRM+My0L0zLgsRM+My0L0zLgsRMfMevtOLgvR8+fnz3XMOHMdgpdm5hrH4ou2f3lhkTz58hKZffkp3n7XhTv8K5TrENB3OoRyrWdGudYzo1zrmVGu9cwo1zpmlGsdLxyNj9FgVtfiY11cFqLnT7kOwUwj16guKyNN5nn7Xf/ygbfkvyccJ6cdW0a5DsH5ow6hXOsBUq71zCjXemaUaz0zyrWOGeVax4tyreeFX+Criviz+Koo5TrENdDKdTw9VZas2ii3PVQjxx06UC75+uE7fAqdM9choHPmWg9pp19QrvUIKdd6ZpRrPTPKtY4Z5VrHi3Kt50W5DskMQgy5SE9Pl3g8/qF7U4epTivXWHe9ZWuP/PbROunc3C03XnGK5GSlv/9PUa7DUN/xGM5c65lRrvXMKNd6ZpRrPTPKtY4Z5VrHi3Kt50W5DslsX8p1itfGTG9pyINPNMszry2TX/3oMzKkJJ9yHfLa7e4wyrUeHuVaz4xyrWdGudYzo1zrmFGudbwo13pelOuQzPalXKOJmfE0eWn+CnnoiQUy4UvjvP2uyynXIa8d5TrLf9riWijXeoKUaz0zyrWeGeVax4xyreNFudbzolyHZLav5TotLVVWrtkkt/2hRg4dWSxXXHA05TrktaNcU641ocJ9rjW0xF8iB2bYRQB50rVQrvUEKdc6ZpRrHS/KtZ4X5Toks30t1+iz8Pfze9+U7p7t/tKQdE+4UbjmOuRFTDiMy0L0zDhzrWfGmWs9M8q1nhnlWseMcq3jRbnW80pKuX76pYbenJycaGfzz1/hIzKQgVmzZsn4iy6S0pISX0KjFsg1vnYUS0vzvpqY7vxCI7ZnwYxPZmZm6Lri8Zg8+nSbNC56R6684Ahvv+sC2da93d9/ErKYm5sbuq7dccA5oq7m5mYZPXq0xGIx5/qwLybOMc3jhvONWoLrif/UMPuw8wR/nCuYIdFGLUG7Fi9eLJWVlU51BW0AM8S/6yxgMCDEkhC8iOvKv7Oz028iPqfuUhfiau3atdLR0SEVFRVO9yXag7bgXse1tCioC+doEf9ghnoyMjKcmOH6LV261N/WacSIEU7MgvvcImck8reKWaucAWYtLS0++8GDBzszwxcCkTOys7OdriX44/PniA2rmAUztAv5yKWAWX19vQwYMMD/QzujlqDPxO/RNpc8i7rQf+MaIM5c8o91zgBzMCsrKzPpT3At0V+65oxg4wRcQ9d+zjJnBPHf1NQkI0eOdO6bUB+YgZdFP4f8b+UZiFf8uboZ2gP/XLhwoe8ZUeM/5R8vN/b6jYl6V/9/9s4DPq/iSvtH0qsuWV2ymrtxkW3ANtjYQAiE3ltClpKEGgLZJLvZ7H6kfclmN5S0zaZsvk1PgEBCh9BsbHpLDO5Nttyxeu/l/c4z8pjXsmTd887YCOuMfwoE3zua+9xzz/zvuWfO8HkGeljw73//+3TLLbdQUXGxs3PFxYV4ooz3UC0kGrgOxcXS+q119PALW+jKj02hS8+YzM4vbK4LE2V6enrUokNq+wBt2LDBQI8PuEDkDqDiavQWFDEmn3Dt6qjtuLZt20ZlZWVO+ltzb25uNg+jD7hGX3A6PircWLh2hQs8m4Dr6upqmj59utOkaydKOFfYv48GzXCNsDWXZp0+bN91ooRmu3fvNnA9adIkJ80sqMCfof5qtI7aaoPzob9Pm8Uz7uozoFlFRYWx/WL2/65wB+3ha10nSuiGsWAS92mz8GWucI3zAT0A65ycHGfNfPkM2CwgBffAdZ7z7TMwtrVr19KECROcwd/OJ77h2sc8hxdL3E9Xn2Hhev369SaI5/qcoz/4bB8+A33hGvFP1yCStVkfcG1flLZs2eLEGTGv/n1LOCMjw8np2+3P77zzTrr99tuNc3WNXH9QpfjsJIaSfLWNHXTXr9+ij8wrpS9/er75q0ijd4EBnIu3XLyFz5o1yxnu0F9jY6NxOHAWrs2+0eMhcm2RE6VrX3gY8UYJzXw0fBaH/bvCNcYS+XLjOrbIidK1L3zGrqysNHDt2gB3sDMfO4dZmwVAucI1+oLTB9wBrl3bnj17zEs04Nq1wWfAn8HOfDSbc+2jL58+A3AN7Yv4y6Vrg8/AROkDiAHXsA2f+vvyGYDrvLw8ys7OdpXMgAoaXlZdG+Zv+0Lo2pdvn4GtvPFc+rhOzHP2hdz1OuEv7Bda177ABhibD5uF/nb7cx9+1uc8ZyPXgGvXFvlC6NoX/A+yCmbPnh11VzGv/K3cG1zfdddddNtttx0VcB3LcN3L+dY/vvcdSktJoG/fvojGpCZqznUUpqY513LRNOdarpnmXMs105xruWaacy3TTHOuZXrhaN3+XK6Z7tAYQLMPekEjhtgfyQzTky9V0LsbquhrNy+kWVNyFa4D3L+Bhyhcy0VTuJZrpnAt10zhWq6ZwrVMM4VrmV4K13K9cIbCdQDdRgJcY5goybe2vIZ+9sBK+qfr5tMFp05SuA5w/xSutc51UDPRUnxBleo/TkvxyfTC0fjEjrQQX6lMCteye6BwLdNL4Vqul8J1QM1GClzHx8dSVW0b512/Tecsnki3/8Px1Mf5ky2e8ifx6cfmXLsujoG0PqNQmIyQu+0jF0oj1wENP+IwjVzLNdPItVwznz4DayGQc401N64NPgM5lFjQ5doUruUKQnvkXPvI+VW4luuvaSFyzTRyHUCzkQLXcXG8mrW9h377+DriFGz61ucWU9aYEC/o8rPQQOE6gDEMOATQiUncZaFBZJc+o1BYHIaXEd2hMfh91ch1cK00ci3Tyh6tcC3XTeFarhleRjCn+1iEq3At11/hOoBmIwWuMQ6UMn3mlW205I3t9KN/Pd3Uu25sbPLyRq9wHcAYFK7lIg04o66uzlQLQclH1+Y7CqVwLbsjmhYi0wtHK1zLNVO4lmumcC3XDBVR8NXeR+UXhesA+o8UuMZQkxND9Pd1lSbv+lu3LabT5hcxXPsp66RwHcAYFK7lIilcO2uGOtdITZg8ebJzXyhrhi8uPnJ+Fa7lt0PhWq6ZwrVcM4VruWYK18NoZutcH02l+OwlY9vzvTWt9Psn1tG8mWPphktnUncXNpFxzwVUuJY/jJoWItdMI9dyzRSu5ZppzrVcM2wihjrX2ETGtflcp6FwLb8bCtdyzRSuRzFco951d3cf/fGpddTQ3El3f+lkSgz18WYt7jvUKVzLH0aFa7lmCtdyzRSu5ZopXMs1U7iWa7Z69WqziQw2THNtWLiPTWR8bJamcC2/GwrXoxiucelIDXlo6WZa/tYu+tFXTqXS/ERKUbgO/CRptZDAUu0/0GcUSuFarr/CtVwzhWu5ZgrXcs0UrmWaYZ2M3aHRx+7NPhfuj2q4Rv4z8vwimy0bh5uGdjSnheD6khJC9Mbq9+jhJZvpugum0VkLiyk1TSPXQR9xheugSr1/nMK1XDMtxSfXTEvxyTXzWWFI4Vquv8K1TDOFa5leOBrMgu3P58yZIz953xmH3P4c+9ADrC1EA7Tx5oN8LDR8TsFiEfx3vIEcjTnXuM5QXH/e9a8eWUPHjEunf7rmWErTnOvARqdwHViq/QcqXMs1U7iWa6ZwLddM4Vqmme8KQwrXcv01ci3T7LDCNUqjvPfee7R8+XI6++yzTakURKjXrl1LL7/8shnpRz7yEZo5c6aBb+QuHa1wjZ3Q8QLxk/vfpda2DvrBP59MuTmZsrs1yNGacy2XUHOu5ZppWohcM00LkWumaSFyzTRyLddM4VqmmUauZXodtsg1IBI/27dvp1/84he0a9cu+tnPfkZZWVlUXl5OP/jBDwxU44a99tpr9MUvftEsLkAezp133km33Xab2aEL5aeibSOpFJ+9hoT4OHpoySZasb6SvnrDfDp+pvsuZArXcgtRuJZrpnAt10zhWq6ZwrVcM4VruWYK1zLNFK5leh02uMbucjt37qSHHnqIampqTPT6e9/7nikV9Ktf/cr8/69//esGwL/1rW/R+PHj6dprrzVbbx/NcI2SfO9sqKIHntlIV58/na48a7r8jg04Q+FaLqHCtVwzhWu5ZgrXcs0UruWaKVzLNVO4lmmmcC3TyytcY3MDu2gRqR8A5ba2NrPxwX/913/Rd77zHcrNzTVpHwUFBXTdddcZuP7d735HVVVV9OUvf9mkhXz3u981keuSkhLnyDVyuJHTnZiYeNCCSolUGCfyZ2BgSG0ZuDgzaF9xXJKvnkvx3fmrN2nRsUX0bzcsCHrqkMchXx1pNtjKG+N0bfh6gPJEPlYEQ3/046NEEXZOwpeMtLQ010s0dolJfNasWc59oQPYekZGhhf9kfOL7c9ht64N14nmY+cq5Ihih8bp091fCPH8wM58bIiC60NfsAus73Bt8EEIDsBnuLY9e/YYv4Gvcq4NL9HwpbAzHw0261N/Xz6joqLCaF9UVOR8mfAZWNvjYytpm7boU39fPmPjxo2mznV2drazZj59Bvw1SsuNGeO+n4NvnwG4xuZOPnxjJGe43gD4CzzrPuY5sAHG5sNmoT80Kysr8+Jnfc5z8ItgTsybrg3+An7Dh89AP3g2nRY0Prnk7+G0tPfrRQKoAAdwuOj8xz/+Mf3Hf/yHiVzffffdVFpaSpdeeqnR4bHHHqNt27bRl770JapkyP7l//4vXXXVVZSfn2+MLNoG0MSDjQkXk2W0QIzfj74gFPoAKEbbVyz308t9/O7JckpPSaB/vnoWpabE8YLOAyupBL1mjAsabdmyhaZMmWKuNdqx2euMNHqXvmz1F2v0Ln3ZlxtcK4zeLo4NqlPkcRgPHkakKk2bNs2pL9svNIMztBVwohmX1R9wB7hwtVl7nRauXfSHXSFyjZ+pU6c6PZcYD+4fnL6PSRf9QTNMkvA7LtdpF1XbF0KXvtAH4BrOesKECU6aYVyRoOIyLuiF86EZniXXF3Kc78tnQDPMBbB9wLWr/498IXfRzPpZ+A1fNuvLZ0CzzZs3G7DGD4Aq2obrtHCNudvFz6KvSFBx0d+3z4BvBJcggOd6negLz5IPn2GZBffQdZ7z6TPQF8aElF4ECsB2LvfT+gywlI95zpbiA1y7jivyhdy1L7woITUanBFtXzGPPvNGOLIYOyZj3Aw4IqSH/OQnP6F///d/N3D9wx/+0LxlX3755caxP/jggyby99nPfpbwGfWPf/yjAW9EuV0dBeDagn60F+cTrvsXNRKX5KujdzfV0g0XTaZZU7J4EukvRyht1uljQpo4caIXuIajgJH6ABU4ajgflxeSSP0x2cLOXO8l7ALgg8iFS1/2fkEzwLUPUIGjAFz7cGC4TjRXp2O/RCF6DTtzmXTtRAlQ8REdQH/QzC6Wlj5DkcfbdRqwfdevXdAMX+QAGJjEXTSzzznuJzRztVmcD8182awvnwHNMAfA9hFccdUME6UPn2FtFv7MR0TRvhDCl7m+kON8+H98hcCPq2a+fIaFO9wDaObLZn34DIwNASm8wLn6Rp8+w9cXcjtnwvZ9+AyMC3aFr70IFPhgA5/zHJ5LjNHHvYS/RiDDB2fA9sG/4IxoW8xrK7aG8elh4AOEm4DyLUgLQS41oPqBBx6gVatWGdhGu+OOO2j+/PkGtvE2jwj35z//eS9pIZjA4ahd3458Gn18KIZWb66hn/5pJX35UyfQeadMiFZ3cx6Mft26dd5SHHAPYFg+PrFDfwsqThfJJ0cavWtfcDhwFPjE5aMhLcHHpzc76dqXG9exRU6Urn3hBRhpIXgL99F8auYrCmhBHf4CP64Na0sQvcALiWtDoMFn5NS3/r58BkARLzaFhYWukhmfgR8fQGyj/b4i1z71Ry1dzK0oGODafPqMSLhzHRfO96kZUikRhfWRShDJGa7XGflC6NqX7y+EthSf6wuh73kuMojnqhnA2r4QuvYF34Nn0yX9dMg61wBbGDHSQv7zP//TOABMOKgWgn/HzcfEiGoh+P+YwI/WUnz2RiXEx1JlTRt9l/Ouzz1lEt1+1VyOXkR/G3VBo1w7XdAo10wXNMo10wWNcs10QaNcM13QKNdMFzTKNNMFjTK9cPRhrXONNxx8SgZgIzqNiAQionv37qUVK1aYUP68efP2fwI8mjeRsbcGm8k0t3bQrx5aSYmcc/TNWxdRTkaS/M7tO0PhWi6dwrVcM4VruWYK13LNFK7lmilcyzVTuJZppnAt0+uwwzV+AQAakB2ZPx2Zs2PzCY/27c/trYnliiF9/In38WWb6NWV1fSDr5xG0ydEv8pb4Vpu9ArXcs0UruWaKVzLNVO4lmumcC3XTOFappnCtUyvIwLXFrAH5mPbxV+R5ftGQ+Qa1x2KDdPr7+6k3z9VzuX4TqSzF02Q3zmNXEetmcK1XDqFa7lmCtdyzRSu5ZopXMs1U7iWaaZwLdPriMF1kGGNlsg14JoL21D59lp64LkKmj+zgL5wzTxOl4muRrVGroNY14HHKFzLNVO4lmumcC3XTOFarpnCtVwzhWuZZgrXMr0UrgPq5bNaiClr09tDTS2t9PCyndTQ1EE//rfTKY3rXkfTFK7lqilcyzVTuJZrpnAt10zhWq6ZwrVcM4VrmWYK1zK9FK4D6uUbrlHuJTaml5594z1a+sZ2+n/fPIvGF0a3i5XCdcCbGHGYwrVcM4VruWYK13LNFK7lmilcyzVTuJZppnAt00vhOqBehwOuKdxDm3e108NLNtGnLy6jcxZHVwtX4TrgTVS4lgsVcYbCtVw+hWu5ZgrXcs0UruWaKVzLNFO4lumlcB1Qr8MB1z3dXdTRE6JfPbKKjhmfTXfcuCDgaA48TOFaLptGruWaKVzLNVO4lmumcC3XTOFarpnCtUwzhWuZXgrXAfU6HHDdxVtjjhmTTj++dwV1dvXSz79xJiXGxwUc0fuHKVyLJTM73WESnz17tvzkQc5ALXfs0Ohj5yrsQoZdw3zsEIjrRMPuea5N4VquoMK1XDOFa7lmCtdyzRSuZZopXMv0UrgOqNfhgGtssZmTlUF/fn4TrdxYzZvJnEQzJ+UEHJHCtVioiBMUruXqKVzLNVO4lmumcC3XTOFarpnCtUwzhWuZXgrXAfU6XHCdlTGGVmyopD8/u4muvmAGXf6xYwKOSOFaLJTCtYtkpHAtl0/hWq6ZwrVcM4VruWYK1zLNFK5leilcB9TrcMF1BqeF1HMpvrt+/TaddGyR2VBG2jQtRKoYaVqIXDKF6yg0U7iWi6ZwLddM4VqumcK1TDOFa5leCtcB9TpccI2c6x7eCv0n9680+dbfuX0xZaQnBhxV/2EK1yK5zMGaFiLXTCPXcs0UruWaKVzLNVO4lmumcC3TTOFappfCdUC9Dhdcp6en8wjC9NRLW+nv6yrpqzctpDnH5AUclcK1SKiIgxWu5copXMs1U7iWa6ZwLddM4VqumcK1TDOFa5leCtcB9Tp8cJ3G257H0totNfTT+96lL107jy48bXLAUfUf1suR77Vr15rKFxina2toaDDVJeLj4127oubmZgqFQqb6hWvr6OggbL7T/0Li1g4HXGdmZnrRfzRUCwmHwwQ7y8rKcruR+85GX2lpacbWXFtTU5Op1JKUlOTaFY1UuMaFocKNT/19+YyRCteAC9gGnnMfDfr78hmjAa59+wzA9eTJkyklJcX5dmKew3zpw2e0t7ebr9E+5jmwAcbmw2ahPzQrKytjZpFXNRsoss95rqWlxVTq8nEvUWgCP2PGRLepX+R1op+NGzfSnDlzoraxmBff3Bh2NQaIA5G+973v0Wc/+1kqLi42MBVtA2i2tbWZCRNAiyEAACAASURBVBeTJYwj2mbhGn0AFF37wnV1dXUZiA3FxVB1fTt9//cr6OxFE+iWK2ZRXGwM9fYNP16MC33hBs6YMcMYvevYMIHgGuEsXPvC/cSYfGgGuIbTAUS5jMva2bZt22jWrFmESdO1QTOMy7UUH+4nnGFiYqIXm4X9o8HpuGpWW1tL1dXVxs7gtF0aNIdt+HBgGAc0wzXiWXe5TuiPcaEfTJQufcHud+3aRbDbqVOnGtuNttnnHBMvNHMZF8aA86EZfLbrCznO9+UzoHt5ebmx/5KSEic7w7gwucE/uvoM9IX7h5dyXzbry2fAztavX0+5ubnmx8Wf2TnTh89AX5jjcA9gZ64269NnwE+vWbOGxo8fb8bmqpkvnwHN8IzDv/qwWdi+D5+BcWFMsLNp06Z5YQPYP3ysDzbDc4l76oMzYK+wW1ebxXgw/27ZssVwRrT2H/PCa+vCKY61dM1gWKQf/vCHdONNN1FRUZEzXHewocaxw/YBihA8zFCQ6DjpWkfdzf0lMxAwR1Nndy89+kKFqXf9z9cdSwXZKdTdMzz02b42bdpkjN4HXMNRwOh9gAqMC/fVFVTsRIkH3Aco4mHcvn07zZw508mxWlhCfxiXD1BBX3A4PmwWjhXN1enArgDXNTU1NH36dCdQtHAH2/BRfxv9QTNco4+XG4wL1wvAi9YhYkx4fgDXcNaIkLnCNc4HqLtOupH6+7RZ6OXqM3A+Itewf8C1q2bw2ejD1WdAMwAYnqeRZrPQDJHrnJwcA9cuL74W7nz4DPtCaINILs+Sb58BP7Fu3ToaN26ceZ5c4dqXz/D9hdyXz7BwjSAeAgU+5ibf8xzG6IMzYK94KcFz7mKzsDH4i4qKChOQiravmFf+Vh7GJhrRdoCHx0YU77rrLrrtttu8RK5xA2EIPt6OMLHhIXR11NbpYNLFg82i8WQeQ8+9vp2eeWUb/eArH6UZE7MDB7l0QWNgqfYfeDjSQnQTmeD3Ac8RPgv6TEvQtJDg+ttP7L7SEnymko3UtBCfn9hxp3xuPDUa0kJ8+wzNuQ7uL+zLJaL9CEj5SL8bDWkhYEYEPp3SQhSugxvqQLg2qSaJIXpnQxX97E8rTTm+sxdPCNyhwnVgqRSu5VLtP0MXNMrFG6k51wrX8nupcC3XDFFARO8QeHBtCtdyBcEG+BLtI+daFzTK9Ve4DqCZ7881+OxgI9eY6BLiY2lXZSv98qFVNL+sgL54zXwTzQ7SFK6DqHTgMRq5lmumcC3XTOFarplGruWaaeRarplGrmWaKVzL9MLRCtcBNDvccI0FjJ3dffSHJ9dSfWMn/ff/OZ3SUhICjEzrXAcSacBBCtdy1RSu5ZopXMs1U7iWa6ZwLddM4VqmmcK1TC+F64B6HW64Row6KSlEjywtp6Vv7KCffe0MmlQSrOSTRq4D3sSIwxSu5ZopXMs1U7iWa6ZwLddM4VqumcK1TDOFa5leCtcB9TrccI1hJCWE6M01e+kvz22i6y8po4s+OiXQ6BSuA8l0wEEK13LNFK7lmilcyzVTuJZrpnAt10zhWqaZwrVML4XrgHodCbgO8WYylbVt9MuHV3G1kBz66s0LA41O4TqQTArXcpkOOEPhWi6gwrVcM4VruWYK13LNFK5lmilcy/RSuA6o15GAa2yuGMu51/993zvU0dlLv/jmWZQQih12hArXw0p00AEauZZrpnAt10zhWq6ZwrVcM4VruWYK1zLNFK5leilcB9TrSMA1hpIQH0ePL99KqzZW0ddvOYmOmTD89tAK1wFvYsRhCtdyzRSu5ZopXMs1U7iWa6ZwLddM4VqmmcK1TC+F64B6HSm4RmrI+oo6euDpDXTl2dPoijOPGXaECtfDSqSRa8fdUyGgwrXczhSu5ZopXMs1U7iWa6ZwLdNM4Vqml8J1QL2OFFyjJF9Dcyfd+eu36KQ5RfR/blww7AgVroeVSOFa4TqwkTQ1NZkdXbGVrmtTuJYrqHAt10zhWq6ZwrVMM4VrmV4K1wH1OlJwjZzrXt4a+qf3rzQby3z79pMpKz3xkKNUuA54EyMO07QQuWYauZZrpnAt10zhWq6ZwrVcM4VrmWYK1zK9FK4D6nWk4Bq/JyYmTE+/vI3eXruX7uDI9bHT8hWuWQHsdoSdLdPT0wPetaEPU7iWS6hwLddM4VqumcK1XDOFa7lmCtcyzRSuZXopXAfU60jBNYYT4gohG7bWmaohX7hmLl08TL1rjVwHvIkauZYLFXGGwrVcPoVruWYK13LNFK7lmilcyzRTuJbppXAdUK8jCdfxDNfV9e10z6/fpo8uGEdfuHquKdE3VFO4DngTFa7lQilcO2mmcC2XT+FarpnCtVwzhWuZZgrXMr0UrgPqdSThOi4uhto7euj3T6ynnp5e+tZtiyk3M1nhWtNCAlrr+4ch/QUtVRc0BtZOFzQGlmr/gQ0NDcbG4uPj5ScPOEPhWi6hwrVcM4VrmWYK1zK9vMJ1ZmYm4QZE22JjY6mlpYXuuusuuu2226i4uNjk2EbbAMSACzh8rP4Ph8PRdsV50DEm5xfXl5KS4twXrquzs5PS0tIO6iuWf1csA/Zzr23n3Out9MOvnE4zJmUPOfbe3l5au3YtzZ4924zTtWGixLhCoZBrV9Tc3Gz091F5AXp1dXV5yblua2ujLVu2GM18tPr6eoL9+9C/sbHR2JgPUPEJ17jGvXv30owZM5wlw7MIO8vKGr6Oe5Bfhr6Qix8XFxfk8EMeA7hOTEw0P67NZ+QaX6jgH2FnPhrup0/9ffmMkQrX8P2wDZ/6+/IZgOv8/HzKzh56nghqMz59BuY5+NqMjIygv37I43z7DMD15MmTja91bZjnwBg+fIbPtUVgA4zNh81Cf2hWVlbmxc/6nOfgF8GPPu4lGAP3YMyYMa5mYRhv48aNNGfOnKj7innprU1hDMYFYC1c33PPPXTrrbd6gWs82IBEX3CN60tOTna6TgAYnA5uIqI9g2mWnBiidzdW088fXMWLGk+kMxeOpz7+3QOPtX3Buc6cOdMYvcs9QH+RRu/aF4weY/KhWaTTcR0XJpCKigqaNWuWk172iYFmgDvYsEuD/pjA8TLiw2YjJ0oXzXBdtbW1VFVVZewMTtulAVTg9H1MuhgHNMOzhGfd5Tqhf+QLoUtfsPudO3caBztlyhQnzexzbkHFZVzQC+dDM/hs1xdCnz4DmpWXlxtIKS0tddbMp8+wLze+bNaXz4Bm69ato7y8PMrNzXUKcNmAFGxkqLkp6HOPviJBxdVmffoMjG3NmjU0YcKEQQNcQa8Rx/n0Geirvb2dv1j3mPnERTOfPgN9wefDzqZPn24CP65jg/2DC3zMc5Fw7Tou+Gv8uPKsvZfwZwjiRTuumBdeWxc2bw0OkVNM4K0MYz/60Y/oxhtvpCIPkWsYaoidT7yHyDUEh0AAn2iFMg8tDJXhGoCdPEQUPJ43k6nivOsHni2nGRMz6ebLytigYeAHRt9xA/Egbt68mY455hgvcA0gw+TmCiq4n4AB/BP9uWhmHTUecNiZ6xcSXOOOHTtMFNalL+uE0R/G5QNUoBmcl6sDg+6wfzRXm8UEDrjGD5yryxclC3e4Th/pKugPfeEafbxcQjP04+r0cf927dplHDUiZC6a2eccfblCT6T+vmzWl8+AZohcQ/uSkhJnzQB38Bk+Xu7RD2zDl81CM4zL9YUcmiG4kpOTY35cXnztF1rYCMbm4hst3MHuXb/2+vYZ0Hz9+vXmBQ5fXFyu085zPnwGNMMzbr+Qu4zLp8+wcL1p0yYTKHCdm+xLnC/OwHOJPn1wBuzVh83a+RdBPHBGtPwT8/Lbm/sj15JXvgHHWri+++676XOf+5wXuG7blxbiBa73pYUMBcRBL90Y/b60kNRB0kLQD2eFUDeD9H1PbaCqujb6r3/9KI1JSxj0VwCu4SjwucbVUeMX+PxcgyggIB2O2rUhCoVrhTN0bZGRa9e+cD7SEmD/PvSPjFy7js3nJ15UC0HkGnDt2nx/YofN2si169h8pjL5TAvx/YkdmiEK6/pC6NtnYDICXCMt0LX5/sSOCJmvyLVPn4FPz4haA65dm0+f4fMTu2+fgcj1xIkTvbwswS4wz/lIfwQo4gXJxzyH+RL304fNQn+knwIUfaSM+p7n4Md8pIX4TD+F/0Hg0yX9NOaVv5WHcQOjpXM4BM25PtAtpiTF06MvbKbnXt9BP/3qGTSldPBcS1stxGfOta/FSb7hWutcy6ZOnxOlluKTaY+jfcM17qeP/EmMzXfOtS+fMVJzrn3mr1r9feZcIy1kJMI1YNEX3OGF0Nc6AV3QKPNnhyPn2qaFyEZy8NE+c64j00JcxwW4RrTfKeda4Tr4bbCfy4Za0Gh7SkoImY1kHnx2I3364ll0yelTBv0lWoovuPb2SN1ERq6ZwrVcs5EK13ZxmC+402ohctvAyw2g08fXLq0WItdf4VqmmVYLkemFoxWuA2hmc9GORLUQO5w45F1zSsgvH1pF0yZk09dvOUnhWndoDGCt7x+ikWuRXOZgLcUn10zhWq6ZwrVMM8y9GrmWaeazwpDCtUx7heuAen0QcI21odg85qd/epda23rof75xJiUlHFxqTCPXAW9ixGEauZZrppFruWYauZZrNprSQjRyHdw+FK6Da2WPVLiWa6ZpIQE0sytSP2x1riMvLSE+jh5ZupneWV9FX7tlIc2emnfQlStcBzCGAYcoXMs1U7iWa6ZwLddM4VqumaaFyDXTtBCZZhq5lunlLXL96oqt/dVCdBOZYe9A0JxrdBTi1JBVm6rpT89soH84bwZdedY0hWuu/+naFK7lCipcyzVTuJZrpnAt10zhWq6ZwrVMM4VrmV7e4PqlV9aGs4sKTQ3nPi7/wmVDxCPRaiEHSxbHaSGNrV105y/fpAWzi+iOmxYoXCtcB362NOc6sFT7D9Sca7lmmnMt10xzrmWaaVqITC8crWkhcs1GXFrIn277ejjvxBMoa85sSsAWrBzB7hNuXa5wfbAhIOe6ry9Mv/jzKooPxdK3b1tM6akH1rvWtBD5A6SRa7lmGrmWa6aRa7lmGrmWa6aRa7lmGrmWaaaRa5le3iLXf7zhy+HO3bsphXc8yj/5ZMqcPYuSsBUrA3Y44FbJCtcH3zwsakQayfK3d9JrK/fQv3zqBDpuev4BBypcy41e4VqumcK1XDOFa7lmCtdyzRSu5ZopXMs0U7iW6eUNrp/+/RPhvsq91MC7HrW/t5fSJ02i7PnzKWf+PErIzDSAbfKxD5EuonA9+M0LccR6w9Y6+vG979AXr5lLFw+od61wLTd6hWu5ZgrXcs0UruWaKVzLNVO4lmumcC3TTOFappc3uH7+4WXhNF7Q2M07KDVXbKX6Fe9QF/97clER5S5c2A/Z+3Jl+xDJHgSyFa4Hv3lIB6lpaKe7f/M2nTa/lL5wzTxCLrZtCtdyo1e4lmumcC3XTOFarpnCtVwzhWu5ZgrXMs0UrmV6eYPr5/68JJyalkYxcXEUw2sZu9taqXnzJqpftZq6GhopKT+Pxp52GmUiJ5sj2YDrgTnZCteD37y4uBhq7+ihPz65njq7e+nbn1tMuVnJCtdyW99/hsK1XDyFa7lmCtdyzRSu5ZopXMs1U7iWaaZwLdPLL1ynpvb/ds4RjomJpRiOrna3tlLTxo3UuH69iWSnlpRQ9ty5lHXsHErKyzsgJ1vhevCbh5xrAPbzr2+np17aSj/4ykepbFKOwrXc1hWuHTRTuJaLp3At10zhWq6ZwrVcM4VrmWYK1zK9Dg9cR4whJpYhOxQy6SKt27ZR3erV1L5nD6VPnNifk33CfErIyqIwl+9DokNLczPddddddNttt1FxcTF1CyuORF7+0bCJjL2e5MQQvbux2uzW+GVe1Hj+qRMVruW2rnDtoJnCtVw8hWu5ZgrXcs0UruWaKVzLNFO4lul12OHaDgeAbTZPYchu2VZBde/sy8ku5JzsBQs4J3s+JWVmUAtHur/7ne8oXA+4jwmcd727upV++fBqOm5aPv3TtfMICx3RNOdabvSaFiLXTOFarpnCtVwzhWu5ZgrXcs0UrmWaKVzL9DpicG2GxXAdyznZBgiRLlK+mRpWraLOes7Jzsulwo9+lOInTaS7fvpT+uIXvkDFY8dSV1eX/Ir2nXE0Ra6xgLG7p4/+wHnXVXVt9JM7zqAx++pd9/IC0bVr19Ls2bPNC4xr87khRDN/iQjxi1Vy8vs54tGOr6Ojw3zJSB+hm8hk8loCH/o3YiEw65WQcGA982h0G6mbyIR5zQXsLIu/Wvlo6CuN13zA1lzbaNhEBhphExOf+qdyWmB8fLyr/DRS4RpwAdvAc+6jQX9fPmM0wLVvnwG4njx5MqWkpDjfTsxzsP2kpCTnvtrb203AzMc8BzbA2HzYLPSHZmVlZZym2s9xLs3nPNfS0kJIK/ZxL31uIoO+NnJa9Jw5c6KWKubZB58Pw7kGaiYnm39i43jhYwvnZG+iJs7J7qyqooSCAnq9sYEuv/12Kpw2jboZqILWyR74u/fDNU+4CYmJvIZSvmuk7RN9wejRB26ga1/d/NLQyT8AgkB98dCTk0L06LJyzr3eQT//2hk0uZRLHPIGM938IK5n/WD0MDDXBqPHNbpOlNAMDzYeRF9wbZ1OIM2GEALjwsNYUVFhXkhc+rK/AnA3hqvl+NAfEzictCtcW/vHGF2dDvqqra2lKn5GZ86cyRsbcVlNh+YbVGCz8D8+4NrXRAlb2LVrF+GlcMqUKc6a4cWyra2NMjIyHJTvPxU2D83Ql68XQh8+A5pt2bKFEtlfl/D6HFc7w+SGAM1IAxXcA18+A5rB/+fyvhL4cfVnsDE0PE+ufUF72D98o2vz6TNg8wDFiZyeGngOPsR8YoNIvuAaUAybddUf8yUCLD58BvRHEG/GjBle/KwvuLbzOZ4DH5zhy2dYZty8ebPhjGhbzF/vfyYMhyhpxqmzILEMv10MFO2ck92yYQO18SSeyvnWGVxZJPO44yied3w0gM03V2Js9uJCDHfxHAWUnDsYqEN09IEHyLWvHp4oMVkmC0A9MT6O1pTX0hMvbqMrz5xC558yDpJQF/eDGziNX0YAsq5jA3jiXgKuXfuCo4bR+9AM+sPpuL7c2IWzO3bs8AKKsBVohnG5wrXvry14IUSD03G5l7CrmpoaA9jTp083kRWXBkcN28DE5qNhAoGNuUZUoD/GhX7wDLhoBtAHXMNuAdeu60dwPvpyhQEL19AMAOUK13Zy8+Ez4HMA13ixBFy72BnGBbhDH64+A5rB9+B58mWzvnwG7AyR65ycHAPXGGe0zc6ZPnyG1R926wPUffoM+Ol169ZRKW96B4h1eYnz6TPQF15GMB5XmzVpuJ58BvqCXSEKO3XqVC9s4JMz8FxijD44Az7Dh83CxjCXIIiHgFS0c4mJXLu8NSAnO45/WnkCf/Ghh2gcG1c8X2Q8VxTJOfHE/oWPiNiwgFj8eKjNaKxjMaDCFxePyLUHuO7gic0YvSOo4BoA17iJEqcTFxdL9Y0d9OtH19L4wnT6xmcXGhkweYzEyLWFTt+Rax+TG8ACRj9r1qxo56EDzvMVhUKnviLX6MtGoVwj1+gLOdeIXAOuXZvPKBTGYiPXsDVXWPQVuca49vDibUyWk3hTLdc2GiLX0AjPJUC9iPdIcG2+UskwMcJmAQQ+ooC4Lp8+A9ADsAZguzafPmOkRq6h0Rre8A6R68Bf3A8hLOwCLzk+I9c+5rmRHLn2Oc9hPh9pkWuYC/yPc+Qada6djIGdF/Kx2xlg77v3PrrwnLMpqaGeqrHwsb6BEnNyqeAjp5oSfolwIIPUyR5o+wau2egRtfYC13ijROTU8XOZfaOE8JJPPybQz/+DiiHNbV30i2+cRUkJceaNEm/hAEVXsIgEFR+f2H06HUTtABhOdrbPSDCBILfTJ1z7+sQOp4MXVde0HN9wjRzRyspKL3Bt0xJ85AJam4VduEau0RfgGv5C+iVusLnXJ1z7nCgt3PnU31dajk+49vWJF3oBrmEbPuHal88AXOdxICqbv/K6Np9wDX+NqKKPtBDfPgNwjZdeH4EHzHPw1z58BrgAz7qPeQ5s4OuFEPpDM0RhffhZn/OcT7jGCyH8ho9UMvSzadMmt7QQs4lM0JzrIZ5+vHngQbz//vvpkksvpXzOv+5g0GjctJFzsjdQ+969ZsfH/JNPpiwGycT8fI5idw+Zk+37E/tI+FyTwKkhyLv++9pK+totC2nO1DytFhLFbKLVQuSiabUQuWZaLUSu2Uhd0OhzcRhUwcsq4No1lQx9jYYFjXi5wRcqX4twtVqI7NnUaiEyvWzkGnDttKDRN1xffPHF5k28lx8opIz0NDdR89YKqt9XJzuNV/nmcQk/7PiYuC8nO4wE5IhFi0cjXIc4NWT15hq6/6/r6ZPnTaePn92f/2oj1z4ctVYLkT9EPidKXws9cBUjtVqI74lSq4XIbNZWXvBVrcKnz1C4lt1LhWu5XjhD4Vqmm8K1TK8RD9d2QYvZVp0j2938Wa6FP+fX8+eJHv4UgzxsUyc7Iie7b19O9tEI1yjJ19TaRXf+6i06oayQvnrzAk4L6eFVvP1pIQrXwR4AjVwH0ynyKI1cyzXTyLVcM4VruWYauZZrpnAt00zhWqbXhwau7WWZzWj4//RwzmzT5nKuk72S62TXUyIv5ig45RTOyT6W/x2LOsIU7u4vQ4NcKG851x/wKt5YhmsY+c8fWGXyr//985wiMyaeVq1ao3AtsH2Fa4FY+w5VuJZrpnAt10zhWq6ZwrVcM4VrmWYK1zK9PnRwbS4vok52TztDNudkN3KdzzZemZ9SVEz5ixdTFhftTi4soGZeDBniiPfRAteIxsfEhOnZV7fT6yvfoztuWkDHT89nuF6lcC2wfYVrgVgK13Kx9p2hcC2XTuFarpnCtVwzhWuZZgrXMr0+nHAdcY1IFYnMyW7gnGxAdur48ZR7wgmUxAXP08YWUDynlaDSR5ASfoNJOJLqT2Lb803b6ulHf1xB/3j1XLr09CkK10K7V7gWCsaHa+RarpnCtVwzhWu5ZgrXcs0UrmWaKVzL9PrQw7W93ANysnkzmjqU8OO6vElcJD53/jzKPX4uJWTxtrUc+bU52RKpRhJcxzNc13K963t+8zadsWA83frxObxafB2XyPGzQ6PPxUmjaftzXyv/dUGj5MnsP1YXNMo00wWNMr1wtFYLkWuGsmaoAOajfKHvRdAK17L7qXAt0+uogev9kM052cYR8gPdzLsWNmBb9epqSsjMpPxTUSf7WErKyzXH9PGDH7SNJLhG3nVXdy/95fnN1MKLG//t+vnUWLuDjpk2Uxc0BryhGrkOKFTEYRq5lmumkWu5Zhq5lmumkWu5ZgrXMs0UrmV6HXVwbS5/X042NqVp4cWOrbydblv5ZmrdtdvUyS7gnOxM3owmmeto93GRe7O1+jBtJME1xhIXF0NLXt9OT75UQXd/aTGlxtTRpCnTFa6Hu5H7/l7hOqBQCtdyoSLOULiWy6dwLddM4VqumcK1TDOFa5leRydc79MAEIodHxOSkiiGdz1q2rqFGriEXxtDduq4cZTD6SI5J5zIOz5mG8AeWCc7UsqRBNcYV3JiiFZuqqafPbCSPv/JOTRtbDdNnzGT3yti5RYw4AxNC5FLqHWuZZr5/sSraSEy/TUtRKYXjta0ELlmmhYi1wxpNChB7GOHQPSDHRp97MSqcC2/l9h48IhvItMffY0zo4XTgrOP3KHRbiJj61zLLwsBbIZrNlRs4w3ARkQbtbFbOCe79p0V1FXLOdn5BVwn+0Tzg5rZQ+VkjzS4TuC8693VrfSbR9fStPEZdM78FJo/71iWCYUK3ZrCtVw/hWuZZgrXMr1wNLaSxhcXHxOlwrVcf4VruWYK13LNFK7lmuEFAvzoYyt7bFmOnzFjxsgHMuCMIw7XEAGwWlNTY4aSyzWq4ezR7PbnvuEata7xO7DwEQBtcrLLy6meS9h1cepISnExZc+bN2RO9kiDa+Rd9/T00b1/3UA732ugWy8eS6cuPtHZGNCBwrVcRoVrmWYK1zK9FK7leuEMTG4APB8TpcK1/B4oXMs1U7iWa6ZwzZoBUuGkXnvtNdq5c6cB3nGcorFo0SKz2Usbbw5z//330+GCa3Pb9tfJjqUedr5Y+Ni0iRcHbt/GtbELKX8R18lGTjaX8LM52SMNrnEZyUkheuLFrfTk8nL64sfH04VnLZRb5SBnKFzLZVS4lmmmcC3TS+FarpfCdXSa4esIWmpqanQdRJylcC2XUOFarpnCNWuGFI21a9fSU089RR//+MfNboN/+ctf6PzzzzeboECkww7XEffu/TrZvK36tgqqR53s3ZyTXTKOsufPpdwTkZPNOz7yS0A7Ox3UysanBxtpl5tB/wsGPvHi00NaWlrUfSUlhGjF+iq676/r6ILFY+mmT5wUzXAOOkfhWi6jwrVMM4VrmV4K13K9FK6j00zhWq4bSs4iOJiE9FPHpnAtF/Coh2uA4nANedbvvvsuvfHGG/SpT33KgOZvf/tbWrBgAc2dO9fkFN53330mcp2fn28S+6NtkTnXNi1kqL4i62S37uA62SveoU6Tk53Pix5PoNyFC6k3gVNLeLwpiYn9ix+jbL7gOi4ulmrq2+j//WUllRak0n9+4bQoR3TgaaizjKgFXoRcG4we/fhwOngZwUtJEDsbbtz4QoKqBHih89HwQoJarri3rq2pqYmSk5ONs3ZtuE40H7loeIGorKyk6dOnuw7LvFDCznzkD2Mw6At2YddxuAwQEyV2dE3k59y17eENrZCaMGnSJNeujC+Ef/RRMxiDgc361N+Xz6ioqDDaF3FlJ9cGn4HoqY/FYXghhG341N+Xz9i4cSPl5eVRdna2q2Tm67EvnwF/DVj0kZbjNR6LBwAAIABJREFU22es4eIGeC59+EbMc/DXPnwG/AWedR/zHLIEMDYfNgv9odnMmTO9+Fmf8xz8ItKNMW+6NvgL+A0fPgP9YEHj7Nmzox5WzLMPPh8e7jMSbg5AC7/w3nvvNf9EgyCf/OQnzT9b2Hn96YEH6KKLLjLO4kjBtb1yk5PNrRfpIls4J3sl52RjMxqOXmfyCwBK+KVz6giuBSkj0TQL111dnQyx0UeuwXEA7J8/sIqaWrrof75+hqki0p+9Hn0bLZFrTOK+4Ppoj1zDZmtra6mqqopm8K6nLl9uYJmjIXINzXbt2mX83OTJk501Gw0LGqHZFi6dCkgpKSlx1mw05FxDM5Tiw9qlyPVL0c4AoyVyDVCcOHGil/SX0RK5RtYB/L+PwJvPzdJGcuR6M6cdO8H1g//7l3CQ6CTeoDZsWM8516/TYq43jTcrRLGRc42bhsl72bJl5u/wtotJONoGp4OJDdEsGENgIIjMyea37taKrdSzbTv1cXQsaexYSpnJxsVvvAkc1Q7zG2aQOtmR1wAo7unp5YhKN781Jwcf1yBCxIdi6MUV1bR+WxPdfMlUrhySRt280DHaBs1gqJjchov2D/c78CZp3yhhG4H1H6Rjey/tG72LXWBciM689957Bnpc+rJDhWaIgKBvl2b1R+QUPy6a2eu0L7AufeEZwgsEXrwQ7XF56bVwjXvgIzqD/qA/Xs5Fz/kQdgabRT94Blw0Qx979+41kVOsK3HRzNfXLnvJuC5cJwIirl9bfPoMaIa1OPA9Y9nXumoG7fFSgut0uZe4RowFUVifNuvDZ0AzfIXDV4isrCwzp0bb7NdenI+xufhG9AX98eOS/mivBWPx5TPgG/ESV8iBMtfrRF/wP/CRPuY5vBDiWmGzrvr7SD+F/nat3DautAZf5soGvue5w8EZPnwG+BMBFpfgSsxjv38iPFxIHoLCkB/gyDTesJH6gf/2+OOPm8/NV111FdXz5P3Uk0/S6aefbj5xuToKGKqF66gcDo8vlh19LDuINnb6DVxdpJ1zssPZWZRx3HGUd+ICSszN6QdsfiCCOHDrqDs7u/gBcsvfDnHkesvuZnpo6VY656QSuvJjk6i3L/rYNcYW+bkmyPUMpat9gGxaiGtfkWkhrn3BSWMSnzZtWqB7NpztQDN8RvIBKugLTtoVrjGWyE+8rpoBrFHhZ8qUKc6aYdLAhOTjczHuDTSDM3RNC4FmkWkhrppFwrVrX5Gf2F36gl44H9fp02ZtKpPL2KB/JFy79gX/D91wnS592RdC3zYL6PTxQg5QxHwJuHa5Tt8+A2CNe4Dn3GVckTbrw2fgOpFKU1pa6mUNVWT6o8t1YlyRaSGufeGFEHOAq/4YF3w2Uhzg/30EMXzOc4Bry5eumkWmkvnoC1/IwRnRtpglD70wbFoILh6O5PHHn+BJupouv/xy8/8feeQRkxN0ySWXGEP4wx/+QJdddtkHkhYyJCjyW2knoiA8IfVUVVL9O+9ynexa3ko9z2xEk7vgBEpgx4YFkn3IE0fEfYj8WxuFwkPk6vRRkq+ppZP+83/foBNmFdFXb3Ivx4dJF6Di6vShJe6nqTPOUVjXhkkSPz5y5KA9JqSysjLXYZnz4Sh8OP3IKKwrKKIvXCdakK9KwwmBz3iARRdHEfk7fGoGmwWouL7cYHxw1LBXHznv0Av3YMKECcPJO+zfY3LD2HzkAvq2WZ8+Y/v27earASLXrg3+AoA3XMpi0N9jX0iCHn+o43zaP6AHa5R85ND79BkIjvmM9vvUDCkOiCj68I2Y5+AvfPgM2Cug2Mc8BzgE+PvyGUilwZzpw8/ar40+5jnYGHjFR847tAdg+/AZ8D94iXNJP4157s9LhoVrOBoIgAjYE088Yd6EbM1rVAvJ4bxmTB5HslpIUCdp0xJ4wObzc097G+dkbzE52R01tZSQmUH5p55K2RzNTszLNcbXxw/JYM3nJ17AdW9vH33vN6+Z/O3/+PzJlJ3htmJ5tORc41OqSy5U5L092nOuca11vPYAX5iQvuXaRkPONTTS7c/llqLbn8s10+3P5Zrp9ucyzXSHRpleOPqIbyKDNxUQPaI6eLNC3pPN4Tncm8jI5ek/w8I1xpu0b0VqTGwcL3xspyZOWG9cv55aObcmuaCACk47jTLLZpp/R+k+5GVHNt9w3cdw/YdH36Qte/s4cr2Q5s4oiPYyzXkK13L5FK5lmilcy/TC0aNhQSOuU+FabhsK13LNFK5lmilcy/T6QODawuqR3P7cRwI+PhUYuI5YnIc0kFhOe+jmiHsL59agTjaqiyRyTnnWscdyusgCTh3hHSj7GLIZglEv2ydcoy+OkdOSl1fRIy/V0D9eM48uO2Oq3AoizlC4lsuncC3TTOFappfCtVwvO7npDo0y7UZLtRCFa5ldKFzL9PrA4HqwYSJF5EMRuR6k8oWpk80/PZzf1LpjB9fJXkEd1dWcIpJHuaiTzZCdwIsgAcNY/Ni9r5ai6yrq/tynPlqxcgP9ZXktnTq/lL50zVxToi/apnAtV07hWqaZwrVML4VruV4K19FppnAt1220lOKzda61FF8wGzniaSFDDevDDNf2mmyd7D7Uyeac3nquLtJRXdOfk33KyZTFOdkpnC7SjbJO+xZhua5IRVR8w6Yt9Oq6Dl502Uff+twiys9OCXb3BzlK4VouncK1TDOFa5leCtdyvRSuo9NM4Vqum8K1XLPRUucai43nzJkjF2jfGYEXNB7qNxwNcG2uL6JOttmMprycGtavo9adnJPNK7rzuYZ3Gu9yFMuR7FTUEo1yM5r+X4UFjb1cvmo7ba2KoydfrKDvf/k0mj01N+qbqXAtl07hWqaZwrVML4VruV4K19FppnAt103hWq6ZwnUwzRSuh9DJ5mT3cE52Mxdgb+RSNi1caiqZdx/Lmjef8k+Yz1us5x2Qkx1M8v6jbM3syvd2UXNPOv3sgZX0L585gc5dPFHSzQHHKlzLpVO4lmmmcC3TS+FarpfCdXSaKVzLdVO4lmumcB1MM4XrYXQyOdmcUw7IBlwjXaSLSxLGcz3pnBNPpLyFnJONOtl8nIlk88LHIM3C9e5dOygtq5Due2oDTR2XSV+4eh5XYIku71rhOojyBx6jcC3TTOFappfCtVwvhevoNFO4luumcC3XTOE6mGYxLz30ajg+JUR94ei33j5q0kIOoZmF7C6G7HouLt6+iX+qqimBd7DKP+UUzsk+lkv48eYJvE5xqDrZkd1buN6xYzuNGz+BHnhmE+3c20Q//erHKCMtMdjdG3CUwrVcNoVrmWYK1zK9FK7leilcR6eZwrVcN4VruWYK18E0i/m/v/5W+KyxZ1NCbAJ19nUGO2vAUaMBrnHJiGAjT7qbfxKxwyLXyW5Yt463V99FicjJXrTIlPFLKSriOtk9B9XJHgyut23fRmXTp9KTL22jp1+poB//2+k0fWJ2VPdB4Voum8K1TDOFa5leCtdyvRSuo9NM4Vqum8K1XDOF62CaxSR+OzF8ds7Z9Oni62lC8gTq7uumnvCBm6cM19WogWtehIgtNu22vDG8bSpK+LVwTnbDmtVcym8nJTNYZ8+dyyX8TuSc7Pwhc7Jt5Hobnzt92hRauamW/vTMBrr63Bl0xVnHDCf5oH+vcC2XTeFappnCtUwvhWu5XgrX0WmmcC3XTeFarpnCdTDNYubfc0L4by1vU1FSMd1ScjOdkXMmJccmmyh2mP8EaaMRrlO4WghK8R1QJ3vnTlMnu72qilJ54WP28cfxz1zemCbnoJzsSLieOmUy1Td30i/+soomFmfQtz+3OIjsBx2jcC2XTeFappnCtUwvhWu5XgrX0WmmcC3XTeFarpnCdTDNYr732x+G13WvpkeqHqH6zno6P/8CurboOpqWOo26TBSbF+kN00YzXFtpTJ1sjmzbOtmNGzZQx3vvURwvfERONkA7Mic7Eq4nTZpECQkh+tmf3qW6pg76xTfOpNSk+OFkV7gWK3TwCQrXMhEVrmV6KVzL9VK4jk4zhWu5bgrXcs0UroNpFvN9husxKWPova736Jnqp+m1hlepKLGIPlPyGTov53xKikumjr6OQ/amcP2+PMjLNrnZqJO9ZQs1blhvdn5MzM2jPM7JzuaFj8jJDvf1UXdnB22r2EYTJ06k5KQEemxZOb21ei999aYFdNz0/GB3MOIojVyLJSOFa5lmCtcyvRSu5XopXEenmcK1XDeFa7lmCtfBNIu557ffDyfxtuDxsfFcMSRM7zT/nZ6ofJz2du6lM3LPoM8U30AzUmeYPOyhcrEVrg8W29TJRk52K+dkcwm/hlXIyd5ByYWFHMU+nnJPWkjx2dm0lXeDnDR+PEeu42jN5lq696l19PGzp9Mnz50e7A4qXIt1ijxB4Vomn8K1TC+Fa7leCtfRaaZwLddN4VqumcJ1MM32wzUOj42Jo/iYEFV1VdGS2udped0yyorPohtLbqIL8y+i1NhUThXpoj7+E9kUrocWuz8nu79ONhY81r2zgjoqqygxJ4cyGbI7x5XSZN5iMyExgRob2+i7//sGzZ1RQN/47EnB7qDCtVgnhevoJVO4lmvXzfXvAT6ZmZnykwecgXUe+EKFvpBa5tp8fu1CoCAxMZGKi4tdh0Ud/OUPC8fHcKlT14YKT4AoH/pjLD5fyDdw+mBeXh7l8Hzg2hSu5QoqXMs1U7gOplnMXb++J5yQkHDA0fExHMXmPyub36Unah6n2t5aOj3rDLqq4JM0K2UWdXMeNqqK2Aa4hjN84IEH6MILL6Tc3FxTVSPahkmjs7OT4hhMQ6GQWTgYbUNfmNzQB67TpS+MAXCBa8MkErgvbKvOGpmcbL6ulooKalq7lrpraijEWuXOn0eZAGx2sr99fAOX8OumO26YTzmZSfy7gtUfx3XCUZivEBwxDzy2QYTF/YSjxj/Rn0tf9l5Cs7S0NKNftA3jaeHqLNv5S0BZWZlTX3YM0CyV8+LRt0vDdWJssDFXO8NY2trazHCSk5Od9MczVMN2hp8ZM/gLlMNzae0ftpGenu4i1/5zoRmu0cdzjnGhH9GzOchVoI9du3YZHzRlyhTjP6Jt1v/AP0Izl2cJY8D50AzPkitc+/QZ8Dnl5eVG+xJezO1iZ5E+A8+mi2Z2bQueJ18268tnwM7Wr19v5kv84CUg2obrbG9vN6djsb2Ln0VfeLHBD+zMRX/fPgO+cS3PnePGjTP30+U67Xziw2dAMzzjuIeu85xPn4G+MCa8xB1zzDHObODTZ/jmDF82a+dfBAvAGdHa/6BwjQciNiaWQgzZjb0N9GLDMo5kL6ExsWPo2sLr6KLciygtlG5ysVFRJC42zjzYDz74IF1wwQVeHAUM1cJ1tA4H51lHAYFcJ130B0O1cC0aF14QEGkCaDPwhHnCbuMyfFWrV1Hv7j0Uz7s85nD5vg2hYnprRwfd/ok5tGB2AU/swRyuNXqfoAL9fcK1j4kSkyTKF86cOTNqo4+8bwAVjMsHqKAv2Jjry03kROkK13AUdXV1VF1dTdOnT3eawC3cAWIxgfho0Aww4OPlxhdcw+53795tJsvJkyc7aWbhDv7RF1zjOn3aLJ5x15cbaBYZuXYFRbzYwM+6+gwLd/AbI81moRmgB2CNyLULKPr0GRbucA98wDXmXl8+A2Nbx3tLjOdUSlfbQF++fEYkXPsYF2zfh884HHDtc57Dc+kriOcLru29hD9z4YwD0kIGTpaMgRQyudi9tLplNT1Z9Tjt7NhJH8k5jW4uuWV/LnZfTJ8xhPvuu48uueQS85nLNXIB0QEpPkAFTgKOyxVU7ESJ/pwfIIaePn64d/MNTOf+mtatpQ6OyFbnTKCnEo+j2646ni4/U1bvGp9rMC5MlK4NDxD6wcTr2qAXon8+JjfYBYx+1qxZrsMy5+OzeEZGhjNco6+mpiZjY7BZ12Yj1wBP14bP2JWVlQauXRsmStiZr0/s6At2AdBwbYgo4qsBXnBc2549ewxco5KPa4MvxCQOO/PRbFqIj758+owK/iIH7Yt4wbZrg8/AZOkj2gzfD9vwqb8vn7GRd/vFfJnN629cm0+fAX+NOd1HWo5vn7FmzRrzXPrwjZjn4K99+Az4C/uF1vVe4uUUY/Nhs9AfmgEUffhZn/Oc/UKOedO1wV/Ab/jwGehn06ZNNHv27KiHdUi4tr3y0jzewTGRqrur6Pma52hZ3QuUnZBNNxTfRBfkXUAZ8RlU31pP991/H1188cVe4BoPNuDOF1zDwHxEYe0mMrbOdbTK2zfKSq6JXVRaSr3tbdTJuzXuXFtOD/VMo7KkZrp+XjKNP/csSsS26gGaz/xJTEbQ34fRw+nAWfswejyMgGsXo4+U0mf+pM9cNJ/5k4hcA66RFuLaNOdarqDmXMs105xruWY+fQZABXOwD7jz7TNWr15t4BqBJNemOddyBX3Oc3iBQOTax4sSgBg/Pl4I4X8A13M4XTfaFgiubec2F3t182p6uOohquzgiiI5Z9AN426iibET6Pf3/oHOv/h8hesAd8PC9d69e6mQK4jEMsjG8Zbqba3t9OiqZqrasoMu3/ssFbL/KLzsChp7xhmUPPbQkK1wHUD4AYcoXMs08z1RwmYRufbxtQURFUSufXxtiUwLkSl08NEK13IFFa7lmilcyzVTuJZrpnAdTDMRXKNLRLFRtq+mu4aerXmGXqp7kcYmFdA/5F5NDc820lWXf5IycjKomxflRdts/thoiFxbuMY1IyU7xJ/HX9ncTH9d1UBfmlxLxdv/RtWbt1EKLxIa+5GPUMFpp1EqL+YYrClcyy1O4VqmmcK1TC8crXAt10zhWq6ZwrVcM4VruWYK18E0E8N1ZBQbixnfRUWRqsdoT8cemlQ/mb656Js0J+dY6urtGrIu9nBDG61wDV2SQrG0/r12+vWrNfTZs0ro7Ekhql23gapeeYXq+XNY2oQJNPb006n43HNNzezIpnA9nGUd/PcK1zLNFK5leilcy/XCGQrXct0UruWaKVzLNVO4DqZZ1HCN7lFRBKki1V3V/XWxa5ZRTlIOXV98PZ3PudhpcWOoK8yLCcOy8mujGa7j42Koqqmb7nuzjqYWJNJtZxXz7o3x1NHQSE2cA1T5wgtmU5qkggIqBGRz6cNk/ne0Rv4snuJpQZ3mXAd7gCKP8ul0fE6UmnMtv5eaFiLXTOtcyzXTOtdyzTTnWqYZAiJ2QaOP9Duf85zmXA9zLxNiE6ijq4Pue+Ne2pC9gRpjG+i0rNPM7o6z0mZRL1cbQW3soG00wzWnXbNeRA//vZ52N3TRnZeXUu6YEPUQb0aDbdW5WkY91/mseuklA9nxvMlCKVdoAWj38MYSaajZHFToQxyncC0X0afTUbiW668513LNfH7tUriW669wLddM4VqmmcK1TC/75eyILmgcaoimLmZXN7249EUqW1hGb/W+QUurXuDdHTPpptKb6dzccyk9NIbae/uL3A/XRjNcQ5vkhFh6bm0TLVnXSHdeUULTC5Opq6e/TrbJzebFj728mrV+5UqqeeMNauCNCFI4ep13/vlUwpCdxtVHXJvCtVxBhWu5ZrqgUaaZ7tAo0wtH6w6Ncs20WohcM1RXQTUxH1Wx0A+iuj5Knipcy+/lEa8Wcii4xsO4dOlSOu2U02gM13Nd2fiOWfC4rX0bLcpaxHWxP0sz02ZST1/PsLnYox2uE0IxtLGyg558p54uOD6LLjw2k1NrsDvb+3cAUexYrozQwyXzGngjguqXX6aWHTsoKT+f8k8+mUoYtJMd6s0qXMsfSIVruWYK1zLNFK5leilcy/XCGQrXct0UruWaaVrIMJrZXRAB14sXL6bszGyKC8dRXXcdPVf7LC3l3R1RF/sWBuzz8s6nlNgU6uzrNLs7DtZGO1yjJF9jew/d+3otFWYl0P85r3/hIgB7YEMUO5YrjPTwW27lqlVUy5DdDsjmjQkKuXyfyckepoTfYPdA4VruKBSu5ZopXMs0U7iW6aVwLddL4To6zRSu5bopXAvhGp8y8CnO1sVew7s7PlT1F6psr6Rz88/lBY830pTkKbzYcfCKIqMdrlGSL47/53ev1VJ9Wzfd8/FSSk/iVJDB6HrfvYnlXabMblP8/1uw8PHFF6mVtwkPISf7ootMnexULucXtClcB1Xq/eMUruWaKVzLNFO4lumlcC3XS+E6Os0UruW6KVxHCdc4DVuoJ+7b3fHpmr/SK3Wv0ISUCXR14TV0Xu755u86+joO+A2jHa4hBlJDkHe9Ynsr/ePHxtK88Slc3nDwSL/RmWEcQJzCCxrjecvyHs7/Quk+k5PNCyCRLlJywQVUcOqplDZx4rBPgcL1sBIddIDCtVwzhWuZZgrXMr0UruV6KVxHp5nCtVw3hWsHuLanIordXxf7Hd7d8WGq7qyiM3PPohuKbqSpqVNNHjZ+LCiOlu3PIzeRiZQ5xKkhmyrb6SGuGnL+sVl0zcIcau8euqShhWtsV27K7TBsIye7m6PZTbzgserVVw1sp/O2sUXnnEMFvCFNSnHxkHdW4VruKBSu5ZopXMs0U7iW6aVwLddL4To6zRSu5bopXHuAa3QRFxNnUkUqu/aaXOyX6l6i3IRcuqnkZjqHK4qkxaVRV18XhWPCNNrhGiX52rrC9N9LK2lmURLdcUERdXPkOnJRY+RtGQjXmITNiwpysvmnm6PaTRs3UiVysvfsoTiGcGxGg5SRgZvR4DyFa7mjULiWa6ZwLdNM4Vqml8K1XC+F6+g0U7iW66Zw7QmuDezxn1BMiPr4z0qOYj9a/RjnYu+lj+aeTtcXfYZmpc8xEeymtiYTgY3nXGILivJb158u0dnJiycZNpM4XcK1L5TIwUrqlJQU576Qlz5U5BpwDTz+A+dd93AR+H89r4jyx8RTzxCpIUPBtdUMkI1jelkLpImYOtkVFRRKS3s/JztiW3WFa7m1KVzLNVO4lmmmcC3TS+FarpfCdXSaKVzLdVO49gjXtisuJEfxsfGmosizNU/T8rrlJop9bfF1dHH+JRTfzSAZ00Oh+JAzxH4Y4RqLGgHDL29qpje2tNDtZxTQSVPSqL1r8NSQ4eC6P4x9YJ3sBuRkv/km1a9Z05+TzeX7kC6CnOxWrqONzWiS+YXEtaFmZHd3t5f6n9hcBZtVzJ4923VY5nzd/lwmo25/LtMLR8P2Ybc+atYqXMv11zrXcs20FJ9cM4VruWYK14cBrm2XCTEJJoq9umUVPVn9JO1o206LchbTtTnX0dysuVxmLpa6+7qHLNs33O38sEauma0pxFuhV1R30f+8WEmfXpxHn1yQTa2dfYMWMAwE1xFimTrZiYmmTnYjp4tUvfIKAbZTeAOaoo9+lNJ54WPmlCmUwGX+XJvCtVxB3aFRrpnu0CjXTHdolGvm84Vcd2iU6687NMo0001kZHrhaC+byNz163vCiQxZLs3WuV62bBktWrSIMngTGUQLgrbYGI5iM2TXddfS0rol9EL9UspLyKOrx/ZXFMkMZVJHbycjeK9JK5E0OzZEfHCdLmkh+L24LqSG+EgxQV+VlZU0lutQY5wDGxY1NrT30i9frqX5E1LoxlNyzNX3DZJ4jfPbeGt0XGMcA3HQ60Q+NlJGUCe7iUv4VS1fTm1cwi+ZIbvgtNNMCb8kXviIY/o4HSbMKSqSZl9uoFkap6DgQY+2xfILAd50t/O272VlZU592TEg/QXjGkx/yThxPsaWwItI8RNU/8F+B67TwrVr+hFsoaamxvzMmDHD2K5Lw3XhOn3sQoZxoC+7CNdFM+gPzZBK5vqco4+dO3eadLKpU6eayHO0zexey+fDWUMzl2vEGKz+vmwW9g9f5pp+h/PLy8uN7Zey73Cxs0ifkcrVj1w0M6lw7GdhG75sFpphXHhOXRrsbD0vNs/NzTU/kjlz4O+1/h//HWNz8bN2zkT0Gnbmon+kzfrQH5qv5bTG8ePHe5tPfPgMaIZnHPfQdZ5DX3h+EAl39RnW/vESd8wxxzg/5zaI58Nn2HkOfWIOcLEznzaLcUH7LVu2GM6IdlwxgGs4RJdmL2w5g9nChQvN50+Jo8Dg0Yeti725fRM9XftXKm8tpxPST+Bc7Bvo2LTjTIQbCx4lzU5uOMd1ArGGCsN3ncBtX9XV1ZTPKRmDwR3yrnuYRZ9b10J1bb30+Y9mU1FmfP9W6IM0GATGFY3TtznZfQwUbTxJ1rz1FrXwP2PYNvLOOosKePFjOkeyEfFG3vaQKysHjMtOlLAHV1C0DyPgeubMmU4TiB0m4A6TkQ+4xgSOZ8mHneFeork6HcB1bW2tgetp06aJnsvBbAzPKq4TE4iPhr5wjdHYbOTvt3CB63V9NtHH7t27DVxP4uo6El82GPTAX2Di9QUq0MyXzcL+MVECMKKdRHDN0KyC13DA/ov5ZdxVM2jvw2dgbABNPE/QzEeDZvBlrjYLzTbyV8OcnBwvcO3LZ9g5E3Dt+nJj4dqXz4Dm69ato3G8PsgHxCIg5cNnWLiGrbnOcxauffgMyxmwMwQKfMxNvuc5jNFHsBL2ikCGq81auEb6KTgjWr8Yc89vvx/Ghbk0C9d2h0YpXEf+bkSxE2ITqLK1kpY3LKOXGl6klLhUuo5zsS8vuILS49KpI9wR+IIt3H3YFjRCE7OZDBP2a+XN9NTKRvrWpSVc7zqVq4gc/FXAvlG6RAENYCJdhCfalvp6amQn1vLuu6aEH3Z8LD7vPBPNDlInO/KejvS0ENirK1zjekfDgkab85uVleXiMvafqwsa5TIiLcGn/piMMOm6NkxGeLEBXLs2+AxMlmN4EyzXBuBBypCPnHeMBfr78hmjIS3Et89AWsjkyZMNxLo2fIWA7bsyEMbhM+fa5zoB6A/NEIXFi4Rr8znPjdSca7zc44Vkzpw5Ucs14uC6HypjqI9rOofiQrShfT09XvUYbWvbRicbEjgPAAAgAElEQVRlL6Kbim+mY9OP5YoinJ4RHv5z7YcZrqFFUiiWNnC961+/XEM3nJJLFx6XxdHsg0vy+YBra0UmCsiRnnh2XiGOujXwJ6UqLuFncrJ54gRgY0OalIA7Po50uEYak2sUarTAtS5olPtaXdAo18wnXPsEFQvXvnzGaIBr3z5Dc65lz5PmXMv0wtFecq5HWuTawjWiFoDr5Phkqu2qpRfqlpra2GNCY+gG3j79oryLzb8jTQTpIkO1Dztcx/OixurmHrrvjVqaUpBInzu9gJLiOTVjwFbo3uGaP5cBOJORj8z/xGY0zZwm8t7SpdTCEaoE/pRZyAsfSy+9lJI5Z/xQTeFa/nDrgka5ZrqgUa6ZLmiUa6YLGmWaKVzL9MLRSCVDVNfH1xaFa7n+Rz1cA+6QCxjHf9DWtKyhx6oeoV3tu+jU7FPphpKbaHbabOo2uzsOHsX+sMM1MjWwfhE7Ne5u6KI7Ly+l3HTeFGZAvevDBdc2FyqyTjbSRbAZDepkA6xRvq+QFz6m8iKTwZrCtfzhVriWa6ZwLddM4VqumcK1TDOFa5leCtdyvXAGUjnw4yOVbNTAtVnwyH+Qi93Y00DP1j5Hy2qWUFZ8Nl1feiNdkHsBpfLujp19nIs9oFDdhx2uYTTJCbH0/NomWrKukf6d867LSpKpe8CixsMN19bcEcU2lUP2bUZT+/e/U92KFZTIkewizskeyykj6ZwPF9kUruXOQuFarpnCtVwzhWu5ZgrXMs0UrmV6KVzL9VK4DqiZXSBpI9eRqzVRUQS1MtZwXeynuC72zs6ddFLGSXSjiWLPoV7Oxe6OiGIfDXCdGIqhtXva6ZEV9XTJ8dl06bwsU44vsiLfkYLrSMg2dbJ5oVDT5s1UiTrZq1b152RzJLuYN6RJ3bfjYyen+HQxjPsoxaSbyAR8iCIOq6urMyUfUYrPtfmeKHVBo+yO6CYyMr1wtOZcyzXTTWTkmvlc0KhpIXL9NXIdQLNDwTVOt3Wx63l3x+c5ir2k7nmTf/2pok/TJfmXUmZ8Zn8udrjvQ7v9eaRMqBjS0NZDf3i9loqzEuiO8wvNX0emXR9puN4P2bz6GNVFurk8WDND9l6udY7c7ITsbBPFHnfJJRTDlUZQ3yTVseQjfqfCdYAHaMAhCtdyzVCKD19cUJXAtemCRrmCuqBRrpnPr10K13L9Fa7lmo3UaiGjKi1ksNvWXxc7TBta19HDVQ/TrradtCBrId1a+jmTi42Fjohifxi3P4+8XuRdY0OZ37xaayD7+58opdTEuAMWNX5QcB0J2aYGNkepkZON6iLNXIQ9xDWM8889l/I5JzuX62y6NoVruYIK13LNFK7lmo3UUnwauZbfS4VruWYK13LNFK6H0cxnnWv8quEi1weA575c7HrOxX6Bd3d8ue4lSuP8648XfoKuKLjSRLSb2ptMFNtHoXJ8roHj8VEoHk5/7969VFhYOGyd5QSuGrJ8UzOt2NZKt59RQHNKUw5Y1PhBw/V+yB6Qk139+usmbSSpoIAKTjmFxmJrdd6MJtqmcC1XTuFarpnCtVwzhWu5ZlqKT66ZluKTaabVQmR64ehRH7mOlCwUE+J0Ed7xqnU9PcIVRSpat5q62J/jKPaUeN7CuK+bQoluu5DZnZM+CLhGasi2mg76y9/q6axZmXTtSTnUzrXA90Mth7dREN9lE5nIvrBzFXLeo34h4XPjOCe7l8sJ1XMx9r2oLrJmDSXzi0T+qadSMdfJThuiusihHgWFa7mjULiWa6ZwLddM4VqumcK1XDOFa5lmCtcyvRSuB9GL9xak+Nh4auAo9pLa5+m5mmcpMyGTri+4gc7niiLZydnU3tt+UEWRoNJ/kHCNrdDbusL030t5YVpREn31giITubaLGkdK5HqgliYfmyP07Y2NFOYoPepkI5KdwLsiIopdyjnZQTejQd8K10Gt9f3jFK7lmilcyzVTuJZrpnAt10zhWqaZwrVML4XrQ+iFKDZK963iiiIPVz1Eezveo3Nyz6Friq6jsrQys9ixh2tjS9sHDdeokoJFjT29ffSV84qoYEw8/zv+a38qzYiKXO8T11Zr6eW3gDTeyriHF4k1rl/fn5PNCx+Rk43KIoVnnUVpEyYMe0sUroeV6KADFK7lmilcyzVTuJZrpnAt10zhWqaZwrVML4XrYfSydbHrTEWR52lpzfNUkFhA1xZfZ3Z3TI1L5brYnaIo9gcJ11jUiJ9XNrXQa+XN9PmPjaWTpqRRe1d/ashIh2vkqqemppqLMHWyOW+9Ye1aqnnjDarnEn4JWVlUetllVLB4MaVNmjTk3VW4ljsKhWu5ZgrXcs0UruWaKVzLNVO4lmmmcC3TS+E6oF6JsYnU2d1JK5vfpWfqnza7O56ScyrdVHyziWIPrIt9qG4/SLjGuLAVekV1F/3Pi5X0qcW59MkFOdTWiXopHx64tjXLoWVsUhL1YFv1TZtMnexm3lY9kUv45S5cSCUXXjhoTrbCdUDDjzhM4VqumcK1XDOFa7lmCtdyzRSuZZopXMv0UrgOqBcgrrenl+L5T3NME+dhP0dLuapIBlcR+XTRDXRx/sVcFzvL7O6IiiIjGa5Rjq+hvYd+vqyK5o5PpVtPz6eEOC5/xwWvPyyR68gNgUzEfV+d7B7UyWa43vvCC/052RkZVMB1spGTnVpauv+2KFwHNHyFa7lQEWcoXMvlU7iWa6ZwLddM4VqmmcK1TC+F64B6ATqxiQMW/qUmpphI9XquKPIo52LvbN1Fi7iiyGdKbqDj0483KSLIxx6qfdCRa1QM6ezpo0d5p8bG9j76l3MLaVx2PP+3Dy9cW60B2VyehMKok71hg8nJBmSj4ghysouQk83pIh19fbSZ00lmz54d0AIOfZjPrYwbedEmqrUkeNosByM3qTSOTSPXcgEVruWaKVzLNVO4lmumcC3TTOFappfCdUC93ofr8D7oiaHE2ASq766npbVLuDb2C5QSm0z/UHg1XTH2SsoKcRQ73DloFPuDhmu7mcxr5S30xMoG+r+XFNMJE9K4ikjvhzZyHXkboS9ysmPj46mXt0tv4M1okJONbdXjubpIKbZUP/FEqmXgLps2LaAFDA/Xmdy3+d2ODXCN+ufxPH7X5nO3NbxAoJ66j+3P7fbbWZwj76Nh+/P09HSKw8uVY2tqajLPOMpHujafcO1zK2NcF+6nT/3T0tIoxOsgXNtIhWvABWwDz7mPBv19+YyRCtcISKEcawZ/QXRtvn0G4Bo7p8LXujYUAYC/9uEzfG4i43PjI+gPzcrKyrz4WZ9BpJG6iQw2HtzIJYTnzJkTtYnF3P2b74UTGVZcmt305QX+pL9o0SLjeGAc0bbITWRcJ10L1xgLHiIYGv5gd0dso76uZS09Vf0kbW3bSotzTqZrC6+j49OON3CN3R0HNlwXHA8ilANTHCTXa9JVuK/KykoaO3ZsYLhLDMXS5qoO+s0rdXTjqTl07uwMLnWHdJYYU6YO9xITpevY4ChQ5xr9ufaFuuAADMnGO9jtMZZ/t0kX4Qh29auvUiM7iIT8fEo76SSahnSRfVtTh1nHME+g0TQ4CsAdrtW1wVHDSbvCNWzDwrXrBILrqq2tpaqqKpo5c6bTcwl9ACq4Th+TLvoD9CA67/qcoy84amjv6s8wlp07d5qdXafwhkcuvgzjgu0DVMZwtRzXhmcRmqEvHy+E6As25grX0Kycq/9A+1JO43LVDNrDzwL8XRvGAtvwZbO+fAY0W8cBhLy8PMrNzTXPlkuDjaHheXLx2egD2mMjDfhG1+bTZ8Dm1/B+CRO4shRsw+U6bSqlD58BjaAXnnVo5jIu3z4D+sPOpk+f7vycW58N/vExz1m4Rn+uDZwBv+Fqs7AL8A/82axZs6IeVsydv7o77PoZ28Lw8uXL6SQGHzgxV+cKIwUY+IAeO5aBE3hkXew3m1+npfVLGarDdFXuVXRZ/uWUG59rKooglcROZOgLPz40Qz/V1dWUz8AYdKLkFGuTEvLoymYqzgjR9YszKSmeQZ39Mh5ujMtVM1s+D/3YF5JoLcy+3OBao9mQZn9ONk8c7Tt2UB1DdtO2bRTP15nBCx8LeTOaVN6MJo6hto8fLClkA2IBF0H1H0oHC8TQC/fAxbnahxu/y/UlDjZfU1NjABvOFc+VS8N1YRL3ka6CcUB/2IUrXEMzjAv9uL4QAjR37dplHDUiZC6aWftHX64wAL2s/j5tFvbq+pxDM0Su0VdJSYmzZtALPkPyQj6UXQMuMFn6tFk8l65+Fpohcp2Tk2Pg2mXO9Okz7HwOwPYB6j59BjQHKI4bN848Ty4vJD59BvrC/IvxuNqs/UKO/lx9hg3iIQo7depU5+fcznM+fIa1WfwzGjaIfN592ixsDP6ioqLCfO2Ndi6Puee33w+7fhKxF7aUNwhZzKXUfEaufURh+3Ou+9NCBhPK1sXe1LaRHqt+lLY0b6H5mfPpptKbaf6YExmuectzzsWG6Hb7c9c3LWv0Qbc/t4aE5AVUB3mY86531nXSnVeUUl46Nmrpj9zhXvrQzGfk2nmiRKoIFj7yTxtHTbdwPnYCA3YjO4wYTOb7crLT90WyLYQEgUikJSAK6DpR4nf5/FzmMy3Ed861z0/s0N9XWsJITQuB/8H99JGWAP8FO0MAw/WF0Nqsr1SmkZoW4jty7dNnjNS0EEQBMQf4iPb7TsvRnOsgM9v7x/jOuYafBWe4BhgxwpGaFoIXm838xdxlbZfC9T4bRF1s7O7Y0tPCedhLzQ6PKON3ddE1dHnBlZRtKorwp8qebvogtj+PfJySE2Jpydomen5dI3370hKaXZJs4HokbyJj61xH+xaI6zdwzQ7/PU6lmczR6nrUyX7zTap/912KZ9goPuccKjj9dBpzzDGBvY8uaAwslTkQjhpwNxJzfkcLXAPufOX8oi9EJ10/8cI2RjJcwzf6eLnBdfr0GaMFrn36DIVruc9GKg3SAl3Tv3wHkUYyXG/iEsFOOdcauT7QUBHFRi72htYN9ETV41TespnmZc2nW0tvpePHzKWu7i5q7exPJXABxWgj1xhtYiiG1u5pN1VDLjw+my6fl2Wi2U1NzSaNwEfkGp/YEc318bkGkWsvcM3jwbj27NlDU/gTVwwWPvL/b+LcqCpOF6lbsYKSCwoo7+STqRR1sg+xGY296z4nytESufY5UWrkWjZR2sVhCtfBdfO5OEzhOrju9kjfL+QK17J74Dty7XOeU7ge5l5+2NNCBl4erichJoEaexppGVcTebrmr5QSl0KfKb6eLsrh3R37eAFWUpzJxY62ucA1SvI1tPXQH9+opcKMeLrjgiJ+IYihxlEE18iFBWhE5mSbOtnLllET5zEmFxZS/imnUNHZZ/dvRjNENRCFa5kF+54oFa5l+itcy/TC0QrXcs18p4X4fCFXuJbdT4VrmV44GmkhGrkOAP7D5VwP1QUqiqBt5Fzshysfou1t22hBxkK6ofAGmp9zAvX0ceWQ8NB1sQ81NBe4tiX5fv9aLdW0dNPdHy+ljOTQqIRrqzEgGxVGsK06crFr33rL1MtGM3WyGbIjc7I1ci13ODhD4Vqum++ca00Lkd0DhWuZXjha4Vqumc9SfD7Ldypcy++lwnUAzexq/UMtaDwkBHMuNnKvG7obzM6Oy+uWUXr8GLqS87CvyL9i3+6OXBeb/0iaC1zj9yRwagjyrt/e3kqfP6OATpiURnX1TaMmLcRGrgdqDsCO4VX4BrLXrzc52XXIyebySEXnnkuFyMmOqJGtkWuJ1Spcy9TqP1rhWq4aJjcAno/yhQrXcv0VruWaKVzLNdO0kGE0O9rSQga73P5c7Dhaz3WxH9n7MG3v2G4qitxYfBPNzzjB1MXu4aoiqKEdpLnCNbZC31zZQX/+Wx2dd2wWXbcol2rqGilplORcDwXX+7Xn8D52d+zlBZDY6RE52fXvvENJXPYwMie7kSusjOGSTu5byIyeaiE+P/FqWkgQb/H+MZoWItMLRytcyzVTuJZrpnAt10zhWuHaKICFjnHhOKptr6XX216jv/LmMwkc1b6GN565qvAqyg5lD7m740ER1n2byEhL8dl+mK2pvStMP15aSTOKkuhrFxZTXUP/JiajYUHjsHC9T6jInOwWrltpcrI5bSTEQF1w6qmUyduqj+VV1L7Kmun25zIHq3At00vhWqaXwrVcL5yhcC3XTeFarpnCtcL1fgVM0Xpex5iUmEQbuaKIqYvdtoVOyjiJri3+FC0Ys9DUxR5sd8dIGV0j14BrxMgfeKuOunrD9C/nFlIydVAoQeF6MHPdn5PNm6gArqu4VjZysxOys6kACx/PPJPSuQKJS/O5inok17nWyLXMSjQtRKYXjta0ELlmPn2GwrVcf4VruWYK1wrXB8A1FhsArpEq0tbbSi/Xv0RP1TxlKoxcU3Qt52N/gjJCY0xd7KHSRFzhGmkM2LH7rYo2enlTE91y2lg6rpCBOy5BI9eHsNf9Odm8sQdysiux8JFL+JmcbK6TPZZzsjN4J8NomsK1XDWNXMs008i1TC+NXMv10sh1dJopXMt1U7hWuD4Iru0WyyYXmzN2N7ZtoserHjN1sRfkLKRbS26lWelzuLoCKop0H6SgK1yjw1BcDG2r6aL/WV5lcq4vnsU5xrEK14Ee8X052Y1VVdS7dy/VvP461f7975SUl0f5vMtoCdfJTp8yJVBX9iCFa5Fc5mCFa5lmCtcyvRSu5XopXEenmcK1XDeFa4XrIeEaf4HdHRMYalEXe2ntEnqm9mnKjc+lz5RcT+fmnEdZoSzqCHeYRY+2eYFrzg1pbO81cH1saQpdtyCFMlJTuPZzyHmDm5G+iUzQnOvhHvdWXvCYxtufh7kyQWSdbORko072uEsvpVSuk42I93BN4Xo4hQ7+e4VrmWYK1zK9FK7leilcR6eZwrVcN4XrCM0AhXGoKbxvQR5ykEdDtRArAa4XaSE2ch1pTohio61rXctpIk/S1tatdErWqQzZn6Hj0o/bVxe7P4rtA65jGa67evrMTo2N7X30uVPSaGpxBhcFjFO4Dvic4+HGbptxvNujqZNtc7JfecXkZrOxUwnXyS7mMn5pEycesleF64CiRxymcC3TTOFappfCtVwvhevoNFO4luumcL1PM2yHDee+e/duwpbWhbwLnt0GHAsgli5dSov5kzq25kX5o2ibhXX8Ph+VL6LdRGaw8R8Krg0076uLXddTR0tqn6dlNS9Qeijd5GJfVnA552Jn9Odix4SNRtFWC7FjQ2rI6+Ut9MSqBvryGRl0yvRcTkPpv0/RNug/WiLXFq5ha+b+2TrZnJMNuK7mdJHGdevMwse8k06iwo99jDJmzBhUWoVrucUpXMs0U7iW6aVwLddL4To6zRSu5bopXAM6GLgQsX2TN+WAESUkJFBzc7OB6ZycHPPfFK7fN67+utixJor9eOXjVNG2leZnnUA3F99Mc8fMMwsdO3o6nOE6KRRLGyvb6dcv19In5qXQlQsKeKVjHOd6K1wHedQHwvX+cyLqZKOEXyXXya59+21KYlu3dbIHVhdRuA6i+IHHKFzLNFO4lumlcC3XS+E6Os0UruW6KVyzZkgF2cybcazjKN6ZXLYM9ZQB2vm8KQfyX1E6SeH6QOMCXGML9YaeBnqxbjk9XfNX3u0xgT5V9Gm6vOAKyorLpu17tlNBYUHUdZbjOXJd3dxD979VS6WZcfSPZxZRamIcp6AoXAd51IeE630nH1Ane/t2quQ62dhWPcSpJMjJLuWc7LQJE0zEu4lfNpN44xq8eLo2n2W16urqqLKS66EPEXGXjFW3P5eo1X+sluKTa6al+OSa+fQZWopPrr/CtVyzoxquv/e7H4QBysM1RK5f5egdIBtAjQe5oKCA8ri6gk3jWLJkCZ188smjOi1kMB0RxUa6SH9d7MdoS0s5zc2YS58uup7GtY2joqIi6uE/0TS+Labg9cOcd11R3U53f3w8FWTEcy62wnUQPYeDa9tHZJ3sZn7JrERONpfyA1QXnn22ycnu4+cBiyPjgvziYY5BWg4a0q5cG7Z4B1xPj7LE4MDfj2gzUr98NET707kMok3LcekTX9KwFsLHy82ePXtMwGDSpEkuQzLnIv0LdpaRkeHcFzrwrX8aL96FX3dtFfyFB/rDn7k2pB0C8GAbrg3R/qamphGp/0ZOPcMcms1pZ67Np8/AV2r052P7ed82u2bNGvNc+vCNeC7hL3z4DNgsXqTxPLk2BDHgz3z5jNWrV1NZWZkXP4tnCdojZde1gSPh+7H5mmuD9vDZPnwGfA+ezdmzZ0c9rJg7f3V3GA7xUA3wHM8Lvp555hlzw0tKSkzONSbtRYsWGciGSC+99BItWLDAGMRIy7nG9eEaXHKR0QeMHteGh1HSFzREHexWrou9vP4FWlK3hF9KYumyjMvo6vFXU14on9r72gNvnx55v5LjY2nZxhZauqGFvnlRAc0Ym+gM13gLh9EPtnBTYm32xQvO2ubnS86PPBbjwbiQpz6Bo8US/Yf6nbBbjCvQDo18D3FcDDuVMF8PNqGp5a83TatWUQJDQC5/0Sk64wxKA8TycWF+2HmQ4svF74DTR0tNTRWfH3kC+qqtraWamhoD12YTJIeG8+FcfcI1rtGHo4ZvwjMeJFhwKAlgZ7t27TI+Dl/lXDWD0weo+JgoYfN4IUFfgWx2mHuNvmD/0M2lQbOtW7f+f/beO8qq40of3Z1zzpEmNw0IJCQkkKyMckA5WMlB2fZ45uc0tmdm/dZ66y0/e/zPW++PN2+Nx/KMs2UJK1oyIEAiKIGEBYgmdNMNTecc7u3b4e2vuqu53XT3PXWrEA29i7kLjzi3bp3v7Nr11T5f7a38ItYHW8ywSAI3FwslfA/mkyubxeYGpNN2Q4jvf85vwbKzs5W00taf6cg1yJ1tXyAXeAYuyLXL8vOw+X379tEczuBke5/oC77Mhc/A3NGRa2Bmi79LnwH8YWeLFi2ynue4T1fyR+APn4154GKjBH+Njwubhe0fOXJEbUjCbRH/8n//23CoXRtuHk4O5BqA3M45gBHpQKQa//9ll12miPann35KFVxKGoulrXOFQ8Tv2jowAKOJvovoDCYN+guXDOi82Ef6j9C7ve/SQd/ntDB2ET2c9jBdnHyJeo6hqjtOfNjMrelY+xBtPjxAX5obTdctjOa0f+GaxIi+3jW5hj2A9Ng4HYwLkwcyBxymtelLo4P7xLiMicqoJnuAv9/PRCzADr+XyQXkItHsxBL4DU7K4sUsf+fMLWwv+HhtGn9cjx29zX1i/oAMwCFiQ2Kz6cV48BxBFF1EZ9AfSA/u0XZuAjOQC8xL2w0hxoJIPxY4EEUbzDAu9AO7tSUDwAu2gPuEjzW22QkGqDdxwMs28ADMcNAd+CPYYosZ8MIagPu0sX/t/zHPXdosyIDt2gTMjrHUDBslfGzWTJc+QwdEQLBd2KxLn4Gx4Q1Jfn6+tW/UPgPPwcXaBEKGe7UNIrn0GTorGeyspKTEep5rn6Gj/TZzUydOwN+265zmBi58hu4L/mxuiAxh063pKnLtJdIDp/kevwoHmNdzxgQMADIRLNrXcbQOzmvLli1jkWsbR6EIJi9IcF62iy76AuAYt210RpML9BdqQzIV6DjIyFsGlRe7d6iX/nriTXqndzMNMxt+KO9herDgIcqLzSPfkI/LqA96WkBRCr3bP8S66zbKSoqiH9zCGm4QoTAJtjZ64O/C6WChxGJr63R05PrkyZPK6G0mtn4+ICqY2OEulFqTHcn311JZSS1cVr2LI9qDjB0OPpbefbdK4QfSPcSL1bDHyLHLV7zY+DY1NanIhW2b6ZFrzMtQb+K8YAAbw2Jp41z177iMQs3UyDXutbq6WmGPja9tcykLOROyHBeRa2CEc0yIWs80WYjLyLVrn4FzXwgUuIh2YnMPbuOFA4WyafgLcAMXmzj0g7XJxdsu4H+AJYyLOdgTblAw+N4R7Qde4XKg4L5cykJc+gz0dfjwYbvItVfNNchHTU2NOsS4cuVKBexHH32kfhzRapBr0VyHmn7j/z1iKEJF/DsTOmhD8waq7D5IF6ZdSE8WP0Wr0y5VF/cP9YfsFLrraGbYv3qviZp7BulnD5RQemI0DQyGx67PBLl2saOEDYJ0Qg/rqoiMV811qIcAkt3NzjCW//bxPGliko3y6qhRj7Lq+EzMLjJdn5hPaC60aIhcQ0rjSnOtZQmhMPHy73DUWIzC3dwE/4ZL/aRrzTUWERevK3G/rvFHdNhFEMOl5hrkTkdOvdjRdNdgQ4LXzzMRf5eaa5c+A/4a/bmQ5bi2WWiu4f9d+EbMSwTdXBDF4LcttjYLQgx/5spmXWquMZeAvQuiHpzy1xaz4DeEtn050Vz/7IWfe4pc61eQlRydgx4RDQcxQK4BsmQLMX+cmEBtrW1UkFNAPUOsWW/bSm81jUhvHioYiWJnRWepvNhD/Ge6FhsdQW/tbaXdtX30jesKaPW8pLB110KuzZ/l2OsyjtzFQxbFb16gyW7mzWgrl1WP4sh14Q03UP6111L6smUhf8DlyX/JFhIS7tMuwCtB+DQs4rZNsoWYIyjZQswxc+kzJFuIOf6SLcQcs/M6W4hXcg3YQCBApGFEIIaIeGCHiyZFZMwNCxiC+OC1YExkDEVxVpHK3oP0WuOr9Hn3AVqRtoKeLn6WLkm9RB10nE6LjWIy+2o4Av5pF926IpMeXZtNvkB4h9eEXJs/y9O0aNxFFBPtQSZo3azFbkSebH7TE8fPOp9lVQVMslP5Nd1UzeVCKeTa/HkKuTbHDAcaIQspKioy//KEbwi5NofQpc8Qcm2Ov5Brc8yEXE/ATL/C1bpqfQBC8lybGVcwuQaG+AMtdtdgF73buo1e4bR9IN2PFTxBDxQ8oKLYvmGOYrMWe2KLYllIa2cP/eMmUtsAACAASURBVMe7bVRemEQ/uq2QBll0HUayCrWJmq0VGs2e4KmrpzrooTXZimSzJrWBM+p08YEcFqFTLhdgKr3nHkrmtFJI6RfcXC6UQq7Nn6qQa3PMhFybY4YsDngDjACLbXPpM4Rcmz8NIdfmmAm5DoGZkGtzo8I3JpJr3UtURBTnSo6igxzF/kvjBjrSe5jWZKxlkv2o0mIPcRR7ohY7EoS4r5de3N3N/xZB37s5nwrTYykQhu5ayLX58wx1inpcnmw+KNHIh4OVJpsb5CKFnCc7LSgPtcuFUsi1+fMUcm2OmZBrc8yEXJtjBv0w8lzbpinFL7tK34m+hFybP0sh10KuxxAAIYYUxjbd13TkGv+GKHYMR7F7BnrovfZt9Ebza0y3o+mB/Afp/vwHKDeOM4oMnsqLrdLH+Prow2N+2nm0j567No+uWJRMff3m0hAh1+ZOIhS51j2qNxTIt8421MnnF6DJboEmm09fF3Ce7ALOvJPOiev7WLMN3XaSgyIyQq7Nn6eQa3PMhFybYybk2hwzIddmmIGz4BAoEk+4OIToKs817kLItZDrL5xc6x8cyYsdSYf7DrEW+zU60L2fKlKW0jMlz9Ca9LWqOqPSYnPGkIC/j052Ef3HthZ6dE0WfZk/vZyizzRniJBrM+elNkOjhV885/8czZOt5CIsE2ncsYNaPvyQYjnfbR7LRdJZl53OzjAhRIEnLyMVcu0FpfHXCLk2x0zItTlmQq7NMRNybYaZkGszvHA1znwgeccFF1xg/uXRb0SYHGic6ldEFhIe/lPJQib2prXY3YPdKqPI6xzFTohMoPvzHqC78+6hgrgClVHE5+vh/NhR9Iv3WmllaQI9c00eQYs9ZJjwWsi1+fM0Jtd6AnLqvkg+JDzAk7mHE/03cK74do4yRHN5cWiyi1kukrJgAUFWEm4Tcm2OnJBrc8yEXJtjJuTaHDMh12aYCbk2w0vItUe8QHqQCgu5Tk1Llk/2E1+ULGSy30YUG0T7mK+a3mh6nT7t+pRWpKygp0qfoctSL1Wa60HmYBsPdFN9R4D+6cZ8mpMVS/4Bs9i1kGuPxhV0WbjkWncxpsnmg47drMlu2LmTOrhYAhsvFdx4o8qTjUh2OE3ItTlqQq7NMRNybY6ZkGtzzIRcm2Em5NoMLyHXHvE6n8g1bllHsXs4ir21bRu91fgmp/CLokeKH6U7Uu+gwpQ82lbVTht2t9K/rS+kS+cmU6+h7lrItUfjckiux0g2bwYjuUBTLxcQ6OQ82T18eKeZ5SJI66c02ZCLsCbbpAm5NkFr5Foh1+aYCbk2x0zItTlmQq7NMBNybYaXkGuPeJ1v5FrfNnJiRzOpruytpFcauLpjTyVdyplEvjXvWYrvXUz/37ZG+vLaNFp/UYZxSj4h1x6N6wyQa7WBYoLdxzIREOpYTtHXdeSI0mS3MsmOYU12zmWXUfGdd1LakiWeBirk2hNM4y4Scm2OmZBrc8yEXJtjJuTaDDMh12Z4Cbn2iNf5Sq4VCeM/cZFx1DHQQVtaN9PG1k0UHx1Ft6U+Qv7qq2hpdgE9d30GxcVyWmUD3bWQa4/GdSbJ9Wj580QuDQ7JCA4+9tTWUj1rsjtYk43odvbatVR2332UPHfutJpsIdfmz1PItTlmQq7NMRNybY6ZkGszzIRcm+El5NojXuczuT4VxeYkfRzJ/rT9U3q99VWqZk12hu8CujzqEfqP22+l7JRI6gn4PSI2EjmVIjKe4VIX2mqug39NRa5HyXVCQoI6LzBOk41INufJbt+3j2JSUiiHSXYB58qeSpMt5NrsWeJqIdfmmAm5NsdMyLU5ZkKuzTATcm2Gl5Brj3jNBnKto9jDfHDRx3/e7dxKm1rf5rzXUfSN8kfoH8sfpfz4XOob9HF1x9B5r4VcezSuLyByrcn12E9Bk4082XzwsevQIWrZvZua+PAjItnQYyNPdsaKFeNuQMi1+fMUcm2OmZBrc8yEXJtjJuTaDDMh12Z4Cbn2iNdsIdeAAyVrE2ISKDYmmt5v2k8bTr5CTUOHaXXuCvpRxfN0Xe7lSkrSP8TZU6bJfi3k2qNxnQ1yrX8zOE82p/BrQp7sDz5Qkexs1mSXQJM9ml2kraOD6uvqaIlHjfZ0dw9HjSICGRkZ5iBN8o329nZKZumLi+IGnZ2dKiNQPBfksW1Crs0RFHJtjpmQa3PMhFybYSbk2gwvIdce8Zpt5BokJZYjm35/JL35+UmqHNhJ9cnvqFLrz81/jJ5f+CiVJBaSf9BPA8ODk6Io5NqjcZ1Ncj3625CLIE/2oN8/osl+551Tmuw1a2je/feTjw9BNnd10WIuGWzbhFybI4hUoChnn865y20bJELYkKAvzFPbhr5QRjqGfYZtE3JtjqCQa3PMhFybYSbk2gwvZ+T6p7/892HbSI8uIrN582a6nAtfpPFiPsivrcNtur9IzpQAsogFJdymyTW+jwXEpi/0AUPFvbnKmd3W1kaZmZlOFkpEroFXVBTjxtht3NdNXb5huvbiLvpT3cv0cfM+WpW1nP516Tfpmpw1XGAmikuon67FFnJtbm1nWnMdakQR/Lz5wSu5SPfRo0qT3cGabP6vlMQkO+WKK6j86qsJ12E2DbMdh9Ng/4gQuyCK+H1EwXXk2mZuAv/gyLVNX/A7x48fV1W6FnABH9xzuE37H02ubcaFMeD7wAw+1pZc4/vB5NpmbMDsCJ8FiOMMN8XFxdaYAXv4s9TUVCufjXscGBhQZZaBmYsGzDAu3LNNw/cPHDhAOTk5lJWVZX2fsDE0bJZsnqVef3HuA5jZ9KXXTFc+A2MDuZ7Lh7jhN2zGhr66OOgAXgAOZNsX8IKtpfDbQ9u+gjfktn2Br+zjtQBvLm05EDALLn9uO7bg8ue2ffk5wISPC5+BZ3mIZZeo0BjuuCJ+8oufDoMo2jQ9GbdwJoM1vJDbkmuMBcYF5xNlUZlO3xMMHmN00RcWWnxcvMbWUUBXUShghntUmxIuJrOvzk+HGvrprpXZlJceoDcbttIrJzercukPFd9B3yhDFLuAtdh+GgyKYgMrGCn6cTEZMS5McFsHhvHA6BsaGmjOnDlhG32wraM/jMsFUUFfwMvFhhDEAs1oE8fPDfcRgQ0p22g3O4eOPXuokx1rNC+4matWUQYTbKXJBhFHcSVD4ghHg8OuWMBdNBAC6MptiYreEML+QfDCdYi4Jzw/kGvMAZBr2G+4TZM7kEVbMqDJNfBPTEx0YrPAH3jZ2izsHuQa9gpyDZ8bbtPrCfrAfdo8S03uMDdnms0Cc0SuQayzs7OtA1L6EDQwc7EhhA+yJerBNusCf/iJ/Vxcq7S0VM0nm/tEX7B/Fz4DNos5jvHgPm3G5dJnoC+svQe5ZsLChQudrOfADPPclhsAf/gyjNGWG2ifAV9ta7OaZ1RVVakNSbj+JwKRazhXmxYcuV7LmQtAFiVyHRpRTECXketgco2y5w2dAdpS2U0Xcin0W5exRnY4mg71VNP/HHuZ3q//hJZlLqIflX+Dbiq4kiOckWNabDxPOGoYmS1RcblQ6sl48uRJmscSh3CNPvjJuCR3rpyOdtQYZ9hOZ1STHcEEpbmykmo2baJhrvzIk52yV69WebLTly4dORzJdoiIt5cGm0W0x1UUEBEtkAEscLYbHERB4PBd+LNgzbWtnWFeYj4homLbMBZghr5s8cJY0Bc2N7ayEIwlWBZiixk2NsANBMqmYRywWcxNF/hjLIjcITrpYkOoZSF4e2nbQFTQMJ9sG4g1ngHu07a59hmIwpaVlTnZLLnyGcAI5BobQlubRV/oB8/Thc0Cf2xIysvLnQQF4f+xLtn6DNwn5iXmEXyQbXNps3iWh3m9XLZsWdjDivjZCz93JgvZxAs4ZCEzkVyfD+XPQz1lLQuBsUYyufYHhujlPW1UnBFHj67Ba8cIiomIoZ7BXnq7/l164diLNDA0SM8veJS+seBxKk0qVDKRQf7T1ztCrsMmd6OD1VFwOAsXO0o4nDo+nDd//nwn5BrOFYuRi4USfWFHbxRtnuSh6s0N/um0bCGhjGDCv0cx2WxnAtXC0f48/t8neY4ihR+02jn8lqn0nnsolSMaiGR7aVqW4FoW4uKtEpw+sLcl18ABNgYHi02cbYPtYxFxtSHRmmvbceH7IIqYly7exCHSA+wLCwuthwZiB382E8kd8HchywFIiChCFjLTyLXrDSHszJXP+Izz/GNeuthEzFRyjeCkKykTfDYwq+AD7i78rKsN+Uwm1/A/lRyUWm5YDTnY8Qm5NlwGsAvEYmkb0cXPoi+kScNrQRdRqGByrc86bTrQSX5O0ffgan71mBzNZHpYVXaMjuRXkp1H6L85iv1R06dKi/1Dzihyc8FVKqNIa3ebkGsD28Dzm5Hkmkkz3o50MMGexxKHASYs3UyCVJ5sdrhDbMv5nMKv+OabKY136aHsUA40GhjF6KVyoNEcs2DNtfm3x38DRAUbL1fkDvMJ5Np2Q45RyoFG86crBxrNMJMDjWZ44Wr4H5BraK7DbUKuDZE7V8g1bouD1/TZiT76O3/uvDCDLihOZKI9cjgLBDo2Mpb11n30+sl36A/HXmUt9gA9s+DL9K1FT1D6UAr1D/dTbLydflUi14YGhmczSREZ815GvoFIBcgAom04BDTIG7qxPNn82quZ0/fhg4wjRbfeSnnQZE+zWxdybf4khFybYybk2hyz4AON5t8e/w0EavSBRtu+XPsMIddmT0TItRleQq494gWigsVttslCFLFidt3Iuuu/fNJG11ek07qlqeRjqUhwQwQbkewDXYfpN1Ub6INmjmLnLKfvlj1JNxReybKQOCbk/dPmxZ7uUQi59mioQZedUXKttdWjmuwhfv3VjTzZ27dTO+vyQLwzV66k4vXrJyXZrhdKyXNtZh+Sis8ML1wtkWtzzIRcm2MWnC3E/Nvjv6Ez3Lh42yLk2vxpSOTaA2aznVz3+gfplU/bqSw7nu66KJ1ioiK4SuN44IBRXEQsdbMW+426d+jXLBWBNvv5hY/R1+bfR3MSilV1x+CMIh6gV5cIufaK1KnrvhByPfpzSM0XwYQaJLv3xAlq4DzZbZzqChrsXC5GA012CmuyQbrRhFybP0+JXJtjJpFrc8wkcm2OWXAqPvNvj/+GkGtzBINT8Zl/e/w3glPx2fYl5NoDgrOZXEMWAo319kPd1O4bpIcvzaK81BgKDE6eNzw6IpqlJJFU2X2UflO9gas8fkIXZ11AP6h4lm7Kv5Ki+N+Qts+kCbk2QWvk2i+SXOvRqTzZ+PDhF6XJRiR7714a4rc+0GQX3XLLWCTb5YE6iVyb2YdErs3wwtUSuTbHTCLX5pgJuTbHTMh1CMx0ujXJFmJmXGfyQKMeSTQz7P0n++i9Q130+NocqihMIN+o7nqy0UKLHR8dR83dLfRWw7tcQv1tFbV+cv6D9M2FT1BZUtFIRpFhb4U1hFyb2cTZItdjo+S3GDo9Xxdrsls+/JCa339fZRfJv/ZayrvuOorhSHaag7Ry+E0h12b2IeTaDC8h1+Z44RtCrs1xE3JtjpmQayHXYwicSwcaMWjIQE6099Mbf++gm5el09qFyXyobRgByimbSmLvD1Ack+wj/hqlxd7VuIcuzV1J3y1/im7kKHZwXuzpzEPItbnDORuR69NGqTXZyC7CmuzmnTupadcuiuK0bVlc7bGUs4tMd/DR610LufaK1Mh1Qq7N8BJybY6XkOvwMBNybY6bkGsh1+csucahxm7WXW/jyHVGYjSt56wh8TGRimBP1XQRE2SaSIlLpq6BHtrcuIP+UPMqtQc66dl5j6qMIqju6FNa7Kmj2EKuzR3OjCDXo8Mep8nmqoUN27ZRB6coGmLSnXPppTTn3nvHabJN71bItRliQq7N8BJybY6XkOvwMBNybY6bkGsh1+csuUa+a9Bo6K7rOIL99NW5lMkkO+CBXCOPK4pycEF1lRe7suso/ar6z/Rh415anbOSfrz0G7Qu7wp10LF/aPIS0UKuzR3OTCLXevSKZPNmaxAVHw8coG4uq67yZHM+0HyWiiCNX0YYOUGFXJvZh5BrM7yEXJvjJeQ6PMyEXJvjJuRayPU5S64x8LjoCNpT20cfHO2mxy/PoQV5cXzIh6UhUzxXHbnW5FqXMo5DXuwhP+fF3ky/q/qLkoZ8q/yr9PS8Byk3PksddhyaEMUWcm3ucGYiudZ3McR6Ih9HrZNZHtJ55Ai1IE82a7KRXST/mmuogA8/Zq1a5fmmhVx7hkpdKOTaDC8h1+Z4CbkODzMh1+a4CbkWcn1Ok2voro+19tO7lV102fxkunpxiiLWU+mupyLXAEHnxd7XUUn/XfUSfdKxny7LupB+XPENujrnMoUTotiaugu5Nnc4M5pccxEalKBPTkmhKC51DXmIypPNmuxm1mRHcyn5rEsuoRLkyfYQyRZybWYfQq7N8BJybY6XkOvwMBNybY6bkGsh1+c0uUZKvl4uHvP2vk5KT4yix9Zko0RjWOQaQCCjCKLY0GK/WreRflvzF4XPtxdyFHv+w0qLjSj2AMtFIlmXgvyTSIqfxNFOHQU3n4bIFBepiF1dXR3Nnz/fqi/9+5jciUwIbUsZz/Ty52MVGnURmXAeAH8HB3oVuU5OVj2MabKZZPeyJrtx61Zq/fRTiuZnnc15sgtvuonSysvH8mRP/Fkh12YPQsi1GV5Crs3xEnIdHmZCrs1xE3It5PqcJtfMo/mtfQT9bX8HtfUM0VNX5VBKfORpxWT0TU4XuQ42hZG82BH0eedheqH6Rfqk+QBdlnMhfa/iKboh76oRYj3UL+Ta0OecE5HrUXI9ZjPIkc3SkIjRPNlNLBdp52I0gc5OJRVRebIRycYhgKAm5NrMOIRcm+El5NocLyHX4WEm5NocNyHXQq7PaXKNwUMasrumlw5wzus7OWMI8l0PTFFMxiu5VpFL5MWOiqPOQDe9Wb+F/nDsNS5cE6AnFzxE3+K82KWcF7ujt5P8Ab9Erj36nnORXI/dWnCebGiyR/Nkg1TnX301FaxbR1kXXzx2uZBrj0YxepmQazO8hFyb4yXkOjzMhFyb4ybkWsj1OU+ukZKvriNA73zeSZeUJdHNy9PIPzD5kUYTcq2BgRY7hiPZB7oO02/5sOOupj20PGsx/Yi12NdnrmU9wTBFJ8QqWUG4TWQh5sghnWJbW5sq1jJ37lxVrc6mTZSFTNUXbChyVJPdU1urNNnIkx0dH6/Idcmdd1LGihXU0ddHySzLibIZ1Oh3OzlKjuw28fwbtu0El4JHCVzIj2yblD83R1DKn5tjJuXPzTGT8ufmmHV0dFBCQoLytbZNyLWQ63OeXONtfIDJ9Eu726goI5YeW5vFua5H0vRNbOGQa/ShtNhRsdQ90Esb69/jtH0vko+zizxefA/9w4Kv0JKsBaq6Y2B4QF1r2oRcmyIGpcbZIdd6pEqTHR2tyqj3MmFtYE12G2uyYWNZq1dTFstF8leupOhRR43IrLKMCfIRL3cu5NoLSuOvwaYLZyFiYmLMvzzhG0ePHqU43lAVFRVZ9+WSXOO8Bxbx9PR063GhA2xW09LSrM9poK/PP/+ccnJyKCsry3psM5VcY0OPuZmRkWF9j+jg7yw3Q6BAn/uw6XSmkmuXG3IERD7jtKkVFRUUzb7Yts0Gco23EIcOHaILPBzKnwrPiJ/84qfDtjsQXf58y5YttHbtWkrl0sg2ETL0B+MCmXJx0AzOFQ2GZXOgDn3g+7g3F0YKo4ehwunjnm0bMMO4JutLd7/9cC/1Mcm+58JUdbhxsnTXOsMHsMei6xUzRYxQ2S8iiqL5c6i7in53/FX6qP3vdFH6Unqei8/cnnc9/3skp/TzGRNsLZdoaGigsrIyz+OaDlcczsMu3BZ/fB99AS8TzCYbm8Yf/way4hX/qfrCwgY7mzNnjtW8RP+wWRAfHAI1aiDZ/MG99FRXUyun7+vev58imFRnM8nOZslIyvLl6iDkIPfPP2TUPTADucBmApFrG8wwh47z4UwcxF2wYIHyReE27cuAWQpnWLEZl/Y/uE8QYhc2C9IJG7O1WXz/8OHDqq/i4mJ1gDnc5jLDEMYAf425CfxdNFeHoGFnBzhnPIg1CLbtmglCgAZ/ZmNnej1HCXQQWJu+tM8IPgRt8wywJu3bt49KS0vV87R5E+rSZ+i1CeOxPbjv0megL9gVNnGLFi2ynufoDxsSzHPwRhvb0Gsmnqmtz9Y+A77a1mZ1EK+qqkptSMK9x4if/vLfnZHrd955h9asWaPIoo2jwOSDc8ZNYrEM9+b0JMZY0IcLQox+MDZbw9JOB1GQzMxM64US/U1HrvHvOGB4qNFHn3DO65uXp9KK4gTycRaRiU07V/wd7qKL78ZGxqgo9dam91Xxmfb+Dnq8lKPYi75KC5LncEYR32l5sadzvNqB1dfXq8iFrV3gt+D0MbFdbOJckmuQMTRbp4P5g+gkPtiQ2M7LsMm1frCQi4xGT3w1NdT40UfUxkQbxWkyL7+cCm+4QZFtFKwZxrw1INkgnbBX22ABbCFYFmKzgGtfBuLjgtzB5rG4oS9bco2xoS+QMVvfCMyCI9e2mAVnGLIhY9rPwjZc4I/+sFnFAm7rM/B9HbnGGmDrz4LJtS1mWEvwDFxEh7XNIuhm22DzINfwZbYkFmNx5TPQl0ubdbkhxFzEJm7x4sXW8xz3ic0l1iVbn6HXX02ubW3Dlc3qN/cIFixdujTsYUX87IWfD9tqFDUZ27RpE13OC6QtuQbYMFQdObVx1OgDO3BMcOy2bPrSjhrkGpi56Ku1tVVFLlwslLhPGPxUTj+KsWjs7Ke/fNJG11ek0w3L0qYk13DUIGa2mwhosYeZwFd2HqWXG/9GW0/uoiUZC+hfKr5Ftxdex3mzo8g/yM9nypI2p2xbZCHm8/xsy0KmHDFINkc+Otn+h1taqBUHH1mXjdzZmVyEpuSuu5Qm26SBKMJeMc9tG9I9YoMzb948267UZhyLOKQELho2Sq4kDnijAZLiYqFEpAfYFxYWWt8m/D/8mQtCDD8N23CJP/py4bMPHjyootYg17YNm3s047dKk/wwiArWABeEGGuvfkNre4/4PiQOmJcu7hNEERtyFz4D/gJz3cWGBOQaY3Nhs8Bfy0KwHtg2bC6xIXchJYNfxLqO/mwb/AX8hgufgX4qKytpOb9NDbfNSHKtyTpAt5Vy6FcsMDBbohhMrm1f1+u+vlhyzdIF/yC9spejmFnxdNdF6SqLyERpiN65TazQGI6RKfz7Wa7CR9aGYzgdYP02+tWxl6gn0EtPzXuI/mHxV2hB0hzq5Sg28mJPJ44Rcm3+BGYsuR69lR4mBIkchY3k+Yk82Q3btlHb3r0qYp3NxWhK77uP0jjiAiIeqonmOhRCp//7bNBcg6iAXLvakIjm2szOtPzRpeYa5BqbQts2UzXXLs8JiOba3EqwUQK5ttJcz8TItZBrc2PAN0JFrlFMZoCZ9PbD3dTeO0gPXZpFBWkx1D8hJZ9rco1xYYFLSUxWeusj3TX039Uv0c7G3bQiYwn989Ln6LaCa1i2EqUOPE7VhFyb28VMJ9eIzqgoCPR70GUjTzYqPu7YQW2ffEIBjp4VXHcdldxxB6UtWaLkIlM1Idfm9iHk2hwzIddmmAm5NsMLVwu5NscM0WZ8XLxtEXLtAX+JXI8HKZoZNnJdv3uoizOG5NBSznftGxivuz5T5FoftEFe7L7BPnq7/l36XfUr1DPQR19f8KCq8FiaVKgI9iBHsSc2IdceDH7CJecKuR57QzWaJxvlQ7s4+0QLF6Np2b17RC5y4YVKk40sI5M1Idfm9iHk2hwzIddmmAm5NsNLyLU5XviGkGsPuEnk2gNIk1wSKnKNr0AGUtceoNdZGrJuaRp9aRGfuGYiw/831s40ucYPIaNIHB94PNh1lH5TvYF2cBT70twV9P0lz9J1uZernNmo7hisxRZybW4X5xy51reIrDMczUYKvx5O4dfMObIbt29XJDvroouoZP16yuAUfshAopuQa3P7EHJtjpmQazPMhFyb4SXk2hwvIdceMRNy7RGoCZd5IdcoJtPlG6RNBzopOyWa7lmVSfExkZzz+hS7/iLINYau82L3cF7sTQ076I+1r1ErZxR5ct6D9I2Fj6uMIjjsOMAZR9CEXJvbxTlLrkdvNThPdt/Jk2N5spFJJAua7HvvpfTyclWwpgvZQkZT8ZkjNf4bUkTGHMGZmudaNNfmzxJrCQ40ujhQJ+TaHH+RhZhjJpFrD5gJufYA0iSXeCHXOt/1e4e66UR7Pz19dS5lJUZT4CyQa30LiGLHcBS7kqPYv65+WVV3XJq+iH5Q8SzdWXg9ZxSJVlIRIdfmdnGuk+uxQDYi1EyclSabU/g1cRQbxWgGmFDnXXMNldx+O0VyHu9ELlRhXw6FxqXiM0d9/DdcFoSQ8ufmT0PItTlmQq7NMZPy5+aYSYXGEJi5TsUn5NrcSPENL+Qa18VFR9AeznX9wdFu+uqXcmhuThwNBB1q/KIi1xPvMi4yVklB3m54l35f9Qq1BTrp2UVfpmfnP0oLOYrtG+6n7p5uQpo0lKW2zQuL33dVEAKYoS9kpLHNSqPzeWN8tgUhzhdyPWYrQZrsbk791sIp/FBWXUWyuRBN0Y03Ui6XV7dtErk2R1Ai1+aYzYYKjRK5NrcLiVybYyaRaw+YCbn2AFKYkWt8LZp11yc7ArSdDzVeNCeJrlrMleP4v2vd9dki12psnPc6JoKrvXUfoz/XvkHvNO1kYj2XflzxTVpfvI78fX6qPn6M5s2fJ+Tag5mcd+Ra37PWZHNeWaTwQ3aRVk7hh1SO6cuWKU12JmuzgzXZHuAau0TItQlaI9cKuTbHTMi1OWYofy6p+LzjJqn4vGOlr5RsIR4wk2whp4OElHx9gWHauJ8LSMRF0qOqlwAAIABJREFU0eOXZ3MaPK44PSq7PpvkGqNVWmyOYvuG/KzFfo9eqH6ROgM9Sof9ZPH9FNMWQUXzuMTy0OkZRTyYxLhLJHJthhgctatSxvhlnYov3Hz2WpPNuR6pFdlFWC7SxRXccBAyiyPYKk82p/DDQUiTJuTaBC0h1+ZojXxDyLU5ckKuzTATcm2GF64Wcu0BMyHXp4OE6F4UR6837u+klu4BpbtOiY+cMeRajxha7Gj+VPXUKoK9q3EPXZhaQd8oeoQeWn6XyiSCA482Tci1GXozjVzr0UeyHruHD2CBpA80NqrMIsiTPcBSndyrrqLiW29Vqfymy5MdjISQazO7wNUSuTbHTMi1OWZCrs0wE3JthpeQa494CbmeHCik5Puktpf21fXRnSszqKIoYUx3fbYj1xNHjLzYvZwL+6/1Wzkv9quq7PAT8+6hby14gooS86fMi+3FRIRce0Hp1DUzlVzDJlBKN5pLGSckJ6sKj93V1dSMsuqsyR5i+Ujel75EBevWUc6aNSFvWsh1SIhOu0DItTlmQq7NMRNybYaZkGszvIRce8RLyPXkQCElH3TXmz/vpEvKkujm5WnkHxjRhcw0co1RxXAEOzYqhva1VdL/u//XdMB/lKs7VtC/LP0m3ZD3JRXhnpgX24uJCLn2gtI5RK45ch3HEhDYjMqTrTXZTLChy0YZ9VyQbK76OF0kW8i1mV1I5NocL3xDyLU5bkKuzTATcm2Gl5Brj3gJuZ4cKKTkCzCZfnlPGxWkx9Jja7JpCEILZiUzjVzrO4hCOjbWilfX19BnUUfoV9V/VlHr5zibyPMLHqH5yCgSlBfbi4kIufaC0jlIrkdP52pN9jCTbJUn+733qPPzzynQ2akOPM7hPNlpS5eepskWcm1mF0KuzfESch0eZkKuzXATcm2Gl5Brj3gJuZ6aXONfELnu7R+mB1dnUm5KDB8SHJ6x5BrPEul22lvbaU5xKR3s5LzYxzbQrobdtDxjscqLfUfR9Vz9EXmxfZ4sRMi1J5jGLprxshAduQ4uOcqjV1lDdJ7s2lpq2rlTabJBsvO0JhvZRfgaNCHXZnYh5NocLyHX4WEm5NoMNyHXZngJufaIl5DrKcg1CAdHr/ed9NGnrL2+Y2U6XViSRL6BoRlPrltaWqiwsJBiI5AX26/yYv+O82J3DHTR43Pvpm8v+hotSpmrCPbg8NC0liLk2uNEGr3sXCXXY3cZnCebNdktH3+s5CLILjKmyV67lk42N1NvVxfNnzvXDKBJrpYiMuYQ4rQ+8vanpqaaf3nCN6SIjDmEUkTGHDMpImOOmRSRCYGZFJExNyp8A0SltbWVsrKyFKG1bV6LyOjfge66ibOFbNjdRtcuSaWblqVxir5zh1yjiAyqN8ZwpBp5sX9/7FXaWr+L5qeX0o+XfJPuKr5xLKXfVAVnhFybWd05T6717Y7myUbxGZUne1STjch1LpdVj+BPEstFyoRcezYQOdDoGaqxC0VzbY6ZRK7NMJPItRleziLX/9d//WwYFeVsmibXW7ZsoTV8Ej8tLY3Tzoafg1hHm1HuGh+bhr5Q7QjkKoYzCdhW9cP30R/6sm0w+vb2dsrgks0uyDUiZEhF5rWvKIYW+a7/+lkXlWTF0h0XpBL+GwtDlPwC2Ntipp8l7lUdNJvwut4EQy0LaWtto/yCfNUX/rCVUCzyYnOkGkVnfl27QR1ufKT0Tnpq7sO0JHmBypk9MDRw2s8hZzOqIHrFbKrx4vvoC3i5wAz4o9lihmfY0dGhPnO4PLjNvNQbQkQVExMTTR7dlNcCs/j4eCfzHJEjFM0xqZAJuUgkzxkcfOyrr6dmTuHXwcVohvh5Zq5aRcU330zJFRUUyxHUQY6kgoybNG3/GBuisDb2j9/F97EhTOaMKC5stouj88Df1mbhdw4fPqzstaSkRPnIcJue5/BnuE9bzGDzsLOUlJRwhzTue8AsKSnJ2maB2f79+yk7O5tycnKs5qb2Pxgo5qYNZno9hw8CZjZ9aZ+BTD4u8Ic/++yzz5QvQ39YV8JtuE/MJTwHzAGb+0RfmOOwNVubdekz0BfGdODAAVq8eLH1PEd/sH/McxM/O9kz0hme8ExtKxFrn4EAo63NYjzwFwgWLOUAS7h2ETETyTUeBJyzC3KNvmBcKsrJk8i2nU/kGsFyFI75uKaPmroCdM9FaZSfCt31SCl1GKztouuaXGNciPbn54+Q6+CGjCHIjV3X30gvnXiL3jq5lcrii+l7i5+iu4tupPioeOod7Bv3HThEOFYXRAV9wcZcYDZTyTUwB7mGM3TRgBkctYtNdDjkWt/DmCab/0OASXY9a7Jb9uyhCF5IUi+7jApvukkVpYlmsjfI94+Tv16crt7cY2y2Tl+TaxAVkDsXNgtyAfsPt4iPxg+bmiouR48Ft6ioyJoowv6xBuA+veA8nS2eibctILC2NgvMDh48qN5c4mNLFGFjaC6ICjY2eAa2RDHYZtGXbQPm+7hIFMg1+rPFDCQKz8E2iIG5CL+I8bjY3MD2XfgMTa7xhmTRokVO1ib4DODlYp3DPWKMLjY34AawW1ufARvDuECuKziwEq7/ifjZCz8fxo3ZNJGFhIfe2ZaFgFxDGnKgzkfbKlmvfEUOLS2Mp34OzsG4YGQunA6cNDY4LpwO+mpmPSwW8KmMXlV35CwiWxvfp99W/4Ua/E30KGuxv1v+NC3iUuqIYg8Oj0QgRRZiZrtngqiADNiSOx0FQT9WNsuTIpoXjsaGBmo7dIgS+O96zjAyxI4794orRvJksybbpGGhBCHGGz0XDW+70tPTXXSl3mhgMXIReAC5BvY4D2HbMM91FMq2L9gsom0u8Udftpsb3BfINaLWmZmZtrepom1oLt4qgaToty22A4Ofhp25sllErlH+3MV9wv+DJMJubRvINea6i00E1kuMzYXNAn9gBqKIjYRt6+RD4PDZLt7ewy/qyLXtuOAv9NsW277QT2VlJS1fvjzsroRcG0IHR40JZLWAj/7m2SbXGAaKydS1B+iNv7ez7jqNrlrMrwH5v/f1+ZTRu3j1A6OHs3ARUYHR6wON0+0ooyJ4YxAZR1W9NarwzOb6HTQ/bQ79C2ux1xffMKLFZgLe1d2lnLRtFEq/YgReLjBzFYWCM21ra1Pyo7msH3YhC5lJ5c/19HVGrrlDYNbApHqAiXYpb+I6jx2jpvffpyYm2cg4krliBZWsX68i2V4qPsqBRkMny5fLgUZzzEBU0LBZsm1yoNEcQTnQaI6ZHGgMgZlErs2NCt+YCeQakesu36BKyZeZHE33rsqkhFguJd07Erl2QRTPBrkGvhH8B1ps/5CPtnAU+7+q/0jt/k762rwH6NuLv6qi2C0drRSbECvk2qMJn/eR6yByDbudU1ZGeMeh8mSzXKSRCXbL7t0qko0iNHMfeohSy8tPy5MdDKeQa4/GFXSZkGtzzIRcm2OGNxqIwNq+vccvC7k2x1/ItZDrMQTOt8i1TlKy/XA31bb10zNX5VI257vu6jn3ybV+aIhig2Qf7a6h39T8hbbVv09L0hbSDzkv9nVpayg1OZX6h3EAa7yG28RVSOTaBK1T18K5zihZyARyXVpaqt5UKU02f1SEnLOLNLMmu5VJ9jD//1lMsgtuuEFFsiMnOegs5NrcNoRcm2Mm5NocMyHX5phB4gOfbZsIA78s5FrI9XlLrnFjcdERnOu6j3Yd7aZH12bT4vwE6j4PItcTzRZSkMBwgDY2bKffVG2gtv4O+sqc++ifKr5G81R1x1NabFOXI+TaFLGR688Vcj12d8iTjYPRINksF2nlQjSN776rDjnmXH45FTLJzuW/VRL50Sbk2tw2hFybYybk2hwzIdfmmAm59oaZaK694XRek+to1l0fb+2nrZXdtHpuIl1XwfmuWXONaN25LAuZ7NEio0hMZAwd4bzYf6h5jbY1fUALUubQD5c8R3cUruOMInGKZCPFn0kTcm2C1qlrzzlyrYc+midbpfA7cYKaP/xQSUZAqsdpspmIQ1bS5egQIs4Z6AONLg7UoS9odF0cTpI81+ZzQPJcm2Mmea7NMJM812Z44Wps7nGg8YILLjD/8ug3hFwbQne+yUJw+yy7Vvmu397XQSnxUfQEZw3x+5lcQ07BB/TCTUWDvrUe/4s+0DjdYz2lxfbTm7Vb6Hd1r1B7fyc9VnY3/dPir9GSlIUqT3aApSJeS/sIuTacSKOXn7PkWjtQSEWYQCtNNh+CBMFu5aqPg3zwNnPlSppz//2UxJrsAM+jFMt6AvhJIdfmdiYVGs0xkwON5piJ5tocM5GFhMBMDjSaGxW+MRMONCoCzB9Er/+2v5NauGLjs9fkUTT18z+cn+RaPy1osQO+ADUNt9Jva16hd07upPkcxf7XZd/iKPb1Kordx4VpvDQh115QOv2ac51c6zsK1mT3ciS7CZpszpPdz5laslgmksvFaIouvXRSTbYJckKuTdAauVbItTlmQq7NMRNybY6ZkGsh12MInI+Ra9wcyPX+uj71uXVFBs3NjOACM5xt4zyMXAebMxxiWlKqilJvadxFf6p5nRr6W+i+4pvp++XP0qIUzovtQYst5NrcseIb5wu5Hrv7YE12TQ21sFwEkhHIRTI4Z6rSZHO+7GBNtglyQq5N0BJybY7WyDeEXJsjJ+TaHDMh10Kuz3tyjZR8qNK46UAnrZyTTNctiuNKjbODXKsKdZFcNpsj1bW9J1ThmY0nt6u82P+29B/oTo5iQ6ftH+Ty11NosYVcmzvW85JcaxhAsiEDQTEIjmSf5LLqnR98oKwng3V8Kk/2JZeMHI40aEKuDcAavVQi1+aYCbk2x0zItTlmQq6FXJ/35BrJDQYGh+nlPW2UnxZH91+UPFL+fBZErnX58xEtdgz1s976HY5i/2fVH6izv4ueW/CoyotdlljMUWyuwjVa3TF4Wgi5Nnes5zW5HoUjkovODPAhxD4u8BHNFfQaOLOI0mTzgRloskvvu48yli2jKI/l5IVcm9uZkGtzzIRcm2Mm5NocMyHXQq5nBbnGTb7zeRf19A/R+hVJVJDGxVWiz78DjcHmDIeoybX+7zov9mHOKPI/x16iHY0f0yXZK+ifFn1NabFBpCEVEXJt7kwnfuO8k4VMuEHYClLx+bnoTMpo+XOlyd61S+XJhiYbKfyKb7uNsi66iCJDlGEWcm1uc0KuzTETcm2OmZBrc8yEXE+CGUoEw9FDgywHGs2NCt+YKQca9egjmQgcOOmjPbW9dEN5HK0qS6XhSM6EwM853DYTs4WEItf635EX2z/cr0qnv1D9IvUGfPTEvHvo20yy5yWXKJnI4GgUWyLX4VnIbCHXSO2UkpKiZCFjebJZk40odiNLRgY5qp133XVUwJ/s1aunLKsu5NrczoRcm2Mm5NocMyHX5pgJuZ6AWTTrBKurq9V/LS4uVqWj/Zx6atOmTXQ5R2HS09PVCe1wmyZk6Be/ZUvuEDlCH7aH8zQhRsW2OI4w2YxrJpJr6K6bOVvIhj3ttGZuLN1yQQYNRdjjf7bKn3uxv8ki18Hfi+b7j+ENxuHuaqXFfrfxQ1qUNpf+peKbdHvRdRQXOZIXGylX4ChgY7Z2BvvHuNBQCcvGzrAJbuPoKPIZz50712peapvtZSKYnJzsBd6Q18w6cq03qkGa7N6TJ6kZkWzOLjLEvip10SIqvftuymKSPVGTLeQ6pEmddoGQa3PMhFybYybk2hwzIddBmKHYQFNTE7322mu0YMECWrNmjYpcC7k2N6yZFrkGue7tH6TX93ZQXkok3bMqkxLjY2hwaHZGrvUThRYbUWzfkE9Vd/yfYy9Tm5+rO869T2mxK1IW8L/1U1tXG8XFxgm5NpgKs5Zcj2KEFH4qTzYHI3yNjaraY8uoJhsHH+ewJjuds4xEJyaqbwi5NjCu0UuFXJtjJuTaHDMh1+aYCbkexQxRMJDoD/jUO6rXLOODOJfwiXch1+ZGNRMj1ygmAyK940gPZw7pp4cvzaKizDjqH5jd5Fo/XVR3jOYo9rGeE/SbYxtoS/0uWpQ6l76z5Em6r+RWGuobpIGoQSHXBtNhtpPrsQ0ck2x+Bah8qYpkc57sFtZk+1tbKXftWiq65RYlF0EGkvaODkpLTVXX2jap0GiOIN4EpbF+Hm9WbZtUaDRHUCo0mmEmFRrN8MLVzio04tXzdA3REjhyOJPd7PAhs4A0Av/tUhRG4P/ez6R746gsJCMjw+r182yShbS0tFB2draThRLRBshobJx+FK8XB+t9tIUPNj52eTYtK0ok/8CQuXXqyBzbiGtZSHNzMxUVFVnJJfQNhZKFTHbjkIIgowjyYkMqUudroAfLbqfnix6hC3OWcdJwosDQgBVmIgsxgw8+owcZOdj+bSVbCCI0cLVF2G1paanydeE2faBxTHMd6vyCzpPNPrUHmmz2t6j6CE12Nr8lzL/+eorjiHZGZma4Qxr3vQ4m6ih/DtxsW1VVlcK+sLDQtisVxAH+0KnbNpCLrq4uRYhdNGxI0JeLzc3BgwcpJyeHMh08T8i10BJH33LY3CvWePigVN7E2TbwB9gZ5KIu2meffUbz5s1zcp/Y3ONtPOzWtmGOw1e4kMzhbQvG5sJmgT8wq6ioIPg229bZ2ankisDNtsFng6+E4qBefgf+An7Dhc9APwggL+e3huG2iP/jP/7P4VCGBSeCa05yRGXfvn20bt06+pALI8BpQRaiDWHHjh20atUqdXP4t3BbMLm2NQa9uGEsMAYb/Sr6wH3hfl0YlutXvC7IdQwXk2noHKS/Heylqxcm0uqyOC4mw9mdwwxea/yBmy3p0XaBxS03N9f6WeJ5+tkhxrJtmy6UURzFjouKperu4/TnE2/SttYPaWFqGX174VfoluyrKTEigaUifsZu5MCvSVPZSHhcaMhkYmOzcFxwhvjgfITNvNT2j0UXhMxFg3PFPbqY5yAXIIm2mndghk0v5hOIos35EWCEBRfOGouup2eJyTaqyYZcBJHsto8+ok7+4P7SL76Y8vngY8LSpRQ5qskfHj1XYvJMYGfBC6WnsU3xAxgXyDWwx8bXdkMCvEDwPGM2xbhwj3p9ckEU8TPADOOyCWKgH2CGBRzEOisry8rO1BuPUXKNuWkzz7Wf1UTFxi5wn/g+Njcu8AfmiPaXlJQoH2Rzn+gL48JzsPWz2mfD7l3wH/SD5wnMbPDHuIAR7AwyXhdn2GD/wMuFn9WyENuzRVo9oTfktpjB9uHPysvLw8Y/4t/+n/89HIoo4oHgmrfeeksZ9CI+cLN3715FGi5mR4/IaxsTnt2sFYRUxNboNSGD8ds6MPSlHb2tYWlHAWftItKjnQ4moykBm2wtwX2CpNj0hch1X4Doo+MDlMjBrHWLYyk+BtUaTZbtU9eeCXINh4jFyGYC6RFiEsFJmGIGOECZVUaRoQB95jtIf258i6o7j9P1qWvoW2WP0/K0co5gBzjKzYAaNO0o8BXbDQnsAXjBiRUUFFgt4Nr+QfxdRBrQH4g67lFnHzKAadylenFDP7abaH0IFOQuLy/PmihiXqKvcBaQYE02szrq5+BG+/79FGDyP8QkNo0rPmZdeCHFMUEb5M3AsEGUHZjBLlQRJcuD48Ds+PHjCntgZrMh0fYP3LCW2M5zkAvXh3ARHbZdm4AZEgMgOomorg1RBGau3nZpn220IZxm4uL5YRPtIqKLsR09elT5snDmU/AwXb7t0v4HzxC2YWOzmrPAz7rYXGJMIIpz5syxnufaZ8Bn2/pZvSHE3y6eJYg1/Kytz9D+B/4Mb0jCbRE/e+Hnw3Cu0zU4kb4+H+3fv085KTiF2tpaZUAXcW7WxYsXq8jMxo0bJVuIwZOYaQcaMXQEWXGAb/vhLqpp66dnrs6lrKRoCnCBmXCajoJgsXUxgWBniCoiomjjwPS9hCMLmYgD8mLHcXXHQ21V9Oe6N2lT4w4qSyqm71c8Qw+V3MH/FkN9nFHE63hdLpSSLcTcas+qLGSK4YJkQ5ONCdpy+DD1fPoptX3yCfl5LuTw20OVJxsVH1EV0qDhLRAWcBfBApAeLLqIXNs2EAssli6infCziLa5kiVAc42+TDfkk2EyUzXXIClY613JEmBnkIu6aK411wiuhHp772XcsFng5kKW4PIQLtYdYLaU33TZviEEDpD4YAMRKijrBTOXBxrhL/AMXPgM8AxIti5gCV64zRO5HiFdXK2PoxL4G4b49ttvq/+N1HtwXpItxPwRzERyjbuIi46kT2t6aFdVDz26NpsW5cdzJGqqwt/T3/dsINd6fgz4B5ikRNH29o/p10dfpuO99UqL/b3FT9PStEWcF9s/aXXHiQgKuTafSy6jUDORXGtEsFD2seNP4tfFPi5Gg8wi0GQPcGQw+7LLqJAj2blXXkmKjHtocqDRA0gTLpEDjWaYYZ0DIZup5Bq8JlSA0csdS7YQLyiNv8YluQYHxccFuXZ2oNHUsLD41PBhGzREKSTPtblR4RszlVxDd32suY+2VXbT6vmpdN2SkeIX4eiuZxO5VhKHmDhKjEug2t46+sOx1+itum1UmlJIP1ryTbq35GZKjIpXebGn26oIuTafT7OJXOMVuzqECD0+vxHqq6+nZj4DgzR++P/TOEJVun69ItuRIQ4dCbk2tzUh12aYCbk2wwtXQxIF4unibYtkCzHH/6yRax2pw986kwhC8lJExuwhzlRyjXzXnb1++tv+LkpPjqXHOXqNNH3h6K5nG7lWB+piYimGi88gY8i25vfphao/UaOvlR6Zcxd9p/xJqkjlvNjTRLGFXJvNI+2PzotsISFuXetXQa5hJ+PyZHMWnSaOYjdzqtRhjhZmsha76OabKWPFCoqe4gCqkGtzWxNybYaZkGszvIRcm+OFb5wXkWsh1+dnhUZt0li0hwcDtInT8bVz0oqnrsyl1IRIIdfTzHlNiPXhX5AgZBQByT7eV0+/rdlAG+u2c0YRru649Hm6o+gGdRiyb3AkK0hwE3Jt7lxnY+Q6WPOr/vfoYeY+5MnmzCJtXPGxt65OabKLWJONPNlRE1KOCbk2tzUh12aYCbk2w0vItTle5xW5nkgGJHJtbhAzNXKtyfWnJ/qosmGAbluRTsuKE2ggjEONszFyPfEUNfJiI2vIlqb36ffHXqGWQCvdVXQTfbf8KVrCUex+3sgMDJ/KpSzk2nwuzXZyPYaYzpON1Gx82l3nyR7gV8xZXJMAmuy8q66iiNF8tyhIk+TocNJMPdDo8nAYcBZybTY/hVyb4SXk2hwvIdceMdOEDFpu2xRR6AsneBFJtM3LiOHDUUAPZZsiTffVyhXYkFbOxclzF3mu9VuJwYEANXYN0tZDvXRhaQLdygQ7nEqNQq5HjB4ZRWKZZNf21dHvjv2F/lb3HpWwFvufy5+l+0tvo6SoBE7ph7zYIwWbXKXVkmwhHp1O0GUz/UCj1lyH8hmRiFJDk80FcZQme9s2laoPmuwS1mTnsCa7G+numFzbl5YglSJtJmYLEXJtPgek/Lk5ZnKg0RwzOdAYAjNNoERzbWZcMzlyHQj0M9GLoFf2dlFeSgw9dkW22qCYHmoUcn3KJpDiMDYyRlV33N78Mf1X9R+psbeF7i29hX5Y8RwtTV3I/zagothCrs3mkkSuJ8dL6bJRPItJtg+a7O3bqYUlIwHOfZ7B1ceyb7+dCjmiHeugKJCQazObxdUzNRWfkGvzZynk2hwzIddCrscQmC2Ra5DrSI627qzuo27fIN13cSblMMkeMDzVKOT69MkDXKG3ru09SX+sfY02N3Be7OQS+ubCx+mR0vWUEB1Prd1t6ou2ucElcm3u8M+XyHXwnY/TZHN2kab336dWJtkDnLoqk3O5Qi6C7CJRIWoeTIemkGtzWxNybY6Z6zzXkorP7BkgrSLWJSgBbJuQayHXs45cK4kJl2usah2kj6q76ZYL0mhVaTL5BszK2gu5nnryIIqNNwE7WziKXfVHOt7DebHn3M5R7OepNLpAyURi4+M8F5+Z7JeEXJu7//ORXAejoNLzoTAYa7LrmWC3cDR7kDXZ2dBkr1tHuazJjuSsN6ZNyLUpYhK5NkeMVEEUVM5Dxhzbhuq1Qq7NUBRy7Q0vz0VkputOZCHewJ541UyWhYBcxzC5buNkFi/vbqNrylPopuXp5AsIuZ7saU+WLcSLVSCjCEj28b6TfNgRebG30ry0Uvr+/KdpPWcUSUtMpb4B37R5saf7HSHXXp7C+GvOd3Kt7xZR6i6unDfMkagOrvjYsHUrDfP5lLSKihFNNmcZMan4KOTa3NYkcm2OmZBrM8wkz7UZXrj6rOa5Dh6ukGvzh4dvzHRyjch1YCiSXt3bTsUZsXTXRRlcvTHCKCWfRK5D24bWYkNr/U7jLhXF7ujvpK/Pe5CeX/goLUlZoFL2DQwPhu5swhVCro0hUyWCG/gQIDaYpaWl6gBzuE0fqIazRllknFuwaRPzXNv0hbF1ccQ6kccVzffsa2ykxh07lFwkwOXCcfBxzn33USbyZPM1oZqQ61AInf7vQq7NMRNybYaZkGszvIRce8RLsoV4BCroMk2Io5hcR3BkdcfRHmrp7qcHV2dREZNsk6whQq6946/zYteojCKv0KaT22lJ2gL67pKn6J7imzjCPXle7Ol+Qci1d/z1lbOKXPNrcVToVZmUcPiRSbaq+MiabBx8BOFGBBuR7MyVKymKtZZTNSHX5rYm5NocMyHXZpgJuTbDS8i1R7yEXHsEahJyHcllGeN50f28vo+2fN5Jj3KlxuVFiUa6ayHX5vjjQGNnXxdHsXfSi3VvUGNfKz0890767uInaXHq/NPyYgu5JpW+cDZWaDS3rlPfUJHrUXIdnJt9TJN94oTKk920cycNcfQ+dfHikTzZ11wzqSZbyLX50xBybY6ZkGszzIRcm+El5NojXkKuPQI1CbkGdomLc2rzAAAgAElEQVTxsVTX3k+vszTkmvJUuoo/Jin5hFyb489MkQb7AypSXT/YTL+rfoU21r9HpcnIi/0c3VdyCyXHJHEJdZ/Kiy3kWsh1GFamNiSTkWvdl9Jbc15/X1OTqvjYyJrsQZbKpC1ZQiV33kk5a9eOq/go5Nr8KQi5NsdMyLUZZkKuzfAScu0RLyHXHoGaglzHx8VwFHWQ3uHIdXpiFN17SRYlxETSoMeUfEKuw8PfzynSoMVOSUgm/yDnxW75iH5x9I/U1NdCD3DRmf9V/nVakb6ENfEDnBs7MOWPiCzEHP/ZKAuZWFVUo6byZHPmkGEm2f6WFmpiTXYLF6Tp50OQ0GSX3X8/ZbBcJCY5mapravgQdBQVFRWZgz7hG9CoQ/Oemppq3ZcUkTGHUPJcm2Mmea7NMZNUfCEwkwON5kaFb8z0A414rrGxnLaLg6PbD3fRsRY/PXNNHmUnR1PAYyl0IdfmtgHMQK7RUPGOle9BebFfp79yRpHixHz6DpdP//KcOyk5Oon6hjijyCRRbFQ4RRXQds4KMXfuXC7YZ34oMvgOYLO9vb2UzGTKRYNzRc5UkDv0HW4TWYg5cqEi18E9RnDqPv1RFR8/+GBEk8367KzVq2nOXXdRa1oapRYWUn5mpvlgziC5hl118gHN9PR063GhA5Q/R18qd7hlQ+Q6NzeXMh1gBlkUmosUdahqjHmexs/UtsEvwf9kZGTYdqW+j8j1/PnzKZEri9o2vLnBeQP4WduGDSFww8Fl2+ZyQwj8gdlS3gwjcGDbkIoP2MNn2zaX5BobQjwDFxtyrL8HDx6kC7gGQLgt4qe//PdhW8PSBGrz5s10+eWXqwlps4jr/lD+3NYYdOQaAE0VnTEBD44a9+bCsNAXHDUcqwtH7bL8OZwExgRyFhtJtPeEjz6o7qFHLsui+bmxNGBArtEX7tW2ZLwmnW2tbZRfkG+deQHPHZMR47LFH99HX8ALH5usENr+MT510GyUNKPwzBD/ea/5I/pN9QZVhObBstvpW1x8ZmVqBefFDqjqjsENcwgLGxxiWVmZ1bxEv2eKXLuY564117DbkpISJ9lC4KyxIbGxC+DvOlsIFjfYv4lvVDmweZHuraujtj17qOm992gI+YK54mPxTTdR6dVXUxQvvko+FuZmDnjBn7kiKrhPF0QRzwDzCQs45pZNw/cPHDhA2dnZ6mNrGyDDaCDXtn25JCouNzfwjSCKCBTYzie9uYS/xqFe24bINbiBi6xAyFAEf+bCZoH/vn37aAnLuXCvtg0bVX0I2qYv4K/JNQIsts2Vz8C48CwPHTpEy9mnhdsifvKLnw7bVtrRZGDLli20hk+W25Jr3AyMC87H1oGhL030bRdwvbihPxdGCqMH6XEVBQEZwLhsiaLGDP0A/2g+2NjYFaCdR/toaVEcXbmAnTf+eMgqhj7wLHGvwUQxHIPVdoYNSV5envUCgjGofN68A7fFTI8NNoaPzeI23YZQ58Wu8zfQGw1b6K8NWyktJoX+seyr9HDpHZQSw4V+Bv2sxR6JAuP5wRnCzpBWzmbTq+0fmwgXzhD9wYmp6LwlUdEOEfZvQhQns0M8vybWGWM+FXIk1hYz2D4cP6I9NnYRjD8WNxc2C/wxL8PBH5ps3E8/Y9X1ySfU/PHHNMj9JfEmLvfmmymLi9LEMAlVJJux9Nr0Jhq4u8AM/eA+Xb5twbjCwSwYA9gqItdZWVmKXNvYmbZ/9G9b1VX7Mti/C6LuckMOzPfv3682vSCxtm+7sCHBfHcR+IFfxHhsbVb7fxcbcvQFu0IUduHChda+URNi0w35ZHNf2yz+hj+z8Y0ubRY2BruoqqqiCs75H+64VBGZmRi5xsTWketwbw4PVJM79GG76OrFDWTRliiiL9eRa1fkWk9uHbnGy08/V2bceKCT4lhv/cTl2RTF/9GL7FobPSa4C6cPh9PC2k+QHhu70JMdi65LouKC3GlygTFO5vShxY6J5Og4/9nVsod+Wf0i1XbV0fridfS9Jc/QqoxlSqfdP8ybraho9XZkpstCXET7XUeuZ0We60myhXglweo6bMCZJEbxglTLUdg2losMHTlCfTxHcfBxDmuykcIvdlRe4HXOiuba6Cmoi13KQkRzbY6/aK7NMXMpCwE3wMeFLESKyHh4lpoowqm7IsQg17Y7XU2uoYdF5MI2CoX+XMpC0BfGpDckMcymN/GhxsaOAD15dR5l8OFGL4cahVx7MNIJl4Qi1/ryyIhIio2IoUZ/C/2+9lV64/g7VJiYx3mxn+Qo9npKYS12PwWotW3ma66FXHuzE9eykOmyhXgb0chV8BM1XE49jl/vprHfaOD0fTj4qDTZF19MRbfdRjmXXabkIl6akGsvKI2/Rsi1OWZS/twcMyl/7g0zKX/uDaexqxBtnq3k+tPjffTZ8V66bWU6LS9O9KS7FnJtaGAqGDj+QGOoaB+02AM0SDubd9P/HH2JjvWcoPWlN9IPlzxHF2YtpYaWRmpubZ7RBxqFXHuzk5lKrvH8ajhbCAIYBcXFNMjBjD7WZLeyJrvx3Xepn3XKINkF69ZRPvJkI83fNE3ItTd7CL5KyLU5ZkKuzTETcu0NMyHX3nCa9eQ6inXXDZ0B2ri/ky6ak0i3rUhnqUho0bWQa0MDC4Nc4xcQxY6PjKMTffX0p9o36LW6TRzFzqUfL/0m3ZhyBZez9lPR3GIKWJTyxu+41E+iP50tRMi1Nzs5F8g1zkNABqY12X6u8tjCeuwG5Mnm17aKZF9/var8GDXFQTIh197sQci1OU7B3xBybY6fkGtvmAm59obTrCfXyDo1yBlCXt7TRjkpMfQY667RQh1qFHJtaGBhkmv8CrTYsZExnDFkJIr9n1W/p3pfE92edS09X/IIXb/oSuob8HNubO+HyyaOXsi12fPUsjSQRRdZBM4lcq2QGtVkq4OPyJPNcpFWzvbgO3mS0srLRzTZF16oDj4GNyHXZnaGqyVybY6ZkGtzzIRce8NMyLU3nIRcj6Z03XKwi7p8g/TA6izKT2UiF+JUo5BrQwOzINf6lxDFhlQEUezf17ymqjvOTy6lbyx6jLXYd1JSVCL1cXVHHIg0bUKuzRCb9eRaw4ViNMiVzZkZkCe7ZTRPdh+T7DFNNkeyo0c12UKuzexMyLU5XviGkGtz3IRce8NMyLU3nGY9uQYArAyhz+v99PGxHrp9ZRqtKuW0b5xFZLom5NrQwByQa/2LiGKDPm9reJ/+8+DvqWm4le4svoG+v/hpuogziqCy48S82KFGK+Q6FELj/13I9el4qTzZ/IEmu41T+DVs26Y02ZkXXUSFLBfJ588A/7uf02GlcM5m2+ayIAfGguw7SDdrm4oPfUn5c/OnK+XPzTCT8udmeOFqyRbiATPJFuIBpAmXaEIcnC0El0B33dI9QC/tbqOrF6fQzRekky8g5BrY6JydX0QqPpMnGhMVwyTFT5VNR2jHwB7aUPM2ZSdk0g/Kn6HHy+45LS92qL6FXIdCSMi11lyHQkodamS5iK+5WVV7VJpsTo2Zvngx5dxyC6Vz5cc0zqRk24RcmyMoqfjMMZNUfOaYSSq+EJhpMrZp0yZVoRFFUWwT4mNyqwImDqrdIf+zpOLzbvjTkes+JtNv/r2dCtNj6a6LMggp+qZThkjk2jvu+krTbCHT/QLmEByYv8dHeVzV8r3GD+lXnBe7rq+B7i66mb69+Ct0ScYKzovNFfG4umOogs5Crs2ep0SuQy4eKk+20mRzWtKmXbuo+f33KcA2m8Glh4u44iNkIxM12SZPQci1CVoj1wq5NsdMyLU5ZkKuQ/rHCDUZhVybGReIyrmS53okOjtSOAaykJPtAbp/dSYVZ8RS/zRZQ4Rcm9mEjoIjGT6abT51Ta6hLSwuKqaooUhq7m+lDSfeohdr/0oFcbn03Yqn6VHOi50YnaC02NM1Iddmz1PItUe8tCYbchDWZDdyJLuZ82T7T5ygrFWrqPDWWyl37VqKDkMmIuTa4zMIukzItTlmQq7NMRNyLeR6DIHZmudaA4BS6AcbfPQOF5R5dE02XcD5rqfTXQu5Nnc4ZyJyDXKtS3lDi43y6Kju+KsqzovdfZzuK7uF82I/TxUpC8g/jRZbyLXZ8xRybYYXro7igjT9nMqvk/Nm9x8+TPUsF0FUG1lFkCe74LrrKDIuznPHQq49QzV2oZBrc8yEXJtjJuRayLWQ61EEIAOp5yqNr+3tULrrq8tTVdaJqVLyCbk2dzhnmlxjRDqjSJ2vgX5/7DV688Q7tDB9Lv2w/Dm6o+h6SormjCIDp2cUEXJt9jyFXJvhhau1/Q+xpCmJs4f0NTWpPNmNTLIH+JBj6sKFVHLnnZT7pS9RFFeEDNWEXIdC6PR/F3JtjpmQa3PMhFwLuRZyPYoADjV2cyq+zQc7KS0hiu69OIsSYyOnLIUu5Nrc4XwR5FqRGP4To/JiD9B7TR/Sb2v+QjW9dfRlTtf3j4u/RsvTyjmjCBdQHxoYZ/+9THCSk5PNb2ySb0gRGTMYz7k812a3p67W9o9KuMrOOH2f0mRzlg7kyUYaPx9HstMWLaKyhx+mzBUrptVkC7k2fwhCrs0xE3JtjpmQayHXQq5HEYDuGqRsx5Euqmr20zNX53FRmWgKcIGZyZqQa3OH80WRaz0yXd2xpvcE/a7mVfrbyXepLKmYtdjP0EMlt1FiVPxoXmyp0Gj6NCVybYrYeHKdxBprEGsc+FB5sqHJ5oqP0GPj4ONATw+lVVQouUguH6afTJMt5Nr8GQi5NsdMyLU5ZkKuhVwLuQ6ygbjoCPr78T7acbSbvnxpNpUXxKvI9WT0Wsi1ucP5osm1HuGIFnuY3m3+kH7NWuza3pN0V8mN9H1O27cyvYICwwEued9PErn2/kyFXHvHSl8ZHLkeI9dB3SC7CIrR9NbXUztXe2zYsoX8XP1RabJH82RHBWmyhVybPwMh1+aYCbk2x0zItZBrIddBNhDNuusTbQHaWtlFF81JpOsrRkoXT6a7FnJt7nDOFrnGSKMiolQJ9ROcqu/PtW/Sqyc2Um5CFufFfpa+XHYnpUQlU2tXGyUmJZrf2CTfEFmIGYyzTRYyGbkee+PCebKHOeMSiHXr7t0qTzYi2SkLFihNdh402azZxqa/g4vUIEWsiyZFZMxQxDkNVPXLyMgw++IUV0sRGTMYpYiMGV64WorIeMBMish4AGnCJVPluR5b1Fga4uP0e2/v66AE1lt/5YocJmUjafomNiHX4eF/JlLx6WwhoUakigdFRNMQ05KdzbvpBc6LXdtVR7cXX0vfWfwUVcQuoITkBFXh0bYJuTZDUMj1eLx0SXX8V5Unm6UikIuAcOPgY9kDD1DaypXUzwcfU+PjzcCe4mqQaxB1zBPbNhsqNMJm23lz45Jcz58/nxJ542TbZmr5c5dvW4A/NiRLly7l4wtRtpCpjVICz6dYFIGybDM1co319+DBg3QB59oPt0X89Jf/Phxv6XQ0gdq8eTOt5VykLovI2BrDmSLXLgwLO0o46szMTCeOGq/yUHTHtixvKHINY0PWkM2fd1FjV4CeuiqXF67IL4RcY0eJ3OAgikqLadnwKg/2b7tQ4vvoa6ZVaFR5rru6qau7iwoKCgg2F6pB4ANdPStc1YHHZn8r/bH2dXq9bjNlxmbQ/1rwNXps/j2UEZtGvQN9KltMuA3OFYsk5rnN8wT+kKsAf8xNm74wlkbW9WI+lZSUEA7WhdswLnwfdovDeTbjwhhck2vgD/u3LdaF79fW1irsc3NznRQRA26wDS+YqfnLtg7JiI+zi0CT3coflFjPYLlIzs03UxFrsmNTU3nTyI3ngZd+J3vuIBcpKSnWfhZz88CBA5STk0PZ2dme5uZUdoj77+GoPdp00X4vdqz9P2w2lfEKFyf9W/A5ILEoGW/bMLbPPvuMysrKrOcT+gom1zb3qf0/bBa2YdsXCt/BnwEz275A1Pfv30/l5eUUw2kubfsLJte2fQWTa9u+QIjxsbVZ/SwPcxrQ5cuXh41XxE9+8dNhW6KoJ+MW1r6tWbNGGYRNhUZMQBgXnI8tuUZfMHiM0UVfcBT4YDGxbfp1masoCDDDPdqSa9wXnh8wm6qv6EiiysZ+2nfST9eXJ9GS/DgamCR0rckF7tWW9Gg7w4YEJZZtJqN+diBQcDguyDX6Av4uiCKeJZqtM8Tzw6KLD0iPF3I90a7jomKVFvvD9r30ct1fqbKnmq7OupS+u+ApWp1xgcomEuCMI+E0bEhQKMfWZl1ubvD8mpig4Rl4jfZPd+/AHE7fK1Gcri/YPEiPyw0h5qUt/sCsjoks7BVk0cb/64AI/DYiZKbzXGuyfVyMpnPfPmrj7CIoq57EhCzzyisp56qrKAakBQSbf8O0f8wljMsWM2CFyHUWl3gHubbZxGEsmEtoGFs481zbHfqCL4P9g6jb9IU+gS+IIvqybbAzEEVsekFibewM94lxoU/4IJv7RF+Yl+gD89y2L2APn4ENuW1fsKvKykpawHIpzHXb/kCIgRfs17Yv2CzmO/yZbV+ubBb2ALuoqqqiCj4sHe64ZmTk+kyQa0xwGINt00VkbDckGMdMrdCo8YfRT7WJYF9Czd0DtGl/Fy0rjqfbV6RPWqlRE2LcKyaQ6UIW/Ly0FhmRa0RhbfrS/cIhwlG4INfoCxPTlhDr+8QYXVVohEMEZuEuRiqjSFQcNflb6A/Vr9Er9RspPSaFvrv4aXq87B6OaKerjCIoTmPSQFRcRE5nU+Qajh8LuAubPV8i16fZHAIDo5tmSETquax6B6fx83d2UtLcuVRy111Kk41INt67DHMwwas/cRW5xvPDq2cQaxBsr78/2fwKjlzbyiVcR65xX52Mu8vI9Vx+hrYReuAI/4M1zsXaBKII/2q7idABKYxtJkau8SyBl22wDPjDl+F+bQMPes0EwXbx5gBr+aFDh+wi1z974efOZCFS/tyEVsxccq2dK/6eiijiLewgp997eU87ZafE0OOXZ4+UR58QvdZ9wemEE4WajFy38GIpshBvthZc/tw2Cqs2WywW6eFF5IDvCP1X9R+pqrOWbi28ln5Q8SytzryAc2YPkn+wH/kalbQkVMNrWThWW1kCxgai6GKhxAapnjNRwFHPmTPHKqJ4JogK7hMRLRfk2tVCCdyPHTumFtz8/PywN3GwF9wXFjed5zps0smkDllFBkcjp7EcwYMeu4U/vuZmpcmec999qrx6jMFhR5eaa5BrRPohDbRtICpotuRaB1e0LMF2XDNZc425hDUOQQzbFmyztn3NdM01bMxFsBIbCKxR4Aa2Df4a0X6Qa9vmRHMt5NrsMcz28ucarZF810RbDnZTR98APXhpJuWnxp4mDRFybWZfmlyczQON040YC2U/O7D0pDRq5Cj2n4//lV6p/RtlxbEWu/xJ+srceyklOnk0L3ZoLbYcaDSzD9eaa2xuEIWyfdsCcl3D5cpBriHZCvcNSbD9g1zbRid1FLCPyXoKS0FAtv2jFR+bWS7Sw2PO5AOPRbfdRrl8XiiGI9mhmmQLCYXQ+H+XbCFmeOFq2D58o4sMN5ItxBx/yRbiATOt38Oi5OI1hpDrU6BHMsP+vN5HH1V30x0XptOqOcnkC4yXBQi59mCkEy45E7IQkCjbyDWGqTW/iDTgsCOrg2hXyyf035wX+0j3Mbq1+Bouof48rcpYzlrsQEgttpBrM/sQcm2G1xi55rctuqqo0mTzp4/fTrR9+ik1bNtGPj7AmnPZZZTPebLzrrhCpfCbqgm5NnsGQq7N8BJybY4XvhF8oDG8Hk59S8i1BwSFXHsAaRJyh1cs08lC8BWUQm9h3fXLe9roykUpdMsF6UKuedG2jQKeK+QaNjBS3TGW6n3N9NLxN/nzFmVzFPufK56nR+fcRWkxiGL7p9RiC7k2m59Crs3wmoxc6x4ikUqMgy46TzbS+AUgU+KzCUqTzYcfJ6v4KOTa7BkIuTbDS8i1OV5Crj1ipqOd0OK40GLi5K1Erj2Cz5d50Vxrct0XGKTX9nZSQVo03b0qkxK4emNwJXSJXHvHXV95LpFrjBnyoGiOYjNT4Sj2Hvpl1Z+4umMd3VtyC31r4VdYi71CRbEny4st5NrMPoRcm+E1HblWPeHg42jmp37OxdzMBx+bWC6CSHYqZ1dQmuyLL6bYoAIoQq7NnoGQazO8hFyb4yXk2iNmQq49AjXhsi8yzzV+mgPXquz5rqO91NDVTw9dmkXFGbHjsoYIuTZ/lucauR6LBDJRiY2Ipeb+Vnr5xFtc4fGvlBObRf9Y/tXRjCLIi+0blxdbyLWZfQi5NsMrJLk+taMlVZCGibafDzu2fPQRjdNk33or5bJcJIYPS7VztoRU5LmWIjKeHoaQa08wjbtINNfmmIksxANmQq49gDTJJV80ucYQUAq9knXXmz/vpEfWZNOK4kSu3nhKdy3k2vxZnqvkWt8pyqdzNnj6sGUv/bpqAx3qrKJ1RVfQD5c8T5dlXagyiiCSjSbk2sw+hFyb4eWZXAd1O6bJ5jzZbXv3qrLqiGRncrW2/HXrKPGSSyiLpSMu2myo0Cjk2txShFybYybk2gNmQq49gDRDyDUqNdZ3BujNvR10dXkKXbmYK6CxjlEXTxRybf4sz3VyPfJWY0SL3eBrUVHsF4+/QUUJ+SwTeYIembNe6bKhxe7s6lRpmFzIv3TOWtvc4EjF18DECpvV0tJS61R8kKXhgIxt/lXgKuTabD6FQ671LyhNNjdostv27KF6LpIW4Kh1CpeRLr7xRsrlPNkxnBLRpgm5NkcPpbznzZtnnU8avzxTy58LuTa3CyHXHjATcu0BpBlCriNZG4IMIe9WckqvmEi65+JMSoyNVHIRNCHX5s/yfCDX6tnzBxlFsNn6tH0//aZmA33WVkk3FVxNP1r6vNJit3a2UlRcDMXw6/iw8xmP2pmQazNbg53NmlR8QdlCjFCaqMnmQ4/Nu3eT78QJSpk/n0rvvZeyV68ep8k26V/ItQlaI9cKuTbDTFLxmeGFqyVbiAfMJFuIB5AmXOL1QKMmULh+x5Euqmr20zNX51FOSjQFRk81CrkOD/+ZnOcajsck6T+0qXGRcSov9kucF3tD7duUG59N3694iu7KuoGykjNpIGLQuLpjMLKwMyHXZrYm5NoAL7Yvrclu5WI5fVyCu/Xjj6m7upoyVqyg4ltuoRzWZMdyLm2TJuTaBC0h1+ZojRSr++yzz1Qp76kqLpv0iwql8P8uqlRDFojEFS4KH0nk2sNTlMi1B5AmueRsaK4xjDjOEPL3E31MsLvp4UuzaUlBvIpcI3Yt5Nr8WZ4vkeuJdx4TyfmFOTP2+6176IUjL1JVTy3dXXQT/fPS52h5+mLekIXOiz0VmkKuw7MziVyb49bDm8tkLjbTz3KRVs6T3cia7D6WEWUsX04FnCe74IYbKHqaPNnBvyjk2hx/iVybYSbk2gwviVx7xEsi1x6BCrrMJHKNr+FQY117gLayNGRlSQKtWzoSvYHuWsh1ePifT5HrYASgxY5jLfZJXyP9qeZ1erN+K0exs+gH5c/Sg6W3UypXd/QNTZ0XW8j1sIrQo3Ih5pZNk8h1eOgh2oZIWzRXtlR5sltbqZU12Tj4GOCoXlJZGZWsX0/511wTkmQLuTZ/BkKuzTATcm2Gl5Brj3gJufYIlAW5xhrfPzBMf9vfQbHRkfTVK3K4wAy/jhJybQ4+f+N8jVxrMPgFO+fFjsb2izbX7aDfHP8L1fU00PqSG+l7S56ii7m6ox/VHUczingBUSLXXlAaf42Qa3PM8A1NrvE6+7Q82R9+SM07dxJyZqcuWUKFHMXOvvRSisvMnPTHhFybPwMh12aYCbk2w0vItUe8hFx7BMqCXOOryBryDqfjO9kRoCevzKWMpCgh1+bQq2+c7+Raw4Io9qAvQB3UTS/V/ZVeqd1I+Qm59A+Ln+C82PdSRkwq9Q6Oz4s9FaRCrs2NTci1OWankeuxHeOIJhtp/FTFx08+oWYm2t2HDlE6p/ArYk12Lld8nKjJFnJt/gyEXJthJuTaDC8h1x7xEnLtEShbcs1ZQ6C73nu8l8ugp9GK0iQa4EONIgsJD//zVRYyEY0+zuKQmpCiKhK93/oJ/froy3S4s5puLL5S5cVGRpFBzos9WXXH4L6EXIdnZ6K5NsdtXOR6kq8H58lu57RxkIsoTfayZac02SzrQfv84EHKyc6mrKws84FM+AbkQmiQDNk2nN/B3EwzPKA52e9KnmvzpyGp+MwxkwONHjCTA40eQJrkkrN1oBFDiWJy1NgVoL/t62RinUB3rswgP0tFhFybP8vZErkGMljAkZc6Jiqa4qJG82IfH8mLnR6bRt9Z9HV6Yu59lMN5sX2cF3tw+FSBIiHXorkONbswl0BUYGfJljmp9W+FItfqOqTwi4lR/xOa7DaOZDdwnmzIRZQm+447KP/aa+lwXR3l5edTBld8tG1Crs0RlDzX5phJthBvmEX87IWfD2Nxs2maQG3evJkuv/xytdsdHBwMu0to2bALwd+2xSXQB0gnGlLHYBdt0/B93Bv6ssnLizGgr7a2NspkPZ7t4ST054pca8wwphheILxgBvkhHvnLe9opm1PxPb42e7TMdQShiAYwi+cDQDaYadLZ2tJKBYUFVn1pG8Cii3HZ4o/voy/gZWuzej5pm7XBDM+yp7tH5TMGZjbzEuPBWExT8U033zS5xjihxUZe7GGu7rinbT/9V9Uf6UjnMbo2fy3969Jv0iUcxcbv+4dG5nNwOxORa9htSUmJkyIy8GcgdzbPUuPv8kAjiKLa3LDd2owNNl9bW6v6ycvLs7IzPc9BihGFtRnXWSPXo8aJ30dJdeWfuQBNywcfUNOuXeSvr6e0BQuI1qyh+Vz1MYvtTD/fcNcnIdfmyAm5NsdMyLU3zCJ+8oufDtvmK5cqKFMAACAASURBVNRkYAvvzNews7Al11rKgQVXHRqxaNq5ogtb0qOdHwiKi3yR+nVZenq6NbnD2EAGMC4XRBELG/pBtTovixsONSKOtquqjzp9g3TnilTOdw3d9UjkCPdquyHRi257WztHe/I8jSuU6YD0YFwuMENfwN+FzeJZotmSHk2usfDm5uV62ihNhxlsAZs42w25/g1ghnsMxgwkOz4qjpr9rfRK/UZ6q+FdSolNoq+W3kdfK72fMmPTubrjeC223tzAXm3tDH00crlrPIOioiIrooj7hL8AZsgw4WUuhcIfGxLkmXVhs3pDiHu2afh+HUdhYf+5ublWmLl824V7gu/BhtBFLl3019vbqzbkRvMcJBsftnVEsjs4u0gH58n28f9OXbSIcliPnbF2LcVzWfUhnhPDbDMmtoKx4FmiwTa8BESmet46uAKbxYbQpi+9ZgIzF3IV2Nm+fftU5VRUPLUJFijfyH4RNgt/ZnOf6As2hvHgPm37Cq7qatsX1t+DLD9auHChdYAR9xm8IbcdG+wCfWI+2fYFe3Vhs7AxjKuqqkrlBg93XBE//eW/O41cr2UHAbJoY/SaKAJ0W6ePvmBccFRYxG0bgEZ/thsS7fRdRq4xIYGXkdOfAhD0hcXAZBPByhA60txPH1b10I1LU+jisiQlDUFfwM22LLVedFt5QcrnV6kmi89Uz901uQb+tps455FrXkDgEIGZ7bw8E+R6qs0N8mJH8eezzoP0wrEXaX/zIboid5XSYl+RfYnSYgeGeG7zH2AGhwjsXZFrOGoXkWv4C9iZbRRWExWX5BrkAvPS1mbx/ePHjysf64pcAzfbDQnsAjbvmlzbbG4QyYZkZIjfWlZt306dHMke5EOQiUyyCziKXcifGF5DIS0ZZgxUTlMPDfaP5mITEUzuPPz0tJfA9yNC7EK/jR8CuS5jaY0Lsh5Mrm3vM5hc2/YF28fzTOV86rYN+O/nokfl5eVG6/lUvxt8TsN2bLhHzFGTomRT/WYwubYdF57l4cOHaRmfkwi3KVkIdg02TZOBTZs2KVmILbkOloV4lSVMNX69CwcpsN2dakIMw7fdaem+QBRxmMU2CoX+XMpCQAYwJhMpDXTXLd0DLA1poy8tTKVbV6arFH0Yl6uFEuNqbm5WEUUX5BqT22ah1HanyR3s1TbarCP06Nt2Q6IjDZ38StpFFBaYg9y5WMBxf9NFAUEpIBaJZalIa387vXpiE/2mdoPKhf2dxU/T1+fdT9msxe5jLTYItlRoNPPisDM50GiGGa72pLn20C3yZB89epQSQZ5raugkr59+JtzJo5rsPOTJNtCJuybX6rCxA3IHnwEpAXiBi4Zqg/PmzXPig/As4a9dvIkDIcM650Lbjw0hxuZiQwL8dYVGF8FKrCVYM10EK+GzsUa5ItfgB3ijYdvQT2VlJS3nwlDhthlJrjVZd6G51hITGJhtRCuYXNuSnplMrjX++NuEKIJc9wUG6Y29nZSbGk33XJxJCTH8uszfr6JHmEA2hFiTzhaO8hQWFlr1pSeMa801IngmmE02cc8EuQaJAmYuItdnSnM9nRNDFBvCo91t++iF6j/RofYqWpd/Bf2AqztekX0xDQwPUFtX+9grXhs7wwLUwNkdsCnE62csmOE27X+AGZy+zbgwBnzfpeZayLX5k3VFrmFnVSifzsEVnLvp40BLC6fvgya7jzXZINlz7r2XslevpjjOKBKqieY6FEKn/7tors0xE821N8yEXHvDaewqLQsRcn06cJCFoOz5+1W9nO+6n0uhZ1FJVhx193KWByHXni1NyPXkUEGLjeqObYFOeunEm/RyzVuUGpPCebG/Qk/Of5Bi+6Pp/2/vPcDrLK708aN6Va3e5d7lQse44IJtMC0Qeui9QwrZNBKym9199pclyfb9b8sukAAJHQIEjI1NNcZgbFzARZbkql6v6lX5n3ekEdey5PvNN5+NfHUmjx456Ltz53vnzMw7Z945JxDBki2f3WVjIdeOTbX/QWwq97L3FQ4MudDoDD9FrlnXCY9uGpPrbt44qTjZINkbN1L1+vXk578jrToyPoJkx6alDVm5kGtnuAc/JeTaHDMh184wE3LtDCch1w5xQir0XeVttJoTylw/N5PToSdQE5PrTiHXDhEcOUlkAEhwtBCnACGiCIj2xrot9LuSF+iL+mJaVriAHhp7K83POYOiYqKovevIiCJO6xdy7RSpr54Tcm2O2WHkmkmzPlXScbLbqqqoniUQle+9p0L4JXBEkbxlyyh/xQqKGUQuIuTavA+EXJtjJuTaGWZCrp3hJOTaIU7I1FjeGKDXPm+gs6ck0dJpKdTBFxoDfLQushBnIIrnOjROyO4IL3YVRxR5ieNiP7P/NcqJzaTvT7uDvjX2Eo6LzcfsHFGke4i42Ef7BiHXofEf+ISQa3PMhiLXuiYVJ5uleR2sw67bvJnK16xR/wbJVnGyWZMdE5TkRci1eR8IuTbHTMi1M8yEXDvDSci1Q5ygu25u76a32XOdFBdJV5+RQTERXdQeEHLtEMIRk/7crec6GEdcdoQO+bP67fT7shdpe90uWpa3gH44/S4VUQTkerC42EKue09IRHPtdFR+9ZynmmstCwnyXB/WIiSjQZhE/h1AnOxPPqHKdeuolcMeJo0dqzTZGWedRXGsyW5FVCa+J+BFFA3J0GhuFziFw/0MLy7USYZGc/wlQ6MDzORCowOQBnnEq2ghbi80okmIdY3Pf7THT7sr2+ieJTmUGseJRzqEXDvtVfFcO0Wq9zlIROKj42h/40F69dBqerV8DcVF+ujBqTfTHROuoey4DGrtbOfUNM4SSInn2gx/PC2ea3PMQnmuB5LsCOR9gCabvde1HCe7mi8+NnG0kVSOxVt40UWUeOqpFM+XluMsc0Pge4Vcm/enkGtzzLBRReAKL6JPCbl2gL+QawcgDVNyjWb5oiNo68FW+mC3n25g3fX49CgOyeddhkaJFuLcPnQovhM9WkioN1ZROdoC5IuJpS3+HfT7PS/S1vqdtKJwIT009Q6an3G6Itcd3b3JeY5WhFyHQujIvwu5NsfMiFwHVd+vyeaQpA2syS7n5G2tBw5QMl98RJzsAk6rHmMZQk/ItXl/Crk2x0zIdQjMvI5zLeTa3Ei1t8GrDIGYXE1D8elWQxpSxfGu39/ZSEUFCbR4cjxf1uEkMh6lPxdy7dw+RhK5xuIWy+Q6yZdI1W119OfytfTi/jcUWN+dcjvdyRFFMh1osYVcO7cv/aSQa3PM3JJr/U0DNdmQi7RzmNL4rCwqhCabSXasy9jSQq7N+1PItTlmQq6FXPcjIKH4Qg8gpEJniTWt3F5PsdFRdMNZKchBLOQ6NHTqCZGFOAQq6DFghsVNxxmPjohisUgkbWYt9v+WPEM76vfQeXkL6eGZ99Oc9JPZg92hsjsOVoRcm+Mv5NocM1ty3TdZKE02JCN+ji5SzXGymzZtombOlpnIMdpVnGxosplwmxQh1yZo9T4r5NocMyHXQq6FXBuOG0QNWcOXGssbO+mmuamUEo9sj3FWSTQkiYxhJ/DjI81zHZzEB1rsWI4o0sBxsZ/f/zo9v/cNjiKSQT8oupuuG3MJx8hO7M/uGIyskGtzOxNybY6ZJ+S672tBrpGoKIIjjEQji+2nn/bGyS4uppTp0yn/ggsoZ+FC8nHCGidFyLUTlA5/Rsi1OWZCrgd4iHSqbtzSx4/IQsyNCp+AF3w4pj+3udCokYhhacgW1l1/vr+Vlk9LoFkFPooWcu3IUMRz7Qimwx4a6LkOzoSIiCIon9R+To+VPE8lLfvo3Nyz6eHp99FpabOoq6frMC22kGtz/IVcm2PmKbnuO7lBKxI4E2gEe7PbWZNdt20bVbAmu4U92aOmTaO8pUup4PzzQ2qyhVyb96eQa3PMhFzr3TEPYL2I4T8Fxy3GYFy9ejXNnz9fZZyySbMsmmtzI8UnhkO0EN3yKLaVKn+AVm1voqk5UXTx7BSKjPGJ59pB1wq5dgDSgEeORq7xaHBc7GfZi/3ivjcoLTaFfjDtLrppPIczi03tj4st5NocfyHX5pgdK3Kt12WtyQ5wApq6zz+nQxwnG4Qb0UWgx85ZvHhITbaQa/P+FHJtjpmQa8YMixc8rV9++SVVVlYqFDM5tuZ0PnKK4aMoHEkJuTYzrnD2XEN3jVTor2xqoMTYHo4akk7xcT62oR4zkIKeFlmIOXQjWRYyGFrwYndx7OvP6rayFvtZ2tO4l1bkL6a/mI6IIqepv3VyXPaKigq1WR3DulXEnHVbVBQTjj+M+RHxb4M96m7qxOeRLASxjPUJopt68BmJc+0OueMa59phE4dyeiE+dn+c7KYmqmG5SC2nVkda9YTCQhpz+eWUBU12dvZh3yTk2iHwQY8JuTbHTMg1Y4ZdNoj1Zs4UNWfOHDUxf/zxxzRz5kwq4p0wDEvItZlxhTu5Rszrd3f5qbqxg646PY3GZMVToEvIdSgrEc91KISO/Hsoz3XwJ1Rc7CgfVSK744GV9NLeNymJ9dc6LnZOQhaVHijj2OxtQq4ddoV4rh0CFfTYsfZcH9aivlNneLOR5bGWLz1WQZO9e7eSi0AqAk+21mQjq25rSwulBGWANH/D3k9gnUNWvzROlONF2bJlC02YMMGTZDmSodG8RyRDozPMHGdohAeshHe7WMQmTZqkbuWDTEP+sWjRIkIA71WrVoksxBnu/ZNOuGquVTIZ1l3vqmijj4r9dBHLQs6cOIraAl0GCB3+qHiuzaETz/XQmMWwFzuK06hvZC/270pepG0cF/vs3DPpkZkP0JSusdTGc1r+mHyOfBNQiWrcFO25hvNhFMce9sJzDW9PUlKSJ57rRs76BxkBTh9t2ob1oKysjC8tx1Jubq61LBDrCTz+eE+bdgF/nDy0MFH0InMebACEDCcHGFs2BeR6D5LAsIwyPT3dGjPYGEqwXHOw9kGPDZLdxmH76jlOdsU771DLvn00aupUyu3TZEewrbbwCckofk/bgv4DIcN7elFAridOnOhJ4hGMJdi+z+ezbhpOp2BrsFnbAl6FtnmxuQH+wGzGjBnKSWpbgucM27pwCodxBJu1LThtwbzhxThHPTt27KDZs2e7bpZjco1v0JcXYYx1vPt966231JdP5UEpnmvzPghnzzXQQLzr2uZOeuHTOlowOZkuPCmF2jvFcx3KUo6V5zovL095kWwK5gAsIl5MhmgH5g0sbLZExcRzrd+fr2MT0wzyRcVSTXs9vXpgNT2172VK9CXQ9emX0O1jrqLZY2ZQc6BVXXp0U46FLAREERnNvJCFYAEH/l6Q631M0FBPTk6ONVHE4gaCgff0glzDZr1ICw4bACGA/dvaLIhOaWmpIlDw6treU3JKrrUd92uymfhCk13Rp8lOGj2aslasoLQFCyi9oKDf7N32g5eea9g8iOL48eM92XiBKMJm4zgHg23RshAvNtFepz/fxhdbIeHFJti2eOW51rK04ZqhcdeuXYrfurX7iL/8t1/0wNvgpGAygOHU8wWJd3i3i0kBEhF4GDAZfsp6LjQGk5jNIq4XJIBuO4FpzwXeD4blFqj+BZnJBSZBL4wUbcHgBqa2CyXah35Au2zr0pjhN/rcLWbMrTkzI9Ha4nbKSo6mc6fGUixvnN3KrrVdYHBD7++2XcG23sF2G8P27wVmqCuK8bfBDG3T74l/25IejB+QMUz8GRyGy2Zcoj3APMAeglgPPD2oD5hF8+LmxThHXagH9ZnaRkwkjxsm2p83fEHPVLxOxW17aVHmHLqz8Bqan3wq22w3tXNsbNOixxK8KrZEUeMPoggy4IXNwi5gY7ZzI2wed3FQjxdeWMxlmGfxnqZ9ObCPYPNYn7zcEHqBPzA7dOiQIon4sRmbbjfk+Bw82TxwqJPXonqWi7Qyee3hOTaJvcPpZ59NMSz9jOW06uyWpW7uF9P+0PcEvPDoYnzvZilLPrcH48kGM32qB5tFf9rWhbGEOmz5D9oVfE/Dtl0YRzghGTdunBrrtvXh5AYbcvBG27qCPde2dQWfdtnWhTkWzgKoNEztXc8/Eb/4//7GMbkGmPBYf/TRR5TNFyDO4osQKFi8YQzQYJ988snKLW+7C0d9MDIviAp2gQDIlqjoxQ31AQu3oAcTdS/JNdoFvLxYdIE/6rFZdHGpkZ2DtKW8kw7UB+jiWfFUmMKaP5e6a7QHJAXkOouTItjij37AgERfeoEZ6gL+tkdv+j3RPls70x5dTGLAzGbS0faPPvDiGHW44d8bFzuG2iM6aGX1e/R06Z+ohxfL2wqvpLsmXEt5cdnU0tXGSdQ5/KgBy8a4BGZYdG1tFp/30nMNu4CN2c6NsPny8nI1X9hu4rT9AzcvNiRYi4aj5xrr2wGkLef1Eg4Wm7EJzPCOKK43JNyeCDgHuJ7WnTuVJruZf3fxSUQGRxfJ458E9mQrgs2YOrVlPIcTEi+O6/Ge8CgW8mXMUPKXUEMUdcH+YbuuMev7Eo0/bM12nOsNOci67SVo1AW7woYEOnWb9Vw7foLJtVMbGKwv0DbMZfjtRV96KSVDXZC5TZ48OZQZDfn3iF89/pseJzt6TAS4Qb+Gj47QSaeeeqoCBeDCOLXmegEfJXlxxIX68J22k76eqNFOEAIbYwCKGDyY9G0Ho64Lmmt4YW3JnSYqGDxekDvgjzbZkrtoliXuYN316u2NdMO8TDp5dCK1dbqTJmjvTDWHkyrgSd62L4EZJjAvvFCaxAYnMXE7Kt16oQb7Pu2dwSYOmNlsejW5DhdZyFD944tmJ0JtPW2q2UpvtnxIn1Z/TvNzTqdHih6kRVlwKMCLHXDUvfoUQjTXjuBSD2n7F821GWamspChaocnu4MJWRMT/0723lXyKXUr4mRPmdKvyY401BVrJ5LzNxr6SUgcoLn2QsoBcgeOgR/bgg203hDa1oXPg8R6sSFBXVtZW4/gE14UbJTAGW15hl5/sUZ54awB9uAtXsi/MPdAc22DmSPNNSY7AAApCHZA0DuhYEc0duxYxe4lFJ+52Ya75hqIIFNjeUMHvfZ5PS2YMorOmT5KAcV7HeOiF90avoiDY0Eh16EhlAuNoTEa+AQWjbraOorq5kk/PZ5e2reSnip7mSAd+e7k2+iuSd/6yovNcpGjFU2uJRSf837Q4xyLpZdeQC9kCXiLEyoUn3PY+5/sPzngSTqJveodiJPNUhFosltZ+pPAc2/BRRdR/rJlFMsXMUMVLzXX+C6JFhIK8cP/DvxBrhHVzQs5q1eaaz2Whqvmeief2hyXC40YcBXlFXyDno+emBhpYpOSmqI0dtgxSCg+c6MP12ghGglcamxqDdDqLxr45rmPrj49nRJ8kSoGtmkRcm2K2MhOf26OVu8nQK4xLkHuCnLylRNha8Mu+m3pH+iLmt20MHcO/aToXlqYNYfnwaNrsYVcm/eCkGt3mHnmue6T38ETC3KN1OqIl93JHstqjpFds24d+ffuVRKRcddcQ1l878rHkrOhipBr8/70+kKjkGuzPoAz5LiRa7XoRPbqeXHLXpceJkn4n2RoNOs8PD0SPNdK88VSmg93N9Leum66a3EWZY+KcRXvWsi1uY2J59ocs2Byjbsl3V3dHFHER/WBBvrTgVX03N7XWZvt47jYN9FdE6+lzNh0autqZ7HIkV5sIdfm+Au5dofZMSHXOhRiUJzsAN95UXGymWS3sM4+mU+yc5YsoVz+iRuEZAu5Nu9PIdfmmMHBix/cX7Atx51cD9VgfYwknmuzLh0p5DqSw5htOdBMG/Z20NVnpNOM/HjluTb1XQu5NrMvPC3k2hyzgeRa69SjI6Ipmh0Mm+u30xN7XqAt9Tvo3IIF9IOp99DczFN7I6mwFjvYsoVcm+Mv5NodZseUXAc1CZceI/mnnU93GjmxXPnbb5OfL38lszw0D3GyL7jgsLTqQq7N+1PItTlmQq4dYKbJugqrZRk+Ty9uWPhsL+dpbzMM34vLkSOFXLPrjw7UtdOHJW00qzCezpuRwseM5rprIdcOBs+AR4Rcm2M2FLlWmxVOOuPjiCK1HRwX++Aaeungm2zIEfTg5JvpzonXUC5HFIEXW8fFFnJtjr+Qa3eYHS9yrVt3WJxsaLLXrqU2DnoQx5rswgsvpLzly/nOQq8mu45122keJpGRDI3ObUQ0186x0k+K59oBZkKuHYA04BG9ucFvL6K1dHXxLd6OLlq7u5U9fxF0y9lZfDnMPN61kGvzvhRybY7Z0ci1ri2Gvdgg2pvYi/146Qu0vW4nzc86jX404x5amj1febERF1vItTn+Qq7dYXa8ybVqZV+cbPRZJ4e1q+FcF1UcqreZNdnxnLRq3BVXUAaH7O1kYj3Kgyx8+Eq50GhmH0KuzfDC00KuHWAm5NoBSMeYXMPTHx3RQx/saaP9dR2su86m1MQo1pybtU3ItRleeFrItTlmTsi14hUqLnYsNXU2058OvUXPlb6uTmS+N+0OunX8lZQfn0OtHBe7I9ChJmvbmLX4Tp2QA1E0MB5sCj6PcF8IaWa7icYJ414mVDgd9CpDo0QLcd676MuvhVzrJgZpsjs47Gfd5s1UzSS7gWUjyRzCL/v882n0EJps52/Z+6SQazPEhFyb4SXk2iFeQq4dAhX0mNeeayySkXzZq7Suhzbta6blLAs5aXQCdRomkxFybd6XQq7NMXNKrnXNMSwTgRd7S8OX9EzZq7Sh/nOak3Yy/WzGg7Qk5yzOaBmghpZGIdcOu0I81w6BGjBnf63kOrgtHG0nkjdZHRwytZ5jUle89x61cW6C+NxclYgmnzXZPk737rYIuTZDTsi1GV5Crh3iJeTaIVDHmFxzqjvyByLpzW0NNKMgnr55Shq1d5pdaRRybd6XQq7NMTMl1/iGSPbc+TiCSENnE712cDU9WfoSR1eKpr+YdhfdOvoKSu5JpOjEGL7I22XeoKBPiOfaDD4lV+DNPYinxLl2hp12rqhQfDpaiLOPHvYUNNlqzuboIuWffEINHF2kjeNkx3HGx0KOk6002RkZxjULuTaDTMi1GV5Crh3iJeTaIVDHmFwjHnBUdAy9tLGOUhOi6aYFmUxIzC41Crk270sh1+aYuSHX/V5s1mLDTrchLnbJH2l77S46J2ce/WDKnbSkYJ6KJtLhMLvjYC0Xcm3Wn0KuzfDC016Ra/XNCN3bl+Y6ngMU1H72GVV9+KGKkw1P9pjLLqPs+fOVPttpEXLtFKne54Rcm+El5NohXkKuHQJ1jMk1BrjPF0vv7myi2uZOuopD8hWmxjLZcO69FnJt3pdCrs0xsyHXik/w/+I4LnZdRwO9eOANeoEzPGb4UujuSdfTHROuobSYFI4o0sZCKee2r99CyLVZfwq5NsPLc3LdR+5a+OQAdw7gzdaabFx8RCi/URzCL5812bmLFyuvdqgi5DoUQof/Xci1GV5Crh3iJeTaIVDHgVzHMbneWdFG6/f46cKTUunM8UnUFnB+q1HItXlfCrk2x8yWXOtvVHGxWYu9sW4b/c/uP9Du5jJazBrsh4vup/mZp1E3RxTp4IgiJkXItQlavV5YkYWYYwZJiK0sRH8ryF1LS0u/LCdCa7I5Tnb9F1+oEH7+PXsodcYMyuWU6khGczS5iJBrs/4Ucm2Gl5Brh3gJuXYI1HEg1/Fxscpr/cKndTRvUjJddHIqtQu5PqKD9CYCf7CNpy7k2tz+vSLX+GZktY3qjqRD/kpaVfsBPb3vFYqPiqPvT+GIIhOuory4LI4o8lVc7FCtFXIdCqHD/y7k2gwvPO2pLITrG0iudYv642RzxJr6zz+nSmiyOU52LGfYK7z4Yso799xBSbaQa7M+FXJthpeQa4d4Cbl2CNRxINfwXMNT/fqWBspIiqYrTkujBF+UytbopIjn2glKhz8j5NocMy/JtSZ33Wz3SYlJ9FndVnoCcbFZi70w50z6UdE9tCR7rkqd3t4V2ost5NqsP4Vcm+F1PMm1allwnGz2btdu3KjSqiPjY78me948iufENLoIuTbrUyHXZngJuXaIl5Brh0AdB3INzTWI9MclzZyxsYOuPSudRqfHUUenM2mIkGvzvhRybY7ZsSDXOGJPTEik2IgYauz00ysHOC723j8rz/bdk66le1iPXRCfy17sViUXGaoIuTbrTyHXZngdd3KtmxcUJzvAnuxaxMlev54aWDaSPHEiFaxYQbkcxg+a7K3bt9P4ceN4PCWYv9yATyDOO2K8I9a7bUFEGkiQoC23LZL+3BxBSX/uADN9LCXpzx2AFfQIFnAkcwBuNuVYxLnG7hkJJqK4absr2+itbY10/dxMOpnjXbcJuT6su0QWYm69wAyLG+zfNiHKsSLXCUwGQI4RFztKxcXeQU+WvEQba7bSaVmz6KesxT4392zkoWEvdoCvOx5JsoVcm9mGkGszvL42ch3UzEgewxG4+FhXp8h1+Zo15C8pUSQbcbLrx4+n6XPmUBw/Y1uEXJsj2MChFeM52ybWc9vi9/sVX8HcaFuGHbn+5f8+2gNdp03RZGwND4J5fISTkpJCXV128VwDgYACHQudbcEuEAULr20BScS7YQG3Lairvr6e0jigPjC0LV6Ra7QDmKFNXuAPvPCuwCyayXWVv4vjXTfRvImJdPZkJhz8fUdx1vXDoklnHU+6uRzGCUTDtmBAYpKwxV+3DXjBzmzapscT3g1ts6kLY6jZ30z+Zr/KnId+sCloC+zMds7QbQD+sAsvNoSoC/XYkmvUgXGJMZCVlWU9lwFzzGfwjum+RNIZH2d3rA800huH1tIfDrxKCdEJdCdHE7l5zOU0Jr5AZXfs7OFxqOh2b8HncTkMi5EXNtvMKavRl7Y2i8/v379fYZ+dnW2FmbZ/4K83JDY2C/yx8UJWSy8KMAO5sLVZzBVlLH/Aeokfm7EJzJAFFCXYzty8rz7tVactMKPnngAAIABJREFUjJnN/BNss6b4g2QzyARPdsPWrVT57rvUwXGyowsLaQzrsbMWLSIfrwO4INnNY9/RIhIECN4T5A626wVmsDGsdTaxwdE8jT/qG8X6cxv8URfa9AVvUqZOnWo9N6K+Rs7ACbxs1ybUhbGEcYTxZPuemP9hs7aZcLWjpri4mGbOnOm6XREg17Y7ED0ZruVbv3PnzhVy7XBG85pcYwHHhG076R8Lco2Bo7zqzBOQPObD4hZuZw8nk0mhJF8ky0VCg3aikGvbDYnX5BoLCCaxkUKubTfRXpNrLG4gioNtSBBRBAloilv30rP7X6cPqz6lk5Kn0Q+n3U3nZp+txjJItibYGEdYdLEYeUGuQdTViZKlEwOfP3DggKfkGrjZLrqYVVAPFl4vvGOoD5iBXNjOs16Ta7wjiu0laE3usJ54tbkB8XeLP8izIolch58zPh7kONntvCmJ4QQ0uRdeSNkLF1ISe7N7eIx1c5udFk3uMF94gRneEbZmuyHR+KM+L4gi2vQlhzycwmnobR0PekMCvLyoC2MJ48iLzY1XEW40uS7h05KioiL35PrRx37dY6s30mRg9erVNJ8DwqempnriuRBZiNNpovc5rzzXx1IWwu4FRSbWcTi+XRyW7+4lOZQzKoYCDqQhmlzXcFrdfL7gYrPT1ciCqMD+vSAqWpYAsmLrhfJqoQzWXBcUFCiSZ1OAOSZ9kB4vCjDDRG1LVPSEiIXSFn/UARsDVrZeWLwXSIr2Ag5mF2g7vNhNAT+9Uf6uSqGORDN3T76OHpx8C2uxcxTBxqVH4I/NErxjXtgsvFDoS9uFEpjBC4u+xCbO5uRSj3Pg5oUXEP2IRdwLLSxsHlICEChbmwW53sMh6HByiR9bzPCOKLaEWM//mINsyR3aA5vH5t4af5xk89y6k/XYPvZgN3OEEaRXT54wgfJYkw3JSBx7sk0KxhJs34uTOMyLsDUvMoHCFtA2nGjYFswZW9nzD6Jou4lGW4LnDNu2BXuubevCHKtt1rYu1LNjxw6aPXu266oihFybYYeJQnuhbMkd6qrlWJ8ZvAO3XShPFHINzHzRnMHuYCu9v9tPV3MymZkFCeqiYyiRx4lCrm2Jin5P9KmtR0UuNJqNbzx9rDXXQ7UoOiJK6bG3Nu6kp1iLvaHmczotE1rsB2h5zgIEVuBTnw4l8QG5s50z8HkQRWwubW0W5HovZ93DxsYrco151gsvoMS5NhsDmlwfqzjXZq05/GnMZ8XsUSwcO5aimUzVMbku74uTnQSSzQS74IILyJeZ6ehrRHPtCKbDHhLNtTPMhFw7w6n/KSHXZoBhosbipi80KnlIVAQdagjQOzuaaGZhPK2YwbtzB6nQhVybYY+nhVybY/Z1kWu0tN+L3dlMf2Yt9hOlz6sXgAf7Xo4okh+XQzWNtRSX4M1pi5Brc/uARxHeYS881zh6xkmvF55rnAKh2Epphju53r17tzq5TGI9MtSEnbxBrOMIIhVvv02thw4pYl140UWUz97soyWjAVZCrs3tX8i1M8yEXDvDSci1IU768cHINTxwAb7v+ta2BvYSRtBtZ2epi46hwl0LuTbvBCHX5ph9neRatxZe7OjIaNrWsJMeZ4K9qXo7zc0+hX48/T6akzhbeXQ7epzrSwdDQTzX5raBTwi5NsNtqCQyZrX0Po35TJNrbHAQtlJpsvm/d7H0pHbTJqpiTXYzX65NZO923tKllH322ZTAkrjBipBr814Qcu0MMyHXznAScm2I09HINf4Wy6R67c5G2l8boNsXZaukMt0h2LWQa/NOEHJtjtlwINdoNS4xxrIWu7mrhV49uIr+WPYaRfJ/u3fC9XTP1BspLz5TZXfs7nFwG3gQGIRcm9uGkGtzzI4puQ6KfgSCjayPiC5Szxrj6g0bVOZHJRc57zwlGYnPyzvsBYRcm/enkGtnmAm5doaTkGtDnEKR62gOG7L9UCtt2tdC581ModPGJrI3++iqayHX5p0g5Nocs+FCrnXLY9iDHcWe7K3sxX6q9GXa2LCVTk+bRT9hL/aynPmKhOMCZOhbC4djIeTa3DaEXJtjdrzIdf+ag4hZOk72zp1UwSGCm/jiaBJ7spGIppAjjPg4xKbqS/Z2R/PztkEdUJckkTG3jbCOcy0XGs0MQjTXZngNJgtBDVGsDalu7qSVLA2ZWRBPl56SRh1CrhW4cqHRzMY0ZidKEhnzt+vTYkdwRJEuP71Y+iY9e/A16mF51X0Tb6B7J99IYxLyqY292F09zvMLCLl20xMiCzFF7XiTa90+HSe7kzXy9azJRjKaVg4XCR12ARPsgvPPpw6WlsQhWo4HeSaEXJtaRu9YCtskMkKuzQxCyLUZXkORa8xlkIG8tKmeUuOj6Zaze293Hy0vjHiuzbDH0+K5NsdsuHmug98AWuz2tnbaGzhEj5c9TxurttKpmTPp5zO/TUuz53GYy0hFsp0UIddOUDryGdFcm+H2dZHrPk+F0mNDl93FoQqVJnvdOuXJjmfvddbFF1P+4sU0ihPT2BYh1+YICrkOgZnEuTY3KnxipIbi6/csMMH+aE8zVfsDdPnp6VSQEkuBo+iuhVyb25mQa3PMhjO5RrQdkOvUxBTysxb7jUPv0Iv731CXG28cdzl9d/KtVJCQ2xsXO4QWW8i1uW3gE0KuzXD7Wsl1UFO1Jhue7LotW9TFR/++fZTIxDqHE9HkLltGCRyFxG0Rcm2OnJBrIdf9CIjn2mwADeW57vWqRlBJVTtna/TT+bNSaM6EJGoLDH05S8i1Gfa9GEcqMoCLOwhfZZOoAvWdCElkbGM2D3dyjWQVKjY1a7ERF3uXfw89VvI8fVy1WXmx/2rGd+icnHnqFKiju2NIoxFybT6ehFybYzZcyLVuObzY6uJjQwNVc5zsSo6T3cohERFdJGfJEipkb3Zcnybb5G2FXJug1fuskGsh10KuzceN+sTRyHUUk+u6lk56/tM6mj8pmS46KZWTZAi5Fs21ubEBs3DWXGtE9OZGZxVVEUWiOKJIoJleZy/242XPckSRSPqLqXfS3ROvo+y4DOXF7hrEiy3k2tzOhFybYzbcyLV+gygm2M2IDc4/rSwTKec42S1ak82JaBBhJJ6zjTotQq6dIvXVc0KuhVwLuTYfN6HJNROiNibTr29pUKH4rjgtjRJ8rI0bQhoinmvzThDPtTlmJ4rnOjhDo46LvaV+B/1f6bO0tW4HLc9bQN+bejstyZqrLjq2D/BiC7k2tw0h1+aYDVdyDftH+u0Yn4+TMiVQJzTZnFodcpEmTlQD7/XoSy9VcbITR48O+eJCrkNCdMQDQq6FXAu5Nh83Icm1utTIZ9cbSlpoX10HXXtWOo1Jj6OOIbzXQq7NO0HItTlmJyK5VqdEfXGxmzr97MVeQ0+WvURxEXEcTYTjYk+6jnLiDo+LLeTa3DaEXJtjNtzJdXR0NPmYYPMxa69chAk34mNXf/QR1bNsJHHcOBp9ySWUNX/+UTXZQq7NbUPItZBrIdfm4yYkucYDSIW+u7KNVm1rpGvnZtDJoxOHlIYIuTbvBCHX5pidqORavyl02Ah1ubn+S3qy9EXaVPMFzck+mX5adD8tyZ7bHxeb/6G0+Eq/zaQCkhO3BQRl7969FBsbSzl8lG6j7dfjvLOzU2WitGmXlqWB+CQlJbl9vcM+JxcazWA8Uci1trNgTXbDjh1U8c471FpeTr60NMrhyCJKk52dfQQIQq7N7EJvVCUU31Fwk2gh5kaFT4z0aCHAIIbJdWVjgF5jacjciUm0tGgU1vxBU6ELuTa3MyHX5pid6OQabxzJ5BrZHRsDfnrt4Nv01L6XFUl9YNJN7MW+nuNiF1BbdzvVN9YLuTY0ESHXZoCdaORav10EbxgRYaSTPdkNX35J5atXUwunVY9lkl3Amuz8FSsoPje3Hwwh12Z2IeTaAV5Crh2ANMgjQq45mQxfamzu6Ka1XzaSLyaCrjkzgxKH0F0LuTa3MyHX5piFA7nu92JHMEHg2Nc7moo5osiz9Fn1djojczb9sOhuWpG3mFr9LdQTw5tc8Vw7NhQh146hUg+eqORaNZ43qSpONv90cZSeOtZkVyKEX3Ex+dLTafRll/Vrsts5FXsHE/Hk5GQzgAZ5Gqc2sLPU1FTruoD/Vk4HX1RURDhhsi2S/twZgpL+3BlO/U9JKD4zwI4WLaRv7lJeto/2+GlneRvdvSSbckax7m2QbI1Crs2wx9NCrs0xCydy3TvGIigu0kdNnc0cF3stPVP2GrWy1/qOiVfTrflX0rT0idQZ2U2d3Z3mYPV9QmQh5tDBzko4BBwIVBp7Q22lNPCcosRzxkFbKU1HRwfhB1Iam7pOeHLd163q8jA02Sx7UhkfmaxWQZPNvxPHjKECjiwyat48iudwfgm8UbUtsAVItrwg1+i/LRzXe8aMGQSbsy0jgVy3t7fTDpYEzZ492zVcEb/830d7lJjfomjP9RpOLzqPDSwlJcV6oggEAooYwBhsBrcmd6jD1jsDiFAPdpXQFtq0S0869fX1amINvvnvtiuAGRY527rwedSF36jP5j1RByYKbEqGwt8XHUlfMLFeV9xMV52RRlNz4waNGKLJdW1NLeXl51m1S2OMBUmHNXOLuyYwOhScrXfgWITi8zf5KTcvV/WDTTkR4lzb4o95p66uTo3zbNZW2pAeYI3PYzzBzmzLwFB8TutT85+Kix1NXzQW09N7X6GPazbTaekz6aGpd9CKnEWs045UcbG7qUfpsk0KMN/HCTkwxr3SXAO3BI7iYDP/aPwRGxz6bS8KIkyAwMJObArWttLSUrVegkTZjE3MGXhHFNiZDWZ6PYfN2mre9TqHudEL/NG2PRw2Ly8vT9mGLWYtHCEE/QAO5BQzrcnu4DjZjTt3UiVrspvZk50wfjzlnHMO5S9dSnEFBYqM9/Ac0mM45+r1F22DbTht12C2qNff7Zz+fdq0adYcCPU1NjYqG7PlQDpaC8aRFxtCEGJsCHFyYIMZ2gPsi7lPZ86c6bquiP/327/vAUg2RQ/GtRyMfe7cudbkGm3BwoaXtJ3A9OSK317s2tBpmPRtF3A96WAXiInVlhBrzPCOXtSFd0Q9XuCPCRC4DYU/pCG1LV30AZPrSVmxtHRaEualI1Kha9IJ4pPLWjebAaTtHQMS9m+LmW4b3tHWzvR4QhttJzD0X7O/mfzNfkV6bBYjtAeYYwKz3ZAH4w9CZmtnGn/UYzs2UQc2vZiDsjgcly251qddtvNsMP5ubRak2cdabGR3fL92Az2z/3Wq7ainGwsuowcn3UjjEkerkH2mXmxgfvDgQYW9LWaaXAB3W6Ko51mMcyzgXhSvNuSYJ7AhGTVqlPqxGZtezhnaIQVybUt6tM2C+HuBP9pWVlam5jLUZ4sZ2oV+cON4i4TEAnIRJmItHLqvhj3Z0GRHMlHPYIKdu3y58mqr1Otsf0csaEMYo8YfbbM9OdDkGl7YyZMnu3rP4GZqQoz5xw1mA+vCWEKdtuPcyw0h5n+0C6dK06dPd80zRBZiONuKLMQMMD1RALehiCKIdKCL6K1tDZir6LaF2exhO/JSoyZQNTU1KtugF+Taq4USbfMqicmx8FxLhkbndhtuspDB3jwqggkFe7G3VH9Jfzz4Gn1cvYlOSptOPy66ly7KX6oWvPYuJgQOi8hCHAIV9JjIQswxA/HZzUQW878XnmucQuhQfG7XE+XJ5p8WdpTVbNpEfv5pYI82oosgTjZSqyP7o0kRzbUJWr3PYgONH2xUbQs2Nju5D61kIY8+9use2+NKvWtYzbdp53MsSHhibbw9uj7thXJr9ABYe0FQh60XUHtBYPgmx0hDdbRcaPwKmViOGrJ2ZyPtrw3Q7UyuM5Ojj5CGCLk2nzJEc22O2Ugg10AlkmUggbYAx8MkWlX1Pj1V+idqZl32bZOuoe9MvoXGJxZSC2d37B4ku+NAVIVcu7Mz0Vyb4TYcybXmGW18osducILIto41zkqTzfGy4b3OYy82fhIKCx29sJBrRzAd9pCQaweYCbl2ANIgj+C4HoucF0fsqAv94MXRDyaKo3mu8SrRLA3ZfqiVNu1rofNmptCpYxOpc8ClRiHX5nYh5Nocs5FCrjGeoC1MiIunuOg4jiiyRyWeWVexkWZlTKNHih7kiCILVTr1ju4AK7GHjoMt5NqdnQm5NsNtWJNr9nbCqZjEntMIlrpBk93E3s9ylstCm40sjzmLFtHob3yD4kKkVRdybWYX4rl2iJeQa4dADXjsRCbXSHpR09xJb7I0ZEZBPH3zlDTqEHJtfUIi5Np8LI00cq30k9ExFBsRQ82sxV556D16Yu8L1MaykPsm3aBiY49J5LjY/P+RRn2wIuTanZ0JuTbD7UQg1/oSqNZkI052I+Jkc8CHZk60lNBHsvOWLaMEXHwcpAi5NrMLIdcO8RJy7RCoMCLX6gJjdw+9vKmekuOi6eYFmUp/HZw0TjzX5nYh5Nocs5FIrnVUoGiOi42oIbv9ZfRY6XO0oXIznZ45k34280Famr1Ahc0EyR5YhFy7szMh12a4nUjkWr2ZjpONS43s2YZMpGbjRpVWPYY93GM4rXo2e7OTOMV6cBFybWYXQq4d4iXk2iFQ4USue+chen+3n6r8nXTV6RygPz32sHjXQq7N7ULItTlmI5lcKz7A/4uL4oginS30Rvk79GzZ69QV0UU3jrucvdg309jE/CO82EKu3dmZkGsz3E44ch30ekhEE8lyEXiyQa6rWZMNbTZ02FqTDekIShcHAGjikHdexLmWJDJmNoan5UKjA8zkQqMDkAY8ojc3x1NzjSZEsu56dyXiXfvpgtmpdNaEJGoLfBWXWci1eV8KuTbHbKSTayAGdXWMiigSQztZi/1E6Qu0vnITzcyYSg9Pv5cuyDuH/xbFEUV6tdhCrt3ZmZBrM9xOZHKt31RFF2EpVoDJM7TYFdBkc6g8SETgxYY3O4Y12c18H2KUB7HZhVyb2ZiQa4d4Cbl2CFTwDptdyMf7QiO+HvGu61s66blP62j+pGS66ORUahdybRVyUMi1uf0Luf4KMxUXm73YzezFXlXxPj1e+jy1dLbRbROupu9PvZ3jYhcywUaUhAjay3pS6Le9SiKDo3HbJCY6FCjCZCJmsBdF0p+boXhCpz93+KqwM3g7caHRqc1GIOFbX5zsBibXSpPNMbxjWS6SzZFF0jkhTTbHprYtQq7NERTPtQPMhFw7AGm4eK5B6ju7aeX2RkpPjKJvnppO8bGc4bHPeS2ea/O+FHJtjpmQ6yMx03GxdzWV0O85osj6ms/o1LSZ9N2pt9El+eeqqEK7SnYJuTYwN4lzbQBW36Ph4Lke+NbwZCuSzRG6oMmu/PBD8nMWynjOQpnLBBsRRgZqsk2QE3Jtglbvs0KuHWAm5NoBSMOEXOusjAjHV1LVTlfPSaexGXGKcKMIuTbvSyHX5pgJuR4aM2R3RFi+NVUf0uN7nqfGQDPdMfEa+sGMu6inOkCdkd2UnWOXMl6Pc/FcO7ddncQKn7DNqqhlgTi9tM0QiPaI59pZP/ZrslkOUsea7Ip166gJmmyWiyhNNkcXMU1Go/HfunUrFRUVWWevRX3IKg0b8yLjLE6BsEYhIZBtkTjXDhCUC40OQBrkkRM5FJ9+nWg+Xi5m3fXKbY107ZwMOmVcYr80RMi1uV0IuTbHTMj10TGLZi12NGd33O0vpd+VIi72p3R67my6M+0qOr9gMWVlZ1FrR9tR42If7RuEXJvbrJBrd5h5kaFRO35MZSFDtRgh/LrZ09RYWUk9hw4puQg02fGclVLFyWZNNrzaTot4rp0i9dVz4rl2gJl4rh2ANOCRr+tCI5oRw+S6sjFAr21poDl8oXH5DA7ID+8H37AScm3el0KuzTETch0aM6XFZi92S1crvX5oLT1R9jyHOCD6zpRb6Y7J36Ix8Xkqu+NQcbGFXCOZXxTJhcbQthb8RDjKQgYioO8JtAUCNColRUUXCdZkxyQnU/6KFVRwwQVDxskOrlPItZmN4Wkh1w4wE3LtAKRhRK5xqbGlo5vWfNlIvugIuoa914k+jhHK7FrItXlfCrk2x0zItXPMdFzsHU3F9Fjx87SxeiudlXsK/WD6XXRezkI1ZgeLiy3kWsi1cyv76smRRK5xCTeZiTQSPvRrspFWneUiSEqj4mRfcQXlLFyoUqwPVYRcm1uakGsHmAm5dgDSMCLX8FIjJN/6PX76sryN7l6STbmjYlS8ayHX5n0p5NocMyHXZpjBi50Ym0Al5WW0suo9eqP+Xb4nEaA7J32LHph8E41OyGOC3eHYiy2yEDP88bTIQtxhNhxlIcERbkCue/oyqfVrspl0N2zfTlUffEBNfPERqdSz58+nvHPPHfTio5Brc9sQcu0AMyHXDkAaRuQaTYHHevvBVnqPE8ogmcyswgTluUaWGVxaqKmpoXzWn+lJx/wNv/oEvANxcXFqcbIpenFDvF9ETrBpmyYXCgufz6ouIdfmvSrk2h1mNVU1FB8TRxUxtfRE8Qv0cfUmmpUxjX46/T46P3cxwcvd3t0RUost5NocfyHX7jA7kci1fkNFsnldQJzspuJiqmBNdsMXXygdNjTZhd/4xmFyESHX5rYh5NoBZkKuHYA0zMg1LjVWNHBEgh1NVJQfR+fPSlXZG5E7Tsi1WX8KuTbDC08LuXaHWSVfwIrljWVuRi41dDRyXOwPVAr1ts52umvitXT/5BtpUtI46mAvdqCnc8gvEXJtjr+Qa3eYnYjkup9kI042L4xd7CBCMhpcfPSXllIMx3PPP++8Xk12X8bHz1lOUjR9ukQLcWgmQq4dACXk2gFIw4xcg0gj+t5b2xpUy25flK0uOuJ0TMi1WX8KuTbDS8i1OV4aM5BrnNxkpGdwiscezvCI7I4l9CTHxf6w8lMqSp1MPyq6h+NiL6NYvgzZyhceBytekmvYf4Avhg33JDLp6emE0INuy0gh19j47tq1S51cInwbvLJuCzA7kcm1cjfxO8CTzR4B6kacbA65V8VxshugyWZJyWj2YmexJruUT3xnzZihggPYFoTiA/Y4obUtXobiQ7Q0kOJRrEW3LeAZOzhCy+zZs11XFfH3//erHhw92xQdXeLtt9+m+az9SeEbrshU5LYci1B8aIvtcT3qwGDGuyHGo83Rv66rrq6OMLHayhJQn5eh+LAgoU1YLG3eU+vHgJsJZrFRkfTuribaVxegOxZmUloi2tFLrmtraikvP8+qXdo2R4osxN/kp9y8XKvFCJjBFjCBIc6pFwX4Y/4BCbIpXspy0BaMS5Cd7Gy7mM14J8wXGJtYkGzGUjD+XkqZMC+CtNgUfF6T67S0tH47642L3UErK96jP5T9ieo6G+meSdfR3ROuo4mJY9Vlx4ERRfT8D/xtMVOePcYfdobMeV4UEDLYv63NArNS9jSmpqaqH9s1E+MSBbZhY2faIQWbdZpt8Gi4oi0tHLvZC/yBeTFLIfJYAuEFuUa70A+28ju9IUQfemGzsH30p+M44yDZ/IO06l38TvUsE6nmi48N7LGOY6x8Z51FRZdeSskTJrAsi+dxXo/xY1rwHcFxrm3tLJhc29YVHOfati7MF7t376ZZs2a5HksR/++3f99jGwxcT4Zr166luXPnWpNrdDjIHQaS7aSPumCoaKMXdYEk4gek07agHhgqJlYvyDUwwzvaTvqaEKjBakl6dF0wdhPMmFtTCSel2Ly/jRZOSaCTCuJ4Ee7dQID4IMWyzQDSfYf6QC5s8ddjAPjjx6ZtenFDG203hOg/kAH8gCjaeHo0uYOd2c4Zxwp/vK/thhB1YFxi3sjMzLQiPXhPYI66bBfwYMy8wD/YZm3HOWy+urpaYQ/nSrCdISZ2DOut97TspZfLV9E71etpbHwB/WDinfQN5cWOUSnUe9Sy3+uNg40BM9uEKBp/LLxebgi92NwAM6SMB17wttmMTU3u8L62dqYdIugDL/D3ckOOtpVxinDM/15sIkBgYfsmjp/B1n09ltCHtu2ytVmlyWaSHeAELS0lJVTHJNvPdhbLnuyUM86gXMhFxo6lSHi7eYz1GDhCtbcfNubFPAsSizq9sFnYK35sNzewB7QLYTKns5TG7Voe8ehjv/bUcz1v3jxPduEgPV4slMNdFuKl59orcq0nCvy2JXd6ooaBmtSFkHx1LV30JktDpuXF0WWnpCmpSJtcaDTa04ksxAgu9bBort1hpj3XOIkb6IXVcbHbezro7coPlRa7vq2Rbhl/BadQv52mJo2n1u52HuO9jhDM/8PZc40F3HZDLp5rczvTnmvIQkD8bTck8FyDJHpBrrGB88pzrU9bHHuuB4ESyWhAoDuZKO54910ijjDSwhuTSLbdfI4sUnjhhb0kGw4AHAv3RSUJ1SuNfJESGwgvNvhw+mAceZWhEfOGCl9oWbDpgvwInmu3RZFrAGVT9GS4evVqJQvx4ohrpJDr2tpaysjIsJ6o0X9eykJQl5fk2lQWolOhv7ypjpJ80XTLgkyKZnd2Kxu9RAtxPlqFXDvHSj8p5NodZkcj17pGZHeM4p+9LQfod2Uv0rsVH1NRSq8W+9L85RTDXuw2JtkgKpL+3Hk/aFkUPmHrbdbruaQ/N8PfqwyN2iGl41y79Zyi9fBigziXMKkewxuSZtYRV7ImG3Gyo/niY+HFF1Pu4sWUNHGi45eV9OfOoBJy7Qyn/qe8POJFXUKuB+8AXLwAwf6Aw/FVNXXSFWek09gMH/lbhFybmKyQaxO0ep8Vcu0OMyfkWtfsi4pVUpDV7MV+quQlqu2op5snXEkPsRd7UvI4amhppPZAu7XmN5iowAvoRYFOFJ42L6Q0kqHRrEdGYhIZK3Ldd+cAdjZ+/HiKZbsNsLceFx6RjKZu0yaKZ4lN7rJllL98OSWxJjtUEXIdCqHevwu5doaTkGvVRIVyAAAgAElEQVRDnPTjenEz9Vzj85E8MRRXtdGHTLDPn51K8yYlU4O/VTzXBn0h5NoArL5HhVy7w8yEXKtNDHuwobcu9u+lp8tepncq1tPU1An0yIxv07kZC/gmKEvJ4mPZ82Z+8Wrg/DPco4XgEqjthUa8I4p4rp3Zr9YPQxbiheZ3WHqug8j1uHHjeu899V18DLAkw8+X9ir4rlzdtm2UyGH7cs85h/KYZOPfQxUh1w7tS2QhzoDST4nn2gwvG3IN3XV9Sye9sLGO5oxPpktOTaPGZiHXJj0g5NoErd5nhVy7w8yUXCvvDv8PEUVautvo7YoP6f9KniF/VwvdNvpKemDizVSUOZlaOU5251HiYh+tteK5Nu9LkYW4w+xEIdf9GR8RJ5tlIzpOdiVnfGxm+QjSrSNONjTZg6VVF3LtzD7Ec+0Mp/6nhFybAWZDruG57uBbjH/e2kApCdF0FUtDoilAlZwJTjI0OusHIdfOcAp+Ssi1O8zckGv9TfBiQ2+9219Kv0dc7KpP6PT0WfTtKbfSpQXL2csdzWH7Bo+LLeRa0p+bW2wvZid6nOtQ7413xIkIZCHacz1QZhLBlx6VNpsjbdSzB1vFyeZQfjEcurIAmuwlSyh50qT+rxJyHQr13r8LuXaGk5BrQ5z04zbkWl9q3FDaTGU17XTdWZmUyxeBD1VUC7l22B9Crh0CFfSYkGt3mNmQa/2NKi52T4BWH3qfHtvzPDV1N9NN4y+n7065jaYmc0QRJthdBjIR8Vyb96V4rt1hdqJ5rge+JfodIfw6OWgAyDXiZNd+9tlXmmyOMAJNdiNrtuP5uRgPwhF7mUQmOM61eQ8e/gnJ0OgAweEeik8uNB69E5EKfU9luwrJd93cTCrKiaaDFVVCrh3YPh4Rcu0QKCHXruO5ArrgJDKDheIz6YUYjovNOhDa0bCHXq5cRWvK19HElDH08PT76bLCFUpGguQzOi720eoWcm2CfJ/HrS8UokQLcY4d7OxEJ9f9DrG+ONmdrMluhCb7nXeogT3acZwnIefssyll6VLKRCp1eL8si5DrEABKKD53FibRQkLjhrTnVU0BJQ2ZOzGZ5o33qQuNeRxWyOYWtf7mkZKhsampSW1IbC5NATMvE0KgvuGYoVE816HH5cAnvCTXihAHOimqO5IifBFKi/146QvU0tlKN467jO6bfCNNT57IXuwjszsO5o1DSD+50Oi8T8Vz7RyrfkIaRuS6/520Jps92U0c87mcLz42MdmOzcqi3EWLVKzsJL4kaVOEXAu57kdANNdmQ8lGFoJvgu66nXXXCMmHjfIls5OovZkzNOYKuXbSE+K5doLS4c8IuXaHmReyEHyzPm0EKU5OSOIkF1G0v/UQPbPvVXrz4Ls0bdQkenjGfSoudlRklPJiD1XEc23el0Ku3WEWLp7rIzaoQZrsBk5EU7F+PTVu3UrRnMRHxcnmCCPBmmwT9IRcC7kWcm0yYoKetSXXOHiK5Kgh6/f4aUd5O90yL4ViOhspKydPPNcO+kTItQOQBjwi5NodZseCXOuwckqL3Y3sjuvodyUvUkNHE90+6Sr63tQ7aEx8vko809XTdUTDhVyb96WQa3eYhSu57keDvVvRnPa8obqa2vbsofqNG6nm00+VXCSXpSKIk21KsoVcC7kWcm0+36hP2JJr1OGLjqDth1rZe91CF81KoML4FuW5VilbLYvIQswAFFmIGV7a/qFfReIRWymTxh9ZdVG3TcHnkf4ZaYwR/9ambV7LQgIcuQCe6+CYzYgo4kNEkeYy+j0T7PcrOaJI1mzWYt9H52TP42gj0SoxTbAWW8i1uYUIuXaHWdiT6771vBkXGjnFeATPaVqTjSgjcZmZlL1gAY2+9FJK5LTqToqQayHXQq6djJRBnvGCXONSY0VjgNbu9NPE9Ag6M7+LCgqYXHcLuQ7VLeK5DoXQkX8Xz7U7zI6l51q3SMXF5uyOLV2ttLL8PfojS0Xgxb574nV0/+QbaELiWBWyr7PPiy3k2rwvhVy7w2ykkGsQYiTdieUNPmJid0GTzVrs8jVrqKm4mKL5v+exHrvwkksosbDwqGAKuRZyLeTafL7xzHMNBx3LrmnVdk6J3N5Ol82IpDGjC6hLyHXIXhFyHRKiIx4Qcu0Os+NBrnXLdHbHHU3F9LvSF2l91SY6KW06/ajoHroofynHxY5UWmwh1+Z9KeTaHWYjjVzHxMSo067gONkI4VfFyWgadu7s9WRzdBFoskdNmTIoqEKuhVwLuTafbzwj16golr3X7/KlxuJDfrriJB8VTcijzi73aZH164gsxKxjRRZihpfIQszwwtPBFxpDpfKGFrud9dYrK96np0pepqbOZrpx/GX0PY6LPSl5HP+tg9oD7RItxKAbhFwbgNX3aDiF4jva2+M9tedak+v+5/lvUSwxgye7kcl19YYNVP3RR72abE5Eg6yPyZMnH1a9kGsh10KuzecbT8l1NF9q/LKijTaUNNGiiXG0sCiTAl0iCwnVLeK5DoXQkX8Xz7U7zI6n5zq4hdGstY7hDI7I7viHsj/RO+XraXLaOBUXG9kdo3uiqc5fT4lJieYvNsgnQAign8fYsimwM2TOS01NpbS0NKswmSA9cBSghNqQhGqzkOtQCB35dyHXX2GCbI8qGQ2Pkya2b8TJrufoIj54sufPp9Hf/CYl9Wmym9lmI9j7jfFkW4ZdEpnf/O4fe3A5xqbowfjWW2/R2XwMgMnCJp6urg+Tl+1FG+0FgccNF3dsLu0AIwnFZ2YpXmiu8Y1RvHjUtXbRa5traUp2LF0zN4elInx1yZJfi+farD/Fc22Gl3iuzfDC0yaea107QnbG9iWXQVzsJ8peoLp2Tjw15hJ6YMKNNC66kOJHJVB3hP1pl5fkeg9HXcB6aZt4ZySR610cc7mgoEARMqzHbgswGynpz2Fn48eP94RPDem5HtARSi7CP/2a7L442VGs185mqUjBhRdSNxPuWE6zHuu2Ewd8DgQbenAvypdffknTpk1zXVXEz/755z22jdGT4Yeck/60006jUaNGDTtyDYSOOMZwARsGMzYOXhH1hoYGNbna3vzHq+CGPbwhth4V3Z/47cXmBrf+Qcps8Nep0FftClBSXBRdNjOGMbMn19DJwf5t8deeC+DlBWaILoFia2ewBUSEwISYk5NjNS7RHvQjJjDbDbkeel7jD/u3sTO1keM66uvrFVYZGRlWmGlyjTEAzGw392gfMPMCfy9tFpghuRN+e+FcwVwG/E0xi+aIItHsxd7bcpCeLHuJtrTt4kvQY+l7426lZWnzOcJBD3VQQEUUweVINwWEDN5h23kWn9+3fz+N4sgLKSkp1kQRdoFiitlADLRzC32QyMTH1maxZsKJgbpsC9pWVlam5jIv3hNzI2wWa4DNe6JdmBdhs15EBUI96E8vMAP++/bto0K+XOjF2gT7x7oUcp6F5wsLNzzZjHE321MDE9ZK1mRHHjpEaSwXSVu2jDIXLqQ25kCd3M4Inif1OmNiK9pm0QfJPJ5s+xLYl5aW0tSpU02acdizEZfffWUPjMum4MVgDOhAZIGzJQRoCwwC9dqSHl0XfttOhrrT0TZbzHRd6ERM1F4U9AHecThiBmO3xR9LYRVlUXtkIo3pKab4bj/18MUlm4IFBBOOF5iBQMEuvKhLn/zY2pnXCyX6Ee+JidWL4jX+eF8vMMO4xDj3YqFEPfiBnXlRgJlX+KMvMS6tx2afLAH425IeYAT7h625xUynSN8RVUo70vZTY0Qzndwxjc6qmEZjo/Mo0MOh/gaJi+2kf7DxBf624xyfh3MFxM4WM72JQ/ttCZReM9EHXtgZ+hE2C15gW/Ce2PiCdIYkdyG+LNiJZDtnBNusbbs0N/AKM+Df0NhIKez0tLVZtM21E69Pkx2AQ4s34pO4rkTOHBzDG8uDzIE2g0fypgnrfA/Gv8GphJdODF0X7AzOFbcl4qf/9EiPrdFrI123bh2deuqpnniu0YGY8GH0trsQLzynGmDxXJuZmt54ATfbSQfJZA419tDHewM0f1wknTY6ltoC7o8F8SZeHSNpzwXs1XZx04QY7bPdqB4LzzXIhe1pl7Yi4I93tJ30vcTfa881SArmM1sCFYyZF/hrzzXGpe08q3Xq+A0vrK0sEHM26rDxKCJiiC/KR40xzfTsgdfo7fKPyNcWRQ9NuJ2uGn0hxUfFc/KZNuP1Bd5O9KXthgSfP8Ce62QmPTjttZU4eOm5hr3ix6vNJdrmha4WmMFznc1eTzilbDGDRx02azvP6vkH7fFC8x7subblP6jrwIEDSkpjO87xnrax8aHJ5kWSknneD7AHu+b996mJo4yUs0c86eSTaQw02SxhicRpAtugU5KNdQk/SUlJZiRlkKexLll7rqG5NvGcBnuGtHdBk4GVK1cqzbUXlzMAUrhrrvVlMxiDzSShbQOYgdjZTvq6P/HblhDrXSDez3YCA7mu83fQc5/U0rzJKXTJqenUgRh9FmUkaK6xSGKyAOnBv23KSNBcYwzBLjC/YWyC6Lkt2v7DNYlM8HpQXl6u5p+srKz+zRLszZQcaGfNwCQyrvuAu6+xpZE2tnxBj+9/nmra6uj6sd+kh6bdQUWcSr2jm4kk/zjd4DWxtw2eUzfzrD7BA06YE4s5LjDWS5BF1If/BlvRJ7dO31mTHjxvS4g1UUQ7bI/Y0R68C6QEqMtNAWYghfiBTWjNNfpAryt6M+a0D9EOPAu5HPrCduOLuoLnDFObD8ZF2z/qw6bLtC79vOYC2NhozTW4nrY9rAkqlJ5BMio8C/tXca4t7rDhe3uAP29Ue9jOukCyWS7i53jZuAyZx3KRwosuomhWQpgU2Kyts1h/n7Xm+tHHfu34QiMGP0DBJAqQ9YSA/4aXWr16Nc3n26BeaO7CmVwDO/zU1taqSQd4gfjYLOIwiJFArtuZTK/c1kjJvki64vR0Smb9NS42ui3hTK418Tl48CA18rEgNHe2ZDHcybVewOG1wL9Hjx6tFiO3nthwJtd6HqvmdMg4PsVvLLogBCCN2JgDP6wbJvh5Ta5BwAIdAUpNTKGylgP0dNkrtLr8A5qYNJZ+XHQvXTn6Ar4MGUOtnHzGSbG50KgJNNZQeBLhhc3kS10YVzt27FDjU+s8TTEL12ghGIcgglgvITvdyWHe8BubCPxt7969yuaAnQkRhZ2F64VGjD3M+fAyw752M2mFXeG/AT9s6CZNmqQ4hylmTi80hhpLekMYxfNrPDZKvBGvR5xsDt9Xv2UL4eJjARPsPMTJdqB99iJaCGwM4w6cDONx5syZamOCqD6zZs1SnNdpiXBKrvUi8cknn1CTv4lFMaQM+vTTT1eTKHZHQq5Dw653iVvYeHBUgwkCxopOxG1efRoQuqYjnxgJ5LqLyfU72yuopt1H18xJp3GZcVbe63Am11h41vINbSzg2M1jjK5YsUItTG43cuFMrrWE5s9//rPaqAIjLELL2IsCz5ab06VwJdf6VAtSwK0cZuv6669XeGGBe4dDb2FRx7/HcsithXxhCbboFL9jQa7RFnjtQKK7erppTeU6erL0Japoq6Lrxl9K359yJ01NnqBiZuPvRytuybW+j/HUU0+pMfnjH/9YeTuxeL/wwgtqLYBXEOPzhhtuUBsVE8zCkVxjY4ux+F//9V+KZzz44IPK3vLy8tSGbuPGjfQv//IvdP/99yvyY3IyF67kGnM9tPzAZTLHlYYtwcGCUJnPPPOMsjOQyDPPPJO+yRIME4Ktvf2wTS9OtTFPYN5VJwc86FScbB6rSEJTwyS7mvmmj/u54IILKIfnkaGS0WC82pLr/SzRgn0BL+ACjBAB7/nnn1cbFGD67W9/W+HmpDgm15gYsOMBKTxn6Tmsg+lRC/dJJ52kdkAY2EKuQ0OOyaKiooIQWQWEesyYMfT5558r41+6dKk6bjTxWAR/Y7iTa2C3t7SEPtxaSvVJ0+nqM9LptHGJnCTCvTQkXMk1sMLx6RtvvEEX8e4fXutXXnlFLUpnnXWW8laYeCy0nYUzucZi8RFP6Bibt956q1p0/vu//5su4Il99uzZrjYk4UiusRZg3LzPWklghcUaiw5+g1iD/Fx++eVqM/fcc8+pDV1RUZFj4nMsyTXsWGd3LGs+wHGxX6FV7MUeP2o0PTLjQbqs4Lz+kH6IKDJYcUOuMR4RTQXkBmNyCmes+/Wvf62q/81vfqNOMm+88UZ1We/v/u7v1AKPTYlTsqhlCajPC81vsH7VzTwRjBs2CCBRplpYjEcESXj66acVt8D6+Mgjj9DmzZvVpg3Y/MM//ANBjvpv//ZvdDLrdXWUpdArca8sJNw817Az8DRs4D5gmQU2vfc/8AAdZEceyHZubi7dfPPN9PHHHytMQSa1vMYpZl57rvvJdV9c3f442Yhy1RcnG78hF8maO7dXkz1hwhHNtSHXmLd+9atf0dtvv02//e1v6ZprrlGc7KabblL/vvrqq+mv/uqvlD3+4Q9/cAIVOSbXAOC9995TR6TQVaO8++67aoFesGCB2jWsWrVKZCEhYA9O6gFtIiYQeC42bdqkPGQ2YQzDmVxjQceR1scfraOUnDG0oTyWlp5UQEunJxFLscmtMiRcyTU8ASDTIDhYdDAhIpYubM7mwmU4k2vggo0uFp7zzz9fbXJff/11tajDgeBm0xuO5BpzFhYeaBKB2fbt29UiDvuChxGe1/M4Gxu8W1io4GFcvny54w3dsSbXmKIRhg9ebOit4cV+rORZ8ne10C3jr6R7Jl5PM0ZNVunTO3o6jwjY54ZcAwvYFo6aMeeAAP3lX/6l8kxjMwLMsAGGjd1zzz108cUXKwxHMrkGZti8wRkFewNu8PbD7kASsVGBNxGSB2xMzjjjjBFPruG1Bg8DH4MjFDKGB77zHdrC/AIbEZBFfSF93Lhxxjr4Y+q5HpC0QsfJ7uZ3aWKOVLFmDTWwwyiS5x+lyeYxkhxEsm3I9eOPP6685y+++KJypsCe4MnGZg5SZ3BePAOHyy9/+UvvyLXW1q3hl4M2GLGsUXAkU1dXpxYfIdeO8FYPaTxBGHEMiKMHTBbwKGKydespCFdyraU08JRlZWZQSnoWvbCujL1h0+nKU1lrx7rrLpfsOlzJNbwRmAygR5zAExDeE14xeLEhPxJZyJHjFeMRxOmJJ55Qf8ScBu3dt771LTXxCrk+HDMs5F+wRhLeHixGINfwjk2fPl0tRiDeL730klrMQRb1nZ1QM+XxINe6DfBiIy72vtZD9Ny+1+iNQ+/Q5MRx9BdFd9IVhRdQQlQctQzQYrsh1/r7YEevvfaa8vr/zd/8jTqqx1jFZT/gA9uDxxGLOoiR03Eajp5rvVZiM/f73/+eDvGlt5/85CeKUH/66afq5Pz222+nRx99VI1RHNdjzDot4ei5xrvriCD/+q//quzqwe9+lz7qs6k5c+aocYk7JZD0YlNscop5PMm17kd4skG0EZ4PmuxqlqIh4yM82QXsBMll/pnCcw6unbcwn0LceDcFG1mcWILPwruP//8f//Ef9J//+Z80Y8YM2rZtmzohWbRokaPqHXmuhyLXMHAY+jksOBdy7Qjv/odg4CA7OA3AcSp2R1isnGrsBvu2cCTX+lIevD7YSS5ZspgO8u9XN5RS1uQz6ZazUigvNcZ1KvRwJtf/8z//oxakB/hYEJviP/7xj4pk48geC5YbWwtnzzUwgdcHelh4WkGm33zzTSUJcbvxDUfPtZ57gBcWHBypDkWuoSUGjtjUDUdyrd/FF+ljLzbrxas+pqdYi32wtZKuGnsh/XDa3TQzZQq1d7EGvy8utg25xhz/6quvErTqf/u3f6s82CDR2MQ9+eSTijDee++9dMopp6jF3amjJVzJtc7bAHKNjcjPfvYz5an+53/+Z2VTkKX+8Ic/VOQaa6gpUQw3WYgm19iUgQhi3ge5/oBVBvD6/+hHP6ILWFbxMfMOYPgd9mpjM+xUTvN1kOt+rtMXJ7uLN+uNPG6qocnesIF8fC8mlzloxpIlFM8a8ySXGcchXbrjjjvU3A9yjRMSyN2wAcHGDesnxitwgyMhVHFErlEJjBwTAibKxYsXK+8rPBYgifPmzRNyHQrpoL8Ds6qqKnXkhWN67CYx6cLAnU6mI4Vcw+4wUcCbA8xwway+tooq2+MpYcI8uvL0DCrKx2WzoRSSR++YcCXX0F3iIgakNFdeeaUi0+vXr1eeRmjI3F7QC3dyDRnDxIkT++c4eBlxOnfVVVepOc90fIYzudaSkGBy/dhjj6kxeiGnNsacBpkIdP7wBjk9lTuenuvg2UHFxWaSXdqyn54pe5VWHnqPpqdNou9NuV1psROiOS42S0VwoR8OETeh+DAOYVNYS+G5xpyG/4axisX8rrvuUjIunGg69VprD284XmjUjj1sPECuf/7zn6sNL+wM0VZgU3DyQdMPQoR7TCZSmnAk13rN/Pd//3clM/32975Hm1ll8Nd//df08MMP0yksn9nHGuZf/OIXSkuMTYmOkR6Kxnyt5LqvcYdpstkDX8Eb0np2vsUwl8rmE7PR7M1O5jlcZYc0KLCFO++8s59cY5xiAwyehoIISPBs40QAl2dDFcfkGkcN8Ohs4J3CXBaVY5HB5R8QQ1zKkwuNoaDu/bv2WEPLiV0ldGIwWAwIHOHYBHkPR881MIOtYaHBj7qot3MHbfj8S0qdtoSm5ifTeTOS1TgaINly1CHhSq6xYEPfCTvDZhibOHjMQBxx0mTi4QkGMtzJNS6b4cgUele8KyKHYOHG5TI3mIU7uYZeGE6W2267TS3kWB+wGEGzDg8vpISXXnqpkiKZkB4861WcaxAwHS0k1KSgtdjtrMVeX/MZPbn3JSr176drx15KP5h+J01PnkQ1DbUUGx/rmly//PLLylmgtZs4dgaG8FhDB4t5HOPVJMZ0uHquNbmGxA3hC6FTx8VQHc0HpBASmmuvvZZPNZc4Ph3RG5JwJtf/9E//pDjGQ9//vrrQ+I//+I/KpuAowIYYkd9++tOfGoVOHg7kWo/hYE22H5psllo18qkG77gojzfzSpNtQLIxX0GTjgvY8GDjLgk2u5AeQUIDiRswg8MA4zNUcUyutdcGInkcNeP/Y+cILQr+jclLooWEgpuUlwKLNxYgHAWCTGMhwaUf7IZssk6FK7kGqvp4sBe/Etq5q5iaU2fwH6LpjrMzKSbK3aXGcCXXwAy2BW81PGI6cx6ItU1EmnAm1zoUH+YxePzxrhiX8LricpVorg+f32BTiP/62WefKU+1DukFm0OYUeAFTyIWJpONydfluQ5+u0jlxeZoFS2H6Om9r9Bbh96nKcnj6eEZ99HylAU0KimZU6hzjOAhIooMtRLAOYC5H+soFm7M2SDZIIw5nPpZz+GXXHKJWlud2ly4k2t4q3GCBPIDJx/IDdZKzN/Q+cP+TOQNI4FcQ5KFCC0IK4eNCeY0XALVJyLADBm1nUpCNGbHOlpIaBZ1+BPKk83jqp1toYY3+83sxa7jiDIRzBWgyQbRTmEHSagCW8JYhAQElxrxnpAJAjPgqC8bYz5zUhyTaw2sjtqAwYxdkB78kkTGCdy9z3QGeuPBYsHp7oupikkXk4W+vOe8tq+eDGdyHYwHJocoxm39vg4qremg2xZkUU4Kx691cakxnMk1bAmbEdyLwAYOOjHYnNMFezAbDGdyrTdxINmIcQr8gBnwcqNP13Mm7DUcMzRqEox3w+KjJQ4gPvrf8GabxNHVmH1dnuuBNo+IIpijV3NEkd/teZ7qOhrppnGX0/en30HjkkazFhtxsbscT9fADN5WYAZs8J6QgOC3tjE8A4+jSUi9cCXXGljM08AHmEH3CscepDkYm8BPxTA3zBgYrhcaNWbwyuswd4hIhvCPmL/hHIXTAE4Wkwugw5Vc63Z18Bjq4rGTwGtePZ/aVvMmv4ZP0mLZiZnDp7f57JFOmTZtyLEKbLBWwpGiQxpigwvbw+YEp0om/MyIXOtWaelC8GQg5Nrx/Mqh43inhVS3PGmjM+HBhgNEaRINPSHB3xru5Fov5rh4kJ2RTtsONtMnpc20fAbLa8YnUmeXeabGcCbXmixiAsWCjgXbLUnUdhbu5BrvifkNCxMWbpvQmOFOrvX7ae0xNLFYlLBwo7jdyA0Hz3XwvKrjYpc071OJZ96t/lh5sX9a9ABdnH+O0mlDi+107gZeOlMjQsxBox48NjVuJmM13Mk1xqS2KVxo1BkagZHOoOrmPkQ4ykKCeRrsArwAJ0wgh9iAaNtz42QZTrKQ4DGq3xOb1CR2+sJr3cmkuBmabJbAwJMdw+sf4mSPveIKSmKZ2tE02TpcJi7Mui2uyPXAL9MvJrIQs27AxIDjQGT/MdkRDfUtI4Fc4x2xIcnJzqK6li7685Z6mpYXR1eclk4dQq6PMA1MpPDs4AfeHjcTanClI4VcY1zC44qjehvMwllzfRgBZfKjybX29pvNhl89PdzItdpE6LjYPQF6fd/b9OT+l6kx4Kfbxl9F35l6K2d3nMgEu42lIl1HxMUeCgcQRngU4VzxArNwvNA4EDvMZwPJtY2dhTO51ptfzF+aXNvkOND1DTdZiG4XuAHINTzyWKf6Ndn836HJLueLj40skYzhzWwO52bJ43s1ozh/wWAkG84onJAgUpTbIuTaEDkQYiy6ODow3SkP/CrUheNneHqEXIfuCL2Jg3YsKytTRQh5ZXM9HwNF0s0sDXGjux4JnmtMhjqtsg1R1J4jTDw4hvWiAH+MJTeRFwZ6LlAXFg/btLwgPRiXGOcIk2aDmZBrcysZjuS63xvIcbEDbR1U0V2jtNhryz+iaSmT6KFpt9OVhedTXJTviLjYRyPXID0g1/Be29qZkGszWwt3WchIJ9faGoLjZDcwua5Bfha+JwJSreNkp7L8I7gIuXYwlvREDSJsqnrLi50AAAE1SURBVMkarHoh1w5AD3pEkwvgZot/MLlW3n4+iP2wuJnKGwPsuU6jcZk+43jXQq7N+nOkeK6FXJvZBTYk4ey5DkYDc0ZqYorK7ri2aj09VfIihwatpW+N+wY9NPV2mpI0Xv0tlExEXwgVcu3c1sRz7RwrIdcDsAqOk82ZHo/QZJ97rkpGgyLk2oGdCbl2ANIRNtir09IX4mw89MeSXCPteXFVO32wu4nOmzmK5k8aRW2BbqMXFnJtBJc6rRHPtXPMxHPtHKt+TxMvgsPlQuNgrddzRjRHKvJFxdKh1gp6vOQFWnXwfcpPzqGfF32brh5zkfqovrA+WD1Crs1tQ8i1GWaYf0aqLGQopHSc7G7mOM379tHBlSuphkPs+fjyehbH/J7ISWMi+cRyB3u5ZzuIZz3U9/z/Yjahvrgans0AAAAASUVORK5CYII=;" vertex="1" parent="1">
          <mxGeometry x="50" y="-20" width="727" height="648" as="geometry" />
        </mxCell>
        <mxCell id="0jfEXohT_UeZMaqnGIv1-2" value="" style="endArrow=classic;html=1;rounded=0;entryX=0.399;entryY=0.802;entryDx=0;entryDy=0;entryPerimeter=0;jumpSize=13;strokeWidth=3;" edge="1" parent="1">
          <mxGeometry width="50" height="50" relative="1" as="geometry">
            <mxPoint x="70" y="609" as="sourcePoint" />
            <mxPoint x="340.07299999999987" y="498.6959999999999" as="targetPoint" />
          </mxGeometry>
        </mxCell>
        <mxCell id="0jfEXohT_UeZMaqnGIv1-3" value="" style="endArrow=none;dashed=1;html=1;rounded=0;jumpSize=13;strokeWidth=3;" edge="1" parent="1">
          <mxGeometry width="50" height="50" relative="1" as="geometry">
            <mxPoint x="110" y="720" as="sourcePoint" />
            <mxPoint x="30" y="500" as="targetPoint" />
          </mxGeometry>
        </mxCell>
        <mxCell id="0jfEXohT_UeZMaqnGIv1-4" value="" style="endArrow=none;dashed=1;html=1;rounded=0;jumpSize=13;strokeWidth=3;" edge="1" parent="1">
          <mxGeometry width="50" height="50" relative="1" as="geometry">
            <mxPoint x="270" y="680" as="sourcePoint" />
            <mxPoint x="140" y="320" as="targetPoint" />
          </mxGeometry>
        </mxCell>
      </root>
    </mxGraphModel>
  </diagram>
</mxfile>
